<?xml version="1.0"?>
<svg xmlns="http://www.w3.org/2000/svg" xmlns:xlink="http://www.w3.org/1999/xlink" version="1.1" width="512" height="512" x="0" y="0" viewBox="0 0 128 128" style="enable-background:new 0 0 512 512" xml:space="preserve"><g><path d="M126 63.167a2 2 0 0 0 0-4h-6v-2.462a7 7 0 1 0-4 0v2.462H60v-2.462a7 7 0 1 0-4 0v2.462h-3a2 2 0 0 0 0 4h3v26.166h-3a2 2 0 0 0 0 4h3V97h-3v4h71v4H54.643a5.898 5.898 0 0 1 .357 2v2h57v14a2 2 0 0 0 2 2h10a2 2 0 0 0 2-2v-14a2 2 0 0 0 2-2v-8a2 2 0 0 0-2-2h-6v-3.667h6a2 2 0 0 0 0-4h-6V63.167ZM100 89V63.167h6V89a1.989 1.989 0 0 0 .034.333h-6.068A1.989 1.989 0 0 0 100 89Zm-10 0V63.167h6V89a1.989 1.989 0 0 0 .034.333h-6.068A1.989 1.989 0 0 0 90 89Zm-10 0V63.167h6V89a1.989 1.989 0 0 0 .034.333h-6.068A1.989 1.989 0 0 0 80 89Zm-10 0V63.167h6V89a1.989 1.989 0 0 0 .034.333h-6.068A1.989 1.989 0 0 0 70 89Zm-4-25.833V89a1.989 1.989 0 0 0 .034.333H60V63.167ZM55 50a3 3 0 1 1 3 3 3.003 3.003 0 0 1-3-3Zm61 47H60v-3.667h56Zm0-7.667h-6.034A1.989 1.989 0 0 0 110 89V63.167h6ZM122 121h-6v-12h6Zm-4-68a3 3 0 1 1 3-3 3.003 3.003 0 0 1-3 3Z" fill="#ffffff" opacity="1" data-original="#000000"/><path d="M52 113h-1v-6a2 2 0 0 0-2-2v-6a2 2 0 0 0-2-2V61a2 2 0 0 0-2-2H19a2 2 0 0 0-2 2v36a2 2 0 0 0-2 2v6a2 2 0 0 0-2 2v6h-1a2 2 0 0 0-2 2v8a2 2 0 0 0 2 2h40a2 2 0 0 0 2-2v-8a2 2 0 0 0-2-2ZM21 63h22v34H21Zm-2 38h26v4H19Zm-2 8h30v4H17Zm33 12H14v-4h36Z" fill="#ffffff" opacity="1" data-original="#000000"/><path d="M4 101h7v-4a1.991 1.991 0 0 1 1-1.723V32h104v7.191a10.561 10.561 0 0 1 4 0V32h6a2 2 0 0 0 1.926-2.541l-7.019-25A2 2 0 0 0 118.981 3H9.02a2 2 0 0 0-1.926 1.459l-7.019 25A2 2 0 0 0 2 32h6v65H2a2 2 0 0 0-2 2v8a2 2 0 0 0 2 2v14a2 2 0 0 0 2 2h2.35a5.96 5.96 0 0 1-.35-2v-14h3v-2a5.898 5.898 0 0 1 .357-2H4Zm.639-73 5.895-21h106.932l5.895 21Z" fill="#ffffff" opacity="1" data-original="#000000"/></g></svg>
