<?xml version="1.0"?>
<svg xmlns="http://www.w3.org/2000/svg" id="Layer_1" enable-background="new 0 0 74 74" height="512" viewBox="0 0 74 74" width="512"><g><path d="m68.95 34.33c0-.82-.57-1.51-1.34-1.7-.15-1.1-1.08-1.95-2.22-1.95h-.7v-.59c1.18-.11 2.18-.97 2.37-2.1.13-.74-.07-1.5-.55-2.07-.5-.58-1.22-.92-1.98-.92h-18.7v-.77c0-1.32-.99-2.41-2.26-2.59v-1.87c0-.41.28-.77.68-.86l10.89-2.52c1.09-.25 1.84-1.21 1.84-2.32v-3.84c0-1.09-.89-1.97-1.97-1.97h-.67v-.88c0-1.31-1.07-2.38-2.38-2.38h-18.29c-1.31 0-2.38 1.07-2.38 2.38v.87h-1.89c-.41 0-.75.34-.75.75s.34.75.75.75h1.89v.87c0 .8.4 1.5 1 1.93v5.99c0 1.21.99 2.19 2.2 2.19s2.19-.98 2.19-2.19v-2.33c0-.38.31-.7.7-.7.38 0 .69.31.69.7v.11c0 1.21.99 2.2 2.2 2.2s2.19-.99 2.19-2.2v-3.32h9.52c1.31 0 2.38-1.07 2.38-2.38v-.86h.67c.26 0 .47.21.47.47v3.84c0 .41-.28.77-.68.86l-10.89 2.52c-1.09.25-1.85 1.21-1.85 2.32v1.86c-1.29.17-2.29 1.26-2.29 2.6v.77h-9.71c-.76 0-1.48.33-1.97.92-.48.58-.68 1.33-.55 2.06.19 1.13 1.18 1.98 2.36 2.1v.59h-.7c-1.14 0-2.08.86-2.22 1.97-.75.2-1.31.88-1.31 1.69v4.2c0 4.35 1.56 8.47 4.23 11.7v15.02c0 2.07 1.68 3.75 3.75 3.75h27.27c2.07 0 3.75-1.68 3.75-3.75v-14.97c2.69-3.24 4.27-7.37 4.27-11.74v-4.21zm-28.01-18c0 .38-.31.7-.69.7-.39 0-.7-.31-.7-.7v-.11c0-1.21-.98-2.2-2.19-2.2s-2.2.99-2.2 2.2v2.33c0 .38-.31.69-.69.69s-.7-.31-.7-.69v-5.54h7.15v3.32zm11.91-5.7c0 .49-.4.88-.88.88h-18.3c-.49 0-.88-.4-.88-.88v-3.25c0-.49.4-.88.88-.88h18.29c.49 0 .88.4.88.88v3.25zm11.83 21.55h.7c.41 0 .75.34.75.75v.8c0 .41-.34.75-.75.75h-.7zm-26.08 23.14s.01-.01.01-.01c0-.01 0-.02 0-.02.09-.31.28-.58.56-.75.2-.12.42-.18.64-.18.1 0 .21.01.31.04 1.31.33 2.63.5 3.93.5h6.52c1.3 0 2.62-.17 3.93-.5.67-.17 1.35.24 1.52.91s-.24 1.35-.91 1.52c-1.51.38-3.04.57-4.54.57h-6.52c-1.5 0-3.03-.19-4.54-.57-.67-.17-1.07-.84-.91-1.51zm18.47-1.23c-.63-.94-1.8-1.43-2.95-1.14-1.19.3-2.39.45-3.56.45h-6.52c-1.17 0-2.37-.15-3.56-.45-.71-.18-1.45-.07-2.08.3-.35.21-.64.5-.86.83-2.39-1-4.47-2.53-6.13-4.42v-14.43-3.8-1.32h3.59c.79 0 1.43.64 1.43 1.43v3.9c0 1.33.86 2.48 2.09 2.79.23.05.45.08.68.08.73 0 1.43-.28 1.96-.81s.82-1.23.82-1.97v-1.49c.14.02.28.04.43.04h.79c.48 0 .93-.14 1.32-.37v.27c0 1.53 1.25 2.77 2.78 2.77.72 0 1.43-.29 1.97-.82.51-.52.8-1.24.8-1.98 0-.33.13-.66.37-.9.31-.31.86-.53 1.46-.25.44.21.73.7.73 1.25v2.92c0 1.53 1.24 2.77 2.77 2.77.73 0 1.42-.29 1.96-.81.52-.52.81-1.22.81-1.96v-5.44c0-.79.64-1.43 1.43-1.43h3.59v19.6c-1.67 1.89-3.74 3.4-6.12 4.39zm7.46-27.59c.32 0 .61.14.82.38.2.24.28.54.22.85-.08.5-.58.87-1.15.87h-4.83c-1.62 0-2.93 1.31-2.93 2.93v5.44c0 .34-.13.66-.36.89-.25.24-.57.38-.91.38-.7 0-1.27-.57-1.27-1.27v-2.92c0-1.12-.62-2.15-1.58-2.61-1.07-.51-2.31-.3-3.17.54-.52.53-.8 1.23-.8 1.98 0 .33-.14.66-.36.89-.25.24-.58.38-.91.38-.71 0-1.28-.57-1.28-1.27v-.65c0-.44-.1-.86-.28-1.25.05-.2.09-.41.09-.63v-4.93zm-22.12-3.4h.79c.62 0 1.13.51 1.13 1.13v7.22c0 .62-.51 1.13-1.13 1.13h-.79c-.62 0-1.13-.51-1.13-1.13v-7.22c0-.63.51-1.13 1.13-1.13zm-13.38 4.63c-.05-.31.03-.61.22-.85.2-.24.5-.38.82-.38h9.71v4.95c0 .69.27 1.31.7 1.78v2.31c0 .34-.13.66-.38.91-.31.31-.77.44-1.22.33-.55-.14-.95-.7-.95-1.33v-3.9c0-1.62-1.31-2.93-2.93-2.93h-4.82c-.57-.01-1.07-.39-1.15-.89zm-.57 5.2c0-.41.34-.75.75-.75h.7v2.3h-.7c-.41 0-.75-.34-.75-.75zm-1.28 5.6v-3.84c.36.76 1.13 1.29 2.03 1.29h.7v11.7c-1.73-2.67-2.73-5.83-2.73-9.15zm33.75 28.97h-27.27c-1.24 0-2.25-1.01-2.25-2.25v-13.42c1.62 1.55 3.52 2.8 5.66 3.68-.05 1.27.8 2.45 2.08 2.77 1.63.41 3.28.62 4.9.62h6.52c1.63 0 3.27-.21 4.9-.62 1.28-.32 2.12-1.49 2.08-2.76 2.12-.87 4.02-2.11 5.64-3.65v13.38c-.01 1.24-1.02 2.25-2.26 2.25zm3.75-19.75v-11.77h.7c.92 0 1.72-.56 2.06-1.36v3.9c.01 3.35-1 6.54-2.76 9.23z"/><path d="m20.95 18.66h-12.61c-.96 0-1.75.79-1.75 1.73l-1.54 47.84c-.01.41.32.76.73.77.44 0 .76-.31.77-.73l.16-5.13h15.85l.16 5.13c.01.41.35.73.75.73h.02c.41-.01.74-.36.73-.77l-1.52-47.82c0-.96-.78-1.75-1.75-1.75zm.71 15.98h-14.03l.17-5.24h13.69zm.04 1.5.17 5.25h-14.45l.17-5.25zm-14.33 6.75h14.55l.17 5.26h-14.89zm14.07-14.99h-13.59l.13-4.16h13.32zm-14.29 21.75h14.99l.17 5.25h-15.33zm1.19-29.49h12.61c.14 0 .25.11.25.27l.06 1.8h-13.23l.06-1.83c0-.13.11-.24.25-.24zm-1.57 41.48.17-5.24h15.42l.17 5.24z"/></g></svg>
