<?xml version="1.0"?>
<svg xmlns="http://www.w3.org/2000/svg" xmlns:xlink="http://www.w3.org/1999/xlink" version="1.1" width="512" height="512" x="0" y="0" viewBox="0 0 74 74" style="enable-background:new 0 0 512 512" xml:space="preserve" class=""><g><path d="M68.95 34.33c0-.82-.57-1.51-1.34-1.7a2.244 2.244 0 0 0-2.22-1.95h-.7v-.59c1.18-.11 2.18-.97 2.37-2.1.13-.74-.07-1.5-.55-2.07a2.62 2.62 0 0 0-1.98-.92h-18.7v-.77c0-1.32-.99-2.41-2.26-2.59v-1.87c0-.41.28-.77.68-.86l10.89-2.52a2.365 2.365 0 0 0 1.84-2.32v-3.84c0-1.09-.89-1.97-1.97-1.97h-.67v-.88c0-1.31-1.07-2.38-2.38-2.38H33.67c-1.31 0-2.38 1.07-2.38 2.38v.87H29.4c-.41 0-.75.34-.75.75s.34.75.75.75h1.89v.87c0 .8.4 1.5 1 1.93v5.99c0 1.21.99 2.19 2.2 2.19s2.19-.98 2.19-2.19v-2.33c0-.38.31-.7.7-.7.38 0 .69.31.69.7v.11c0 1.21.99 2.2 2.2 2.2s2.19-.99 2.19-2.2V13h9.52c1.31 0 2.38-1.07 2.38-2.38v-.86h.67c.26 0 .47.21.47.47v3.84c0 .41-.28.77-.68.86l-10.89 2.52a2.374 2.374 0 0 0-1.85 2.32v1.86a2.624 2.624 0 0 0-2.29 2.6V25h-9.71c-.76 0-1.48.33-1.97.92a2.53 2.53 0 0 0-.55 2.06c.19 1.13 1.18 1.98 2.36 2.1v.59h-.7c-1.14 0-2.08.86-2.22 1.97-.75.2-1.31.88-1.31 1.69v4.2c0 4.35 1.56 8.47 4.23 11.7v15.02c0 2.07 1.68 3.75 3.75 3.75h27.27c2.07 0 3.75-1.68 3.75-3.75V50.28c2.69-3.24 4.27-7.37 4.27-11.74v-4.21zm-28.01-18a.7.7 0 0 1-.69.7c-.39 0-.7-.31-.7-.7v-.11c0-1.21-.98-2.2-2.19-2.2s-2.2.99-2.2 2.2v2.33c0 .38-.31.69-.69.69s-.7-.31-.7-.69v-5.54h7.15v3.32zm11.91-5.7c0 .49-.4.88-.88.88h-18.3c-.49 0-.88-.4-.88-.88V7.38c0-.49.4-.88.88-.88h18.29c.49 0 .88.4.88.88v3.25zm11.83 21.55h.7c.41 0 .75.34.75.75v.8c0 .41-.34.75-.75.75h-.7zM38.6 55.32l.01-.01v-.02a1.24 1.24 0 0 1 1.51-.89c1.31.33 2.63.5 3.93.5h6.52c1.3 0 2.62-.17 3.93-.5a1.253 1.253 0 0 1 .61 2.43c-1.51.38-3.04.57-4.54.57h-6.52c-1.5 0-3.03-.19-4.54-.57a1.25 1.25 0 0 1-.91-1.51zm18.47-1.23c-.63-.94-1.8-1.43-2.95-1.14-1.19.3-2.39.45-3.56.45h-6.52c-1.17 0-2.37-.15-3.56-.45-.71-.18-1.45-.07-2.08.3-.35.21-.64.5-.86.83-2.39-1-4.47-2.53-6.13-4.42V30.11H35c.79 0 1.43.64 1.43 1.43v3.9c0 1.33.86 2.48 2.09 2.79.23.05.45.08.68.08.73 0 1.43-.28 1.96-.81s.82-1.23.82-1.97v-1.49c.14.02.28.04.43.04h.79c.48 0 .93-.14 1.32-.37v.27c0 1.53 1.25 2.77 2.78 2.77.72 0 1.43-.29 1.97-.82.51-.52.8-1.24.8-1.98 0-.33.13-.66.37-.9.31-.31.86-.53 1.46-.25.44.21.73.7.73 1.25v2.92a2.77 2.77 0 0 0 2.77 2.77c.73 0 1.42-.29 1.96-.81.52-.52.81-1.22.81-1.96v-5.44c0-.79.64-1.43 1.43-1.43h3.59v19.6c-1.67 1.89-3.74 3.4-6.12 4.39zm7.46-27.59c.32 0 .61.14.82.38.2.24.28.54.22.85-.08.5-.58.87-1.15.87h-4.83c-1.62 0-2.93 1.31-2.93 2.93v5.44c0 .34-.13.66-.36.89-.25.24-.57.38-.91.38-.7 0-1.27-.57-1.27-1.27v-2.92c0-1.12-.62-2.15-1.58-2.61-1.07-.51-2.31-.3-3.17.54-.52.53-.8 1.23-.8 1.98 0 .33-.14.66-.36.89-.25.24-.58.38-.91.38-.71 0-1.28-.57-1.28-1.27v-.65c0-.44-.1-.86-.28-1.25.05-.2.09-.41.09-.63V26.5zm-22.12-3.4h.79c.62 0 1.13.51 1.13 1.13v7.22c0 .62-.51 1.13-1.13 1.13h-.79c-.62 0-1.13-.51-1.13-1.13v-7.22c0-.63.51-1.13 1.13-1.13zm-13.38 4.63c-.05-.31.03-.61.22-.85.2-.24.5-.38.82-.38h9.71v4.95c0 .69.27 1.31.7 1.78v2.31c0 .34-.13.66-.38.91-.31.31-.77.44-1.22.33-.55-.14-.95-.7-.95-1.33v-3.9c0-1.62-1.31-2.93-2.93-2.93h-4.82c-.57-.01-1.07-.39-1.15-.89zm-.57 5.2c0-.41.34-.75.75-.75h.7v2.3h-.7c-.41 0-.75-.34-.75-.75zm-1.28 5.6v-3.84c.36.76 1.13 1.29 2.03 1.29h.7v11.7c-1.73-2.67-2.73-5.83-2.73-9.15zM60.93 67.5H33.66c-1.24 0-2.25-1.01-2.25-2.25V51.83c1.62 1.55 3.52 2.8 5.66 3.68-.05 1.27.8 2.45 2.08 2.77 1.63.41 3.28.62 4.9.62h6.52c1.63 0 3.27-.21 4.9-.62a2.753 2.753 0 0 0 2.08-2.76c2.12-.87 4.02-2.11 5.64-3.65v13.38a2.268 2.268 0 0 1-2.26 2.25zm3.75-19.75V35.98h.7c.92 0 1.72-.56 2.06-1.36v3.9c.01 3.35-1 6.54-2.76 9.23zM20.95 18.66H8.34c-.96 0-1.75.79-1.75 1.73L5.05 68.23c-.01.41.32.76.73.77.44 0 .76-.31.77-.73l.16-5.13h15.85l.16 5.13c.01.41.35.73.75.73h.02c.41-.01.74-.36.73-.77L22.7 20.41c0-.96-.78-1.75-1.75-1.75zm.71 15.98H7.63l.17-5.24h13.69zm.04 1.5.17 5.25H7.42l.17-5.25zM7.37 42.89h14.55l.17 5.26H7.2zM21.44 27.9H7.85l.13-4.16H21.3zM7.15 49.65h14.99l.17 5.25H6.98zm1.19-29.49h12.61c.14 0 .25.11.25.27l.06 1.8H8.03l.06-1.83c0-.13.11-.24.25-.24zM6.77 61.64l.17-5.24h15.42l.17 5.24z" fill="#ffffff" opacity="1" data-original="#000000"/></g></svg>
