<?xml version="1.0"?>
<svg xmlns="http://www.w3.org/2000/svg" xmlns:xlink="http://www.w3.org/1999/xlink" version="1.1" width="512" height="512" x="0" y="0" viewBox="0 0 64 64" style="enable-background:new 0 0 512 512" xml:space="preserve" class=""><g><path d="M52.5 0h-48a1 1 0 0 0-1 1v62a1 1 0 0 0 1 1h24a1 1 0 0 0 1-1v-8.012a4.947 4.947 0 0 0 3 1.025l.02-.002h22.97l.01.002a5.003 5.003 0 0 0 4.997-4.988l.003-.015a1 1 0 0 0-1-1h-6V1a1 1 0 0 0-1-1zm-15 50.011V2h6v48.011zM27.5 62h-6V2h6zm-14-60h6v60h-6zm-2 60h-6V2h6zm18-10.986V2h6v49.014a3.002 3.002 0 0 1-2.98 2.998h-.02l-.007.001a3.002 3.002 0 0 1-2.993-2.999zm26.007 2.999-.007-.001H36.477a4.98 4.98 0 0 0 .923-2.001h20.916a2.994 2.994 0 0 1-2.809 2.002zM45.5 50.011V2h6v48.011z" fill="#ffffff" opacity="1" data-original="#000000" class=""/><path d="M16.53 8.002a1 1 0 1 0 0-2h-.01c-.552 0-.994.447-.994 1s.452 1 1.004 1zM16.53 16.002h-.01c-.552 0-.994.447-.994 1s.452 1 1.005 1a1 1 0 1 0-.001-2zM16.53 26.002h-.01c-.552 0-.994.447-.994 1s.452 1 1.005 1a1 1 0 1 0-.001-2zM16.53 36.002h-.01c-.552 0-.994.447-.994 1s.452 1 1.005 1a1 1 0 1 0-.001-2zM16.53 46.002h-.01c-.552 0-.994.447-.994 1s.452 1 1.005 1a1 1 0 1 0-.001-2zM16.53 56.002h-.01c-.552 0-.994.447-.994 1s.452 1 1.005 1a1 1 0 1 0-.001-2zM40.53 8.002a1 1 0 1 0 0-2h-.01c-.552 0-.994.447-.994 1s.452 1 1.004 1zM40.53 16.002h-.01c-.552 0-.994.447-.994 1s.452 1 1.005 1a1 1 0 1 0-.001-2zM40.53 26.002h-.01c-.552 0-.994.447-.994 1s.452 1 1.005 1a1 1 0 1 0-.001-2zM40.53 36.002h-.01c-.552 0-.994.447-.994 1s.452 1 1.005 1a1 1 0 1 0-.001-2zM40.53 46.002h-.01c-.552 0-.994.447-.994 1s.452 1 1.005 1a1 1 0 1 0-.001-2z" fill="#ffffff" opacity="1" data-original="#000000" class=""/></g></svg>
