<?xml version="1.0"?>
<svg xmlns="http://www.w3.org/2000/svg" xmlns:xlink="http://www.w3.org/1999/xlink" version="1.1" width="512" height="512" x="0" y="0" viewBox="0 0 512 512" style="enable-background:new 0 0 512 512" xml:space="preserve" class=""><g><path d="M178.344 7.5h31.062M504.5 240.469v-31.594c0-4.142-1.679-7.892-4.393-10.607M209.406 7.5v31.062h-31.062V7.5h-31.062v37.125c0 13.807 11.193 25 25 25h6.062v31.062h31.062V69.625h6.062c13.807 0 25-11.193 25-25V7.5h-31.062zM116.219 426.844l23.394 7.798a50 50 0 0 0 43.546-5.832l7.843-5.229a50.004 50.004 0 0 1 39.862-6.905l40.667 10.167M209.406 293.885v70.834M178.344 364.719v-70.834" style="stroke-width:15;stroke-linecap:round;stroke-linejoin:round;stroke-miterlimit:10;" fill="none" stroke="#ffffff" stroke-width="15" stroke-linecap="round" stroke-linejoin="round" stroke-miterlimit="10" data-original="#000000" opacity="1"/><path d="M256 422.961v-58.242c0-25.547-15.42-47.492-37.46-57.036-5.521-2.391-9.134-7.782-9.134-13.798v-22.354h-31.062v22.354c0 6.016-3.613 11.407-9.134 13.798-22.04 9.544-37.46 31.489-37.46 57.036v67.302l7.863 2.621M255.469 193.875c-8.284 0-15 6.716-15 15v31.594l46.594-46.594h-31.594zM333.656 193.875l-88.794 88.794a14.953 14.953 0 0 0 10.607 4.393h47.125l93.188-93.188h-62.126zM457.906 287.062H489.5c8.284 0 15-6.716 15-15v-31.594l-46.594 46.594zM394.84 241.41l-45.652 45.652h62.125l88.794-88.794a14.957 14.957 0 0 0-10.607-4.393h-47.125L419.6 216.65" style="stroke-width:15;stroke-linecap:round;stroke-linejoin:round;stroke-miterlimit:10;" fill="none" stroke="#ffffff" stroke-width="15" stroke-linecap="round" stroke-linejoin="round" stroke-miterlimit="10" data-original="#000000" opacity="1"/><path d="M37.474 452.584 7.5 504.5h497l-95.227-164.938c-13.472-23.333-47.15-23.333-60.622 0l-19.575 33.906c-15.628 27.069-50.293 32.156-73.076 15.261M178.344 274.073c-15.619-7.667-36.059-3.027-45.842 13.918L55.212 421.86M256 287.062v101.667M287.062 398.451V287.062M457.906 287.062v136.735M488.969 477.599V287.062M209.406 100.688v170.843M178.344 118.956v-18.268M178.344 271.531V153.956M333.656 193.875h-46.594M240.469 240.469v31.594c0 4.142 1.679 7.892 4.393 10.607M411.312 287.062h46.594M442.375 193.875h-46.594M302.594 287.062h46.594" style="stroke-width:15;stroke-linecap:round;stroke-linejoin:round;stroke-miterlimit:10;" fill="none" stroke="#ffffff" stroke-width="15" stroke-linecap="round" stroke-linejoin="round" stroke-miterlimit="10" data-original="#000000" opacity="1"/></g></svg>
