<?xml version="1.0"?>
<svg xmlns="http://www.w3.org/2000/svg" xmlns:xlink="http://www.w3.org/1999/xlink" version="1.1" width="512" height="512" x="0" y="0" viewBox="0 0 512 512" style="enable-background:new 0 0 512 512" xml:space="preserve"><g><path d="m401.9 182.13-57.46-8.22c-2.98-.4-5.73 1.64-6.15 4.62l-.77 5.39 95.27 13.61.77-5.39a5.432 5.432 0 0 0-4.62-6.15zm-4.96-14.82 7.12-49.8c1.05-7.37-7.37-12.3-13.29-7.88-1.7 1.3-2.95 3.23-3.26 5.5l-7.12 49.8zm-30.39-4.34 7.11-49.8c2.75-19.39 27.92-26.28 39.94-10.23 3.43 4.59 5.13 10.46 4.28 16.53l-7.12 49.8 20.15 2.89c10.54 1.5 17.97 11.4 16.47 21.94l-.77 5.39c7.23.62 13.12 7.91 11.76 15.76l-2.44 17.09c-.68 4.73-3.83 8.65-8.05 10.46l-5.84 40.85c-1.19 8.39-5.22 20.58-10.21 27.52a44.32 44.32 0 0 1-5.24 6.12h54.17c3.85 0 7 3.15 7 7v85.95c0 3.85-3.15 7-7 7H165.71c-3.86 0-7-3.15-7-7v-60.8H82.35c-22.39 0-40.68-18.28-40.68-40.68V164.64c-5.27 0-9.33.06-13.63-4.25a14.442 14.442 0 0 1-4.25-10.26v-27.21c0-7.99 6.52-14.51 14.49-14.51h251.29c7.99 0 14.48 6.52 14.48 14.51v27.21c0 7.99-6.49 14.51-14.48 14.51h-3.4v144.11c0 2.89-.31 5.75-.91 8.53h17.09c-11.74-3.43-14.26-9.67-11.76-18.96 3.54-13.24 20.95-31.29 25.14-60.58l1.64-11.57c-7.82-1.13-12.9-7.94-11.85-15.34l2.52-17.52c1.05-7.4 7.8-12.5 15.65-11.4l.77-5.36c1.5-10.57 11.4-18 21.94-16.5zm67.24 79.82-20.1-2.89c-.2 27.27-3.29 57.71-15.53 76.31 9.21-1.79 17.04-5.81 22.34-13.21 3.66-5.1 6.86-15.22 7.74-21.34zm-34.05-4.87-31.35-4.48c-.2 28.63-3.69 61.54-19.36 79.51 9.58 1.98 19.39 3.66 28.69 4.25 6.86-3.91 12.1-12.25 15.79-24.6 4.13-13.84 6.18-32.23 6.23-54.68zm-45.3-6.47-23.24-3.32-1.64 11.57c-4.54 31.89-22.85 52.47-25.48 62.25-.2.77.4 1.42 2.58 2.04 7.51 1.11 16.16 3.09 25.43 5.22 6.89-4.05 12.25-12.08 15.99-24.04 4.21-13.38 6.34-31.29 6.36-53.72zm90.12-18.14-122.77-17.52-2.35 16.55 122.77 17.52zm-54 117.98c-3.85.23-7.79.2-11.82 0h-44.7c.62 1.87.96 3.8.96 5.78 0 22.11-22.54 19.98-22.79 30.05-.23 9.55 22.79 9.21 22.79 32.12 0 1.33-.17 2.69-.45 4h1.56c3.57-18.71 4.28-16.87-2.3-33.42l-3.26-8.25c-1.22-3.66.79-7.63 4.45-8.82 16.64-5.5 67.75-5.92 67.75 21.43 0 15.73 42.75-1.16 50.2 29.05h20.83v-12.5c-18.43.57-36.51-11.74-36.51-29.93 0-9.16-14.83-7.97-17.55-29.51zm46.66 71.94c-10.83-13.21-48.44 1.98-48.44-29.05 0-3.8-4.31-6.09-9.44-7.71-9.24-2.89-22.73-3.2-32.63-1.93 7.23 18.17 7.34 19.42 3.63 38.69zm-3.26-71.94c3.15 14.14 17.32 11.28 17.32 29.51 0 10.09 11.71 16.38 22.51 15.9v-45.41zm-261.24 12.5c18.43-.57 36.51 11.71 36.51 29.93 0 7.03 8.36 7.6 13.89 17.55 3.37-10.89 13.72-15.42 22.88-19.45 4.79-2.1 8.99-3.97 8.99-4.88 0-.43-4.2-2.15-8.93-4.08-11.2-4.59-24.07-9.86-24.07-25.8 0-1.98.34-3.91.96-5.78h-50.23zm39.82 59.44c-3.15-14.17-17.32-11.28-17.32-29.51 0-10.09-11.71-16.38-22.51-15.93v45.44zm27.19-71.94c-1.76 1.45-3.74 3.6-3.74 5.78 0 6.58 8.22 9.95 15.36 12.9 9.35 3.83 17.63 7.2 17.63 16.98 0 10.01-8.14 13.61-17.4 17.66-7.23 3.17-15.59 6.86-15.59 14.63 0 1.47.88 2.83 1.9 4h81.21c1.02-1.16 1.9-2.52 1.9-4 0-13.89-23.22-11.54-22.73-32.46.51-20.92 22.73-17.86 22.73-29.71 0-2.52-3.23-5.58-3.77-5.78zm-74.02-14h105.05c.94-2.72 1.42-5.53 1.42-8.53V164.64H55.67v144.11c0 14.66 12.02 26.67 26.67 26.67h76.37v-11.14c0-3.85 3.15-6.99 7-6.99zM90.85 198.83H237c7.91 0 14.4 6.46 14.4 14.4v29.4c0 7.94-6.49 14.4-14.4 14.4H90.85c-7.94 0-14.4-6.46-14.4-14.4v-29.4c0-7.94 6.46-14.4 14.4-14.4zm146.15 14H90.85l-.43.4v29.4l.43.4H237l.4-.4v-29.4zM38.27 150.64h251.29l.48-.51v-27.21l-.48-.51H38.27l-.48.51v27.21z" fill="#ffffff" opacity="1" data-original="#000000"/></g></svg>
