<?xml version="1.0" encoding="utf-8"?>
<!-- Generator: Adobe Illustrator 16.0.0, SVG Export Plug-In . SVG Version: 6.00 Build 0)  -->
<!DOCTYPE svg PUBLIC "-//W3C//DTD SVG 1.1//EN" "http://www.w3.org/Graphics/SVG/1.1/DTD/svg11.dtd">
<svg xmlns="http://www.w3.org/2000/svg" xmlns:xlink="http://www.w3.org/1999/xlink" version="1.1" id="圖層_1" x="0px" y="0px" width="500px" height="201.1px" viewBox="0 0 500 201.1" enable-background="new 0 0 500 201.1" xml:space="preserve">
<path fill="rgba(162, 211, 189, 0.1)" d="M64.1,126c-1-0.5-1.9-1-2.5-2.1c-0.4-0.6-1.2-1-2-0.8c-1.2,0.8-0.7,2.8-2.4,3.2c-0.8-1.9-1-2-2.1-1.5  c0.3,0.6,0.5,1.1,0.9,1.8c-1.1,0.4-2.1,0.8-3.2,1.2c-0.5-0.8-0.9-1.5-1.3-2.1c-0.7,0.1-1.2,0.2-0.9,1.1c0.3,1.3-0.1,1.9-1.5,2.2  c-1,0.2-2.1,0.4-3.1,0.6c-0.8,0.1-1.6,0.2-2.4,0.1c-1-0.1-1.9,0-2.6,0.8c-0.9,1.1-2.2,1.4-3.5,1.4s-2.5,0-3.5,1.1  c-0.3,0.4-1,0.6-1.6,0.7c-1.1,0.2-2.2,0.2-3.3,0.3c-0.3,0-0.5,0.2-0.8,0.4c-0.1,0.1-0.2,0.3-0.3,0.4c-1.3-1.1-1.9,0.7-2.9,0.7  c-1.2,0.1-2.3,0.5-3.4,0.7c-1.1,0.3-2.3,0.6-3.4,0.9c-0.6,0.2-1.1,0.6-1.7,0.8c-2.2,0.8-4.3,1.5-6.7,2.3c-0.5-0.4-1.1-1-1.8-1.7  c-1.2,0.4-2.5,1.5-4.2,0.5c0.7-0.7,0.9-1.9,2.2-1.9c0.2,0,0.5-0.5,0.7-0.7c0.5-0.6,1-1.3,1.5-2c0.6,0.8,1,1.3,1.7,2.2  c0.5-0.6,0.8-1,1.2-1.5c-0.2-0.2-0.4-0.4-0.6-0.6c-0.6-0.8-0.5-1.4,0.5-1.4c0.7,0,1-0.4,1.4-0.9c0.5-0.7,1.2-0.7,1.9,0  c-0.5,0.6-1,1.2-0.4,2.1s1.5,1.3,2.5,1.5c0.7-1.5-0.7-2-1.1-2.9c0.6-1.9,1.3-3.7,1.9-5.6c0.4-1.3,1.3-1.7,2.5-1.9  c0.5-0.1,1.2,0,1.5-0.3c0.3-0.3,0.3-0.9,0.4-1.4c0.1-0.4,0.3-0.8,0.5-1.1c0.4-0.6,0.9-1.3,1.5-2c1.1,0.3,2-0.2,2.8-1.3  c0.5-0.7,1.3-1.2,2-1.8c-0.3-0.2-0.5-0.4-0.8-0.6c-0.4-0.1-0.8-0.2-1.2-0.4c0,0.1,0,0.2-0.1,0.3c0.4,0,0.8,0,1.2,0  c-0.3,0.2-0.6,0.5-1,0.6c-0.7,0.2-1.5-0.5-2.2,0.6c-0.3,0.5-1.5,0.2-2.3,0.5c-2,0.7-3.9,1.5-5.9,2.3c-1,0.4-1.5,0.2-1.6-0.8  c-0.1-0.5,0-0.9-0.7-1c-0.2-0.1-0.4-0.8-0.3-1.2c0.3-1.1,1.1-1.6,2.2-1.8c0.9-0.2,1.9-0.3,2.6-1.3c-1.2-0.6-1.3-1.6-0.8-2.7  c0.4-1,1.3-1.3,2.4-1.2c0.1,0.5,0.1,1.1,0.3,1.6c0.3,0.7,0.8,1,1.6,0.9c0.7-0.1,1.2-0.6,1.3-1.3c0-0.7-0.4-1.2-1.1-1.4  c-0.4-0.1-0.8-0.1-1.2-0.2c-0.1-1.1,0.6-1.6,1.2-2.1c2.2-1.8,4.5-3.5,7.3-4.2c2.5-0.6,4.6-2,6.7-3.4c0.2-0.1,0.4-0.5,0.5-0.4  c1.6,0.5,2.6-1.2,4.1-1.2c0.3,0,0.6-0.4,0.9-0.5c0.6-0.3,1.1-0.7,1.7-0.8c0.9-0.1,1.3-0.5,1.5-1.4c0.1-0.4,0.5-0.8,0.8-1  c1-0.4,2.1-0.7,3.2-1.1c0.1,0,0.2-0.1,0.3-0.1c0.6-0.3,1.3-0.6,1.1-1.3c-0.2-0.8-0.9-0.5-1.5-0.5l0,0c-0.2-0.1-0.4-0.3-0.6-0.2  c-1.8,0.5-3.7,0.7-5.2,2c-0.4,0.4-1.3,0.2-1.8,0.5c-0.5,0.3-0.6,0.4-1.2,0.2c-0.8-0.2-1.7-0.1-2.6,0.6c-1.5,1.2-3.3,2.1-4.9,3  c-0.3,0.1-0.9,0.1-1-0.1c-0.2-0.3-0.1-0.8,0-1.3c0-0.1,0.4-0.3,0.6-0.3c2.4-0.6,4.2-2.6,6.7-3.1c3.1-2.1,6.7-2.8,10-4.3  c0.5-0.2,0.9-0.6,1.3-0.8c0.6-0.3,1.3-0.4,2.1-0.7c-0.2-0.5-0.5-1.3-0.9-2.2c-1.4,0.5-2.8,0.8-4,1.4c-1.3,0.7-2.6,1.1-4.1,0.9  c-0.3-0.9-0.1-1.7,0.6-2.5c-1.4-0.3-1.4,1.9-2.7,1.4c-0.6-1.3,1.7-1,1.1-2.4c-0.7,0-1.5-0.1-2.3,0c-0.7,0.1-1.4,0.4-2.2,0.6  c-0.2-1.1,0.5-1.5,1.3-1.8c1.9-0.6,3.9-1.1,5.9-1.6c0.8,0.6,1.5,1.9,3.1,1.3c0.2-0.5,0.5-1.2,0.8-1.8c0.4-0.8,0.9-1.2,1.8-1.5  c1.3-0.3,2.4-1.1,3.7-1.5c1.3-0.4,2.4-1.3,3.8-1.6c1.6-0.3,3.1-1.1,4.6-1.8c0.6-0.3,1.1-0.9,1.5-1.4c0.4-0.4,0.7-0.9,1.1-1.4  c-0.5,0-0.9-0.1-1.6-0.1c0.4-0.4,0.7-0.6,0.9-0.8c-0.3-1.4-1.3-0.7-2.2-0.8c0.2-0.7,0.5-1.4,0.8-2.3c1.9-1.1,4.1-2.5,6.4-3.7  c1.2-0.7,2.6-1,3.9-1.6c1.4-0.7,3.1-0.7,4.2-2.1c0.3-0.4,1-0.4,1.5-0.6c1.2-0.4,2.3-0.8,3.5-1.2c1.9-0.6,3.8-1.2,5.6-2  c1.8-0.7,3.7-1,5.3-2.3c0.8-0.6,2-0.8,3.1-0.8c1.8-0.1,3.5-0.4,5-1.3c0.2-0.1,0.4-0.3,0.6-0.3c1.6,0,3-1,4.6-1.3  c1.9-0.4,3.7-1.1,5.6-1.7c0.8-0.2,1.6-0.4,2.4-0.6c0.8-0.2,1.6-0.6,2.5-0.8c1-0.3,2.1-0.6,3.1-0.9c1.1-0.3,2.2-0.5,3.4-0.7  c0.1-0.7-0.2-1.6,1.1-1.7c0.2,0.3,0.3,0.7,0.5,1.1c0.1,0,0.3,0.1,0.5,0c1.5-0.7,3.1-1.2,4.7-1.2c2,0,3.7-0.8,5.4-1.4  c0.8-0.3,1.6,0.2,2.4-0.3c0.8-0.4,1.5-0.9,2.5-0.6c0.3,0.1,0.8-0.2,0.9-0.4c0.5-0.8,1.2-0.9,2-0.9c1.3,0,2.5-0.3,3.2-1.4  c2,0.3,2,0.3,2.6-1.2c1,0.4,2,1,2.8-0.4c0.1-0.2,0.5-0.2,0.8-0.2c1,0.1,2,0.2,2.8-0.7c1.5,0.1,1.4-0.8,1.1-2.1  c1.1,0.4,2.1-0.1,2.9,0.9c0.5,0.6,1.3,0.4,1.8,0c1-0.7,2-0.6,3-0.4c0.4,0.1,1.1,0.1,1.3-0.1c0.8-0.9,2.1-0.2,3-1  c0.1-0.1,0.5,0.2,1,0.1c-0.3-0.5-0.6-1-1-1.5c1.1-0.7,1.3,0.5,2,0.8c0.7-0.8,1.5-0.9,2.6-0.9c1.7,0.1,3.4-0.3,5.1-0.4  c0.6,0,1-0.1,1.1-0.8c0-0.1,0.4-0.3,0.5-0.3c1.1,0.2,1.4-0.5,1.8-1.3c0.6-1.1,1.2-1.2,2-0.2c1,1.3,1,1.3,2.5,0.5  c0.6-0.3,1.3-0.4,2.1-0.7c0.1,0.3,0.2,0.6,0.4,1c0.7-0.1,1.4-0.2,2.3-0.3c-0.2-0.6-0.4-1-0.6-1.4l0,0c0.4,0.2,0.9,0.3,1.1,0.6  c0.5,0.5,0.9,0.8,1.5,0c0.3-0.4,1.2-0.8,1.6-0.6c1.4,0.5,2.7-0.4,4.1,0.1c1.2,0.4,2.3-0.6,3.4-0.9c0.3-0.1,0.7-0.8,0.6-1.1  c-0.1-0.6-0.2-1,0.5-1c0.7,0,0.6,0.6,0.5,1.1c0,0.1,0.1,0.2,0.1,0.3c1.8,0.8,2,0.8,3.7-0.5c0.5,0.2,1,0.4,1.6,0.6  c0.2-1.2,0.2-1.1,1.4-1s2.4,0.6,3.6,0.1c0.3-0.1,0.8,0.2,1.6,0.5c1.3-0.3,2.9-2.4,5-0.2c0.6-0.7,1.1-1.3,1.8-2c0,0.4,0,0.8,0.1,1.3  c1.2-0.8,2.5-1.3,3.9-1c0.2,0.1,0.5,0,0.7-0.1c1.3-0.3,1.3-0.3,2.4,0.5c1.2-1.1,2.7-0.9,4.1-0.8c1.3,0.1,2.8-0.2,3.8,0.7  c0.5-0.3,0.9-0.6,1.4-0.7c1.1-0.3,2.2-0.1,3.3,0c2.1,0.1,4.2,0.7,6.3-0.2c0.1,0.8,0.1,1.4,0.2,2.2c0.8-0.7,1-1.3,0.5-1.9  c1-1.3,2.3-0.4,3.4-0.4c0.6,0,1.5,0.7,1.9,0.6c0,0.4,0,0.8,0.1,1.1c0.3,1.1,0,1.6-1.1,1.4c-0.6-0.1-1.3-0.2-1.9-0.5  c-0.8-0.5-1.3-0.3-1.8,0.4c0.3,0.4,0.5,0.7,0.8,1c1.5,0,3,0,4.4,0c0.6,0,0.4-1.2,1.3-0.9c0.5,0.2,1,0.5,1.3,0.6  c0.8-0.2,1.4-0.4,2.2-0.6c-0.5-1.3,1-1.6,1.5-2.8c0.6,0.7,1.2,1.3,1.7,2c0.4,0.6,0.6,1.2,1.4,1.5c0.7,0.3,1.1,0.4,1.8,0  c0.2-0.1,0.6,0.2,1.1,0.3c-0.1-0.4-0.1-0.8-0.2-1.1c0.1,0,0.2-0.1,0.2-0.1c0.2,0.4,0.5,0.7,0.7,1c0.8,0,1.9,0.4,2.3,0  c0.6-0.6,1.5,0,1.9-0.7c0.2,0.3,0.4,0.6,0.7,1c0.6-0.6,1.1-1,2-0.5c0.9,0.4,1.6-0.4,2.4-0.8c0.1,0.1,0.3,0.2,0.4,0.4  c0.2-0.3,0.4-0.7,0.6-1l0,0c0.2,0.4,0.4,0.7,0.5,0.9c1.4-0.1,2.6-0.2,4-0.2c-0.4-0.4-0.7-0.8-1.1-1.2c0.3-0.1,0.5-0.2,0.8-0.3  c-0.3-0.5-0.6-0.9-1-1.3c1.7-0.6,1.9-0.5,2.2,1.1c0.1,0.2,0.4,0.4,0.9,0.8c-0.1-0.9-0.1-1.3-0.2-2.1c1,0.2,1.8,0.4,2.8,0.6  c-0.3,0.6-0.5,1-0.8,1.5c0.3,0,0.5,0,0.5-0.1c0.2-0.4,0.3-0.9,0.4-1.3c0.1-0.4,0.2-0.7,0.4-1.4c0.5,0.8,0.8,1.4,1.2,1.8  c0.8,1.1,1.2,1,1.7-0.3c0.1-0.2,0.2-0.3,0.2-0.5c0.7,0,1.4,0,2.2,0c-0.2,0.7-1.4,0.9-0.7,2c0.5,0,1.1-0.1,1.9-0.2  c-0.2,0.3-0.4,0.5-0.6,0.9c1.2,0.3,2.3,1.1,3.6,0.4c0.4,0.5,0.8,0.4,1.3-0.4c-0.7,0.2-1,0.3-1.3,0.5c-2.1-0.8-2.1-0.8-2.1-3.1  c1.1,0.3,2.1-0.5,3.2-0.1c1,0.4,2,0.7,3,1c-0.1,0.4-0.2,0.6-0.3,0.8c1.2,0.2,2.4,0.4,3.6,0.6l0,0c0.9,0.3,0.1,1,0.3,1.4  c1,0.3,2,0.7,3,0c0.2-0.1,0.6,0.1,0.8,0.1c1.1,0.1,2.2,0.1,3.3,0.2c0.7,0,1.4-0.1,1.9,0.7c0.1,0.2,0.7,0.5,1,0.4  c0.8-0.3,1.6-0.8,2-1c1.1,0,1.8,0,2.8,0c0.3,0.3,0.8,0.7,1.3,1.1c0,0.6-1.3,0.2-1,1.1c0,0.1-0.6,0.5-0.9,0.6c-0.4,0.2-1-0.7-1.5,0.2  c-0.2,0.3-1.3,0.1-2,0c-0.6-0.1-1.2-0.5-1.8-0.7c-0.9-0.3-1.7-0.4-2.6,0c-0.7,0.3-1.4,0.5-2.4,0.8c1.8,0.8,3.2,0.6,4.7,0.7  c1.6,0.1,3.1,0.2,4.7,0.4c0.4,0.1,0.9,0.4,1.2,0.8c-4,0.3-7.9-0.4-12.1,0.1c0.2,0.5,0.4,1.1,0.6,1.1c1.4,0,2.8,0.7,4.1-0.1  c0.2-0.1,0.3-0.5,0.5-1c0.9,1.2,1.7,1.4,2.8,1.3c2.5-0.1,5,0.1,7.4,0.3c0.5,0,1.5-0.3,1.5,0.8c0.9-0.3,1.6,0.5,2.5,0.6  c3.2,0.2,6.5,0.2,9.6,1.2c0.7,0.2,1.5,0,2.3,0.1c3.9,0.4,7.7,0.8,11.5,1.8c2,0.6,4.3,0.4,6.5,0.5c0.7,0,1.4,0.1,2.1,0.1  c0.3,0,0.7,0.2,1,0.2c1.7,0.1,3.3-0.3,5,0.3c1.1,0.4,2.5,0.2,3.7,0.7c0.3,0.1,0.7,0,1,0c1,0,2.1-0.2,3.1,0.4  c0.1,0.1,0.3,0.2,0.5,0.1c2.5-0.4,4.7,0.5,7.1,0.9c0.6,0.1,1.2,0,1.8,0c2.7-0.1,5.1,1.1,7.7,1.6c2.8,0.5,5.5,1.3,8.4,1.5  c3.7,0.3,7.5,0.9,11.2,1.7c1.3,0.3,2.8,0.8,3.3,2.4c0.4-0.1,0.7-0.3,1.2-0.5c0.2,0.5,0.5,0.9,0.8,1.7c-1.4-0.2-2.5-0.3-4-0.5  c-0.5,0.7-1.4,0.3-2.5,0.2c-2-0.1-4.1,0.1-6.1,0.2c-0.4,0-0.9,0.2-1.2,0.1c-3-0.7-6.1-0.1-9.3-0.3c1,0.8,2.1,1.5,3.5,2.5  c-1.8,0-3.1-0.2-4.2-1.2c-1.4,1.1-3,0.1-4.6,0c0.2,0.9,0.7,0.8,1.1,0.8c2,0.2,4,0.3,5.8,1.5c0.1,0.1,0.3,0.2,0.5,0.2  c3.5,0.5,7,1.1,10.5,1.6c0.9,0.1,1.8,0.3,2.6,0.5c0.3,0.1,0.7,0.5,0.8,0.8c0.1,0.6-0.5,0.7-1,0.7c-2.2-0.1-4.4-0.3-6.5-0.4  c-0.4,0-0.9-0.4-1.3,0.2c0,0.1-0.4,0-0.6-0.1c-1.1-0.7-5.6-1.4-7.5-1c0.7,0.3,1.2,0.6,1.8,0.9c-0.1,0.8-0.1,1.6-0.2,2.7  c0.6-0.2,1.2-0.1,1.5-0.4c0.5-0.7,1.2-0.5,1.5-0.1c0.7,0.7,1.6,0.7,2.4,1c0.7,0.3,1.5,0.6,2.1,0.9c-0.7,0.3-0.7,0.3-2.5,0  c-0.9-0.1-2,0.1-2.2-1.4c-0.6,0.5-1,0.9-1.4,1.3c-1-0.3-1.9-0.7-3-1.1c-0.2,0.3-0.5,0.6-1,1.2c1.6-0.1,2.8-0.2,4.1-0.2  c1.5,0.3,3.1,0.6,4.6,0.9c1.6,0.3,3.1,0.4,4.7,0.7c1.7,0.3,3.5,0.6,5.2,0.8c2,0.3,4,0.7,6,1c1.3,0.2,2.7,0.3,4,0.5  c4.1,0.8,8.2,1.7,12.2,2.6c1,0.2,2,0.2,2.8,1c0.1,0.1,0.5,0.2,0.7,0.2c2-0.4,3.7,0.8,5.7,1c-0.1,0.4-0.1,0.9-0.3,0.9  c-0.6,0.2-1.3,0.5-1.8,0.4c-1.6-0.3-3.2-0.4-4.8-0.6c-1.6-0.2-3.3-0.4-4.9-0.5c-2.7-0.1-5.4-0.2-8.1-0.2c-3-0.1-6.1-0.2-9.1-0.2  c-3.3-0.1-6.5,0.6-9.5,2.2c-0.9,0.5-1.8,0.4-2.6,0.3c-0.1,0.2-0.2,0.4-0.1,0.4c0.2,0.3,0.4,0.6,0.6,1c0.9-0.5,1.8-0.9,2.8-0.2  c0.2,0.2,0.8,0,1.2,0c2.1-0.4,4.3,0.3,6.5-0.3c0.7-0.2,1.5-0.1,2.2,1.2c0.3-0.6,0.4-1,0.7-1.5c1.7,1.3,3.3,0.8,4.8,0.3  c1.7-0.5,3.3-0.3,4.9,0.5c-3.5,0.4-7,0.9-10.8,1.3c0.5,0.3,0.6,0.4,0.7,0.5c-2.5,0.1-5,0.3-7.5,0.4c1.6,0.9,3.3,0.8,4.9,0.8  c0.3,0,0.8-0.1,1,0.1c0.8,0.8,1.6,0.9,2.5,0.2c0.1-0.1,0.3,0,0.5,0c0.9,0.1,1.9,0.2,2.8,0.4c2.7,0.8,5.5,0,8.1,0.6  c1.5,0.3,3,0.5,4.5,0.7c1.2,0.2,2.4,0.5,3.6,0.6c1.2,0.1,2.5,0.2,3.6,0.9c0.3,0.2,0.8,0.2,1.2,0.2c2.1,0.3,4.3,0.5,5.1,3  c0.1,0.2,0.3,0.3,0.5,0.5h0.1c0.6,0,1.2,0.1,1.8,0.1c0.2,0,0.4,0,0.5,0.1c0.3,0.3,0.5,0.7,0.9,1c0.4,0.2,0.8,0.3,1.2,0.8  c-1.3,0-2.6,0-3.9,0c0,0.1,0,0.2,0,0.3c1.2,0.2,2.3,0.5,3.5,0.5c2.7,0.1,4.4,1.6,5.9,3.9c-0.8,0-1.4,0-2,0c-0.2-0.4-0.4-0.8-0.5-1.2  c-0.5-0.3-2,0-2.1,0.6c-0.3,1.4-1.5,1.3-2.4,1.6c-0.5,0.2-1.1,0.3-1.7,0.6c0.8,0.2,1.5,0.4,2.6,0.6c-0.7,0.6-1.1,1-1.6,1.5  c0.3,0.1,0.6,0.2,0.8,0.4c0.6,0.8,0.1,1.8-0.8,1.8c-0.7,0-1.5-0.3-2.3-0.4c0.2-0.7,0.3-1.2,0.4-1.7c-2.3,0.1-7.5,1.5-9.3,2.7  c1.6,0.5,3-0.4,4.5-0.2c0,1.5,0,1.5-1.8,2.1c-0.1,0.6-0.1,1.2-0.2,1.8c1.2,0.7,0.6-0.8,1.4-1c1.1,0.5,2.4,0.6,3.7-0.1  c0.3-0.1,1,0.1,1.2,0.4c0.5,0.7,1.2,0.8,1.9,1.1c0.8,0.2,1.6,0.7,2.3,1.3c1.3,1.1,1.2,1.1,2.6,1.3c0.5,0.1,0.9,0.1,1.4,0.2  c0.1,1-0.6,1.1-1.1,1.1c-1.7,0.1-3.4,0.1-5.1,0.1c-0.9,0-1.7,0-3,0c0.3,0.6,0.4,1.2,0.7,1.3c1,0.4,1.9,1.4,3.2,1  c0.2,0,0.4,0.1,0.5,0c1.6-1.1,3.5-0.7,5.3-0.7c1.5,0,2.9-0.1,4.4-0.1c1.4-0.1,2.8-0.1,3.8,1.2c2.4-0.4,4.7-0.3,7,0.3  c0.2,1-0.4,1.2-1,1.1c-2.3-0.5-4.7,0.1-7,0c-1.9-0.1-3.7-0.3-5.8-0.5c-0.1,0.7,0.6,1.8-0.7,1.9c-0.9,0-1.4-0.6-1.6-1.8  c-2.1-0.2-4.1-0.5-6.2-0.7c-0.6-0.1-1.2,0.1-1.8,0.1c-2.2,0-4.4,0-6.5-0.1c-0.7,0-1.4,0-2,0.6c-0.6,0.6-1.4,1-2.2,0.1  c-0.1-0.1-0.3-0.2-0.5-0.1c-2,0.2-4,0.4-6.1,0.5c-0.4-0.3-0.9-0.7-1.4-1c-0.1,0-0.4,0.3-0.6,0.5c0.7,0.9,1.3,1.7,1.9,2.4  c0.7,0.8,0.8,0.8,1.7,0c0.2-0.2,0.6-0.3,0.9-0.4c0.4-0.1,0.8-0.1,1.2,0c2.1,0.3,4.2,0,6.3,0c0.8,0,1.6,0,1.8,1  c-0.2,0.7-0.8,0.6-1.3,0.6c-2,0-3.9-0.2-5.8,0.1c-2.2,0.3-4.4,0.2-6.5,0.4c-0.9,0.1-1.8,0.1-2.7,0.1c-0.5,0-0.9,0.2-1.4,0.5  c1.7,1,3.5,0.5,5.2,0.6c0.2,0.3,0.4,0.6,0.6,0.9c1.7-0.9,3.4-0.8,5.1-0.6c1.1,0.2,2.2,0,3.4,0c0.2-0.3,0.5-0.7,0.7-0.9  c1.9,0.2,3.6,0.6,5.3,0.7c1.5,0.1,2.8,0.1,3.7,1.5c0.2,0.3,0.8,0.4,1.3,0.5c1.4,0.2,2.8,0.3,4.2,0.4c0.5,0.1,1,0.3,1.5,0.4  c0,0.2,0,0.3,0,0.5c-0.5,0.2-1,0.4-1.6,0.4c-2,0-4-0.1-6-0.3c-0.5,0-1-0.4-1.4-0.6c-0.5-0.2-1-0.7-1.3-0.6c-0.7,0.3-1.3,0.8-1.7,1.4  c-0.4,0.6-0.4,1.3-0.5,2c-0.1,0.7,0.1,1.2,0.9,1.2c1.6,0,3.1,0.3,4.6,0.8c1,0.3,2,0.5,2.4,1.8c0.1,0.6,0.8,0.7,1.5,0.4  c2.2-1.2,2.2-1.2,3.9-1.1c-0.4-0.9-0.7-1.7-1.1-2.7c-1.5-0.1-3-0.1-4.5-0.2c-0.4,0-0.9,0.1-1.2,0c-1.1-0.3-2.1-0.3-3,0.4  c-0.1-1.1,0.2-1.7,1.1-1.8c0.6-0.1,1.3,0.1,1.9,0.1c2,0.2,4,0.4,6,0.6c0.2,0,0.3-0.1,0.7-0.1c0.3-0.8,0.6-1.7,1-2.5  c1.6,0.3,2,0.7,1.6,2.2c-0.3,1.2-0.9,2.3-0.2,3.8c1.2,0.2,1.5,1.4,1.7,2.8c1.8-1.6,2.8,0.2,4.1,0.6c0.9-0.3,1.7-0.7,2.8-1.1  c-1.3,1.5-1.7,1.4,0.3,3.6c-1,0.4-1.9,0.3-2.7-0.3c-1.5-1.1-1.4-1.1-3.2-1.3c-0.8,1.2-0.8,1.2-2.1,1.1c0.1-0.4,0.2-0.8,0.3-1.2  c-0.9-0.3-0.9,0.2-1.2,0.7c-0.2,0.3-0.7,0.5-1.2,0.8c0,0.1-0.1,0.3-0.1,0.4c0.3,0.7,0.2,1.1-0.5,1.5c-0.7,0.3-1.3,0.2-1.7-0.4  c-0.6-0.9-1.3-1.7-2.4-1.9c-0.7-0.1-1.5,0-2.2,0c1.7,1.6,1.9,2,1.1,3.1c-0.7,1-1.9,1.4-2.8,0.8c-1.2-0.8-1.6-1.2-0.6-3.1  c-1.4-0.1-2.7-0.2-4-0.3c-0.7,0.5,0.1,1.8-1.3,1.6c0.1-0.5,0.1-1,0.2-1.6c-0.9-0.1-1.8-0.4-2.7-0.3c-0.8,0.1-1.6,0.7-2.4,1.2  c0.1,0.3,0,0.9,0.3,1.1c1,1.1,0.6,2.2-0.1,3.2l0,0c-0.8,0.4-1.9,0.4-1.9,1.7c0,0.1-0.2,0.3-0.4,0.3c-1.3,0.4-2.5,0.7-3.7,1.5  c-0.4,0.3-1.3-0.2-2.1-0.3c-0.1,0.1-0.3,0.4-0.4,0.6c-0.1,0-0.1,0-0.2,0c-0.3-0.3-0.6-0.7-0.8-1c-0.3,0.1-0.4,0.2-0.5,0.3  c-0.1,0.2-0.2,0.4-0.3,0.6c-1.2,1.9-1.4,1.9-3.5,1.1c0,0.3-0.1,0.5,0,0.7c0,0.2,0.1,0.4,0.2,0.6c-0.5,0.4-0.9,0.8-1.4,1.1  c-1.5,1.1-2.4,0.8-2.8-1c-0.1-0.4-0.2-0.8-0.3-1.2c-0.4,0-0.6-0.1-0.9,0c-0.6,0-1.4-0.2-1.8,0.1c-0.7,0.5,0.3,1,0.4,1.5  c0,0.7,0.2,1.4,0.3,2.1c0,0.9,0.6,1.3,1.4,1.7c0.7,0.4,1.9-0.4,2.2,0.9c0.3-0.1,0.7-0.2,0.9-0.4c1.4-1.1,1.7-1.1,2.8,0.3  c0.6,0.7,1.3,1.3,2.1,2c0.1-0.2,0.3-0.5,0.5-0.8c1.6,0.4,0.9,1.7,0.9,2.6c0.6,0.3,0.9,0,1.3-0.4c1.5-1.8,1.7-1.8,3.2-0.7  c0.9-0.2,1.8-0.7,2.2-0.4c0.9,0.5,0.1,1.4-0.2,2.6c1.2-1.4,2.2-1.2,3.5-0.9c1.5,0.4,1.5,1.9,2.7,2.5c-0.4,0.5-0.7,1-1.2,1.6  c-0.1-0.5-0.2-0.9-0.3-1.4c-0.5,0.3-0.8,0.6-1.2,0.9c-0.3-0.3-0.6-0.5-1-0.9c-0.2,0.4-0.4,0.7-0.6,1l0,0c-2.3-0.3-4.6-0.6-6.9-0.9  c-0.6-0.1-1.2-0.4-2-0.7c-0.4,0.3-0.9,0.7-1.3,1.1c0,0.7,0,1.4-0.2,2.1c-0.2,0.7-1.1,1.2-1.6,0.8c-0.6-0.5-1.4-0.9-1.5-1.9  c0-0.4-3.1-2.5-3.3-2.3c-1,0.9-1.7,0-2.5-0.3c-0.4-0.2-0.8-0.5-1.2-0.7c-1-0.4-1.9-0.1-2.9,0.9c0.1-0.8,0.1-1.2,0.2-1.6  c0-0.7-0.6-1.8-1.3-2c-0.8-0.3-1.4,0.1-1.7,0.9c-0.2,0.5-0.5,0.7-1.1,0.5c-0.2-0.1-0.5,0.3-0.8,0.5c0.3,0.5,0.6,0.9,1,1.5  c-1.1-0.2-1.9-0.3-2.2,0.9c-0.1-1.1-0.7-1.3-1.5-1.2c-0.9,0-2-0.3-2.6,0.1c-0.9,0.6-1.9,0.6-2.5,0.8c-0.8-0.4-1.7-1.2-2.1-1  c-1.7,0.6-2.7-0.5-3.7-1.4c-0.7-0.7-1.2-0.8-2.2-0.7c-0.9,0.2-1.4,0.5-1.6,1.2c-1.3,0.1-2.5,0.3-3.7,0.3s-2.6,0.2-3.4-0.4  c-1.1-0.7-2.3-0.2-3.2-0.9c-0.4,0.6-0.9,1.1-0.3,1.8c0.2,0.2,0.2,0.7,0.2,1c0.1,0.7,0.9,1.5,0.1,1.9c-0.8,0.5-1.9,0.7-2.9,1  c-0.2,0-0.5-0.3-0.7-0.4c-0.5-0.3-1-0.7-1.6-0.9c1.6,0.7,1.9,2.7,3.8,3.5c-1.4,0.2-2.4,0.3-3.4,0.4c0,0.1,0,0.2,0,0.4  c1.6-0.1,3.1-0.2,4.7-0.2c0-0.1,0.1-0.2,0.1-0.3c-0.3-0.2-0.7-0.5-1.3-0.9c0.8-0.2,1.3-0.4,1.9-0.5c0.2,0.6,0.3,1.1,0.5,1.7  c0.9-0.7,1.8-1.2,2-2.5c0.2-1.3,1.2-1.8,2.5-1.6c0.5,0,1,0.1,1.5,0c1.1-0.2,1.7,0.1,1.8,1.2c0.1,1.3,0.1,1.3,1.4,1.3  c1.7,0.1,3.3,0.1,5.3,0.2c0,0,0.3,0.3,0.6,0.7c0.4-0.3,0.8-0.6,1.2-1c0.7,0.2,0.5,0.8-0.5,2c0.4,0,0.7-0.1,1-0.1  c0.9,0,1.7-0.4,2.8-0.3c0.9,0.2,2-0.3,3-0.3c0.4,0,0.8,0.2,1.5,0.4c-0.5,1.1-0.9,2-1.2,2.9c-0.1,0.3-0.1,0.7-0.1,1  c-0.1,1.1-0.6,1.6-1.7,1.5c-1,0-1.7-0.9-1.6-2.1c0.1-0.9,0.6-1.4,1.7-1.3c0.3,0,0.6,0.1,0.9,0.1c-0.2-1.2-0.4-1.3-3-1  c0,0.3-0.1,0.6-0.2,0.9c-0.2,0-0.3,0-0.4,0c-0.5-0.6-0.9-0.7-1.7-0.5c-0.8,0.2-1.7,0.1-2.6,0.2c-1.2,0.1-2.3,0.1-3.3,0.8  s-1.9,0-2.7-0.7c0.5-0.2,1.1-0.3,0.9-1c-0.1-0.2-0.4-0.4-0.7-0.8c-0.1,0.8-0.1,1.3-0.2,1.8c-0.4,0.1-0.7,0.2-1.1,0.2  c-0.5,0-1.3,0-1.4-0.2c-0.5-1-0.8,0.4-1.3,0c-0.1-0.1-0.7,0.4-1.2,0.8c-0.6-0.2-1.4-0.5-2.2-0.7c-0.1,0-0.2-0.1-0.3-0.1  c-0.7,0.2-1.3,0.4-2,0.5c-0.7,0.1-0.9-0.9-1.7-0.5c-1.3,0.5-2.9,0.5-3.9,1.8c-0.2-0.4-0.4-0.6-0.5-0.9c-0.1-0.2-0.1-0.4-0.1-0.6  c-0.6,0.1-1.1,0.3-2,0.5c0.5-1.1,0.8-1.8,1.1-2.7c0.4,0.3,0.6,0.6,0.9,0.7c0.3,0.1,0.6,0,0.9,0c0-0.3,0-0.8-0.1-0.9  c-0.5-0.5-1-0.9-1.9-0.7c-0.4,0.1-1,0-1.6,0c-0.2,0.7-1.4,1.3-0.2,2.5c-1.6,1-3.1,0.4-4.6,0.3c-1.5-0.1-3,0.6-4.3-0.1  c-0.5,0.4-1,0.8-1.4,1.2c-0.5-0.4-0.9-0.8-1.5-1.3c-0.1,0.2-0.2,0.4-0.2,0.5c0.1,0.9-0.4,1.2-1.3,1.3c-1.3,0.1-2.6,0.3-3.8,0.4  c-0.6,0-1.2,0-1.3-0.9c0-0.3-0.5-0.6-0.7-0.9c0.3-0.1,0.5-0.3,0.8-0.4c-0.3-0.3-0.6-0.6-0.9-0.9c0.1-0.5,0.5-1.1-0.7-1.4  c0.3,0.6,0.6,1,0.8,1.3c0,0.5,0,0.9,0.1,1.4c-0.5,0.2-0.9,0.5-1.3,0.7c0.2,2,0,2.1-3.1,1.8c1.1-0.8,0.4-2.3,1.6-2.9  c-0.2-1.1,0.1-2.3-0.8-3.2c0.9-0.5,1.9-1,2.8-1.5c0.8,0.4,1.5,0.7,2.4,1.1c0.2-0.1,0.4-0.2,0.7-0.3c0.2-0.1,0.5-0.3,0.8-0.4  c-1.4-0.9-2.2-0.9-3.8-0.3c-1.4-0.7-2.7,0.3-4,0.2c0.1,0.3,0.3,0.5,0.5,0.7c0.2,0.2,0.5,0.4,0.7,0.6c-0.9,0.3-1.8,0.5-2.8,0.8  c0.1,0.6,1.5,0.8,0.7,1.5c-0.6,0.2-1.2,0.4-1.7,0.7c-0.9,0.6-1.1,0.2-1.2-0.6c0.6-1.1,0.6-1.1,0-1.6c0,0.5,0,1.1,0,1.6  c-1.1,0.6-2.4,0.5-3.5,0.1c-0.5-0.2-0.9-0.2-1.4-0.2c-1.5,0.1-2.9,0.9-4.5,0.1c-0.3,0.4-0.6,0.7-1,1.3c-0.5-0.3-1.1-0.5-1.3-1  c-0.3-0.6,0-1.2,0.6-1.5s0.7-0.7,0.4-1.3c-0.1-0.2,0.1-0.4,0.2-0.8c0.5,0.3,0.9,0.6,1.3,0.9c-0.3-1.1-0.3-1.1-2.2-0.9  c-0.4,1.4-0.7,2.8-1.1,4.4c-1-0.6-2.2-0.4-2.9-0.7c-1-0.5-1.6-0.1-2.3,0.2c-0.2,0.1-0.3,0.4-0.6,0.7c-1-0.9-1.8-0.9-2.9-0.1  c-0.7,0.5-2.2,0.5-3,0.1c-1.1-0.4-2-0.4-3-0.3c-0.6-1,0.4-1.5,0.7-2.1c-0.2-0.1-0.2-0.2-0.3-0.3c-0.9-0.6-1.6,0.5-2.3,0.3  c-0.7-0.2-1.4-0.5-2.1,0c1,0.7,1.9,1,3,0.5c0.4,0.7,0.6,1.4-0.3,1.4c-1,0-1.7,0.5-2.5,0.7c-0.9,0.3-1.7,0.5-2.7-0.5  c0.1,0.7,0.1,0.9,0.1,1.3c-0.9,0.3-1.8,0.3-2.9,0.2c-1.7-0.2-3.3-0.8-5-0.8c-1.6,0-3.2,0.2-4.9,0.3c-0.3-0.5-0.6-0.9-0.9-1.5  c1-0.9,0.9,0.4,1.5,0.6c0.3-0.2,0.6-0.5,1-0.8c1.6,1.2,3-0.2,4.7-0.7c-0.5-0.3-0.7-0.6-1-0.6c-1.4,0.1-2.9-0.5-4.3,0.4  c-0.3,0.2-1.3,0.1-1.3,0c-0.2-1.1-1-0.6-1.5-0.5c-1.2,0.2-2.4,0.6-3.7,0.8c-0.3,0.1-0.6,0.1-0.8,0c-0.7-0.1-1.6-0.6-2.2-0.3  c-0.8,0.4-1.3,0-2,0c-0.6,0-1.2,0.3-1.7,0.7c-0.5,0.5-0.8,0.5-1.5,0.1c-0.8-0.5-1.6,0.2-2.3,0.4c-0.2,0-0.3,0.2-0.5,0.3  c-0.5-0.4-0.7-1.1-1.7-0.8c-2.1,0.8-4.3,0.1-6.4,0.4c-1.6,0.2-3.2,0.3-4.7,0.4c-0.1,0-0.2,0-0.3,0.1c-1.4,0.3-1.6,0.4-1.6,1.9  c-1.1,0.3-0.5-2.1-1.9-1.3c0.2,0.3,0.4,0.7,0.5,1c0.1,0.5-0.1,0.9-0.8,1c-0.7,0.1-1.3,0.5-2,0.6c-0.5,0.1-1-0.2-1.8-0.3  c-0.7,1.1-2.3-1-3.2,0.7c-0.3-0.6-0.5-0.9-0.6-1.2c-0.3,0.1-0.7,0.3-1,0.3c-0.2-0.1-0.4-0.4-0.8-0.9c-0.2,0.7-0.4,1.1-0.6,1.8  c-0.3-0.5-0.5-0.8-0.8-1.3c-0.8,0-1.6-0.1-1.1,1.7c-0.7-0.6-1.1-0.9-1.4-1.1c-0.2,0.4-0.4,0.9-0.8,1.6c-0.4-0.7-0.5-1.4-0.9-1.6  c-0.5-0.3-1.1-0.3-1.7-0.3c-0.6,0.1-1.4,0.2-0.7,1.4c-2.3-0.7-4.3-1-5.9,1.1c-0.6-1.2-2.1,1.4-2.6-1.1c-0.3,0.9-0.5,1.3-0.7,1.8  c-1.3-0.3-2.5-0.7-3.9-1c-0.8,0.4-1.8,0.9-2.9,1.3c-0.6,0.2-1.4,0.4-2.1,0.2c-1.7-0.5-3,0.7-4.5,0.9c-1.4,0.3-2.7,0.9-4.2,0.7  c-0.1,0-0.2,0-0.4,0c-1.4,0.4-2.9,0.5-4.3,0.3c-1.2-0.1-2.3,0.3-3,1.1c-0.9,0.8-2,0.8-3,0.8c-0.9,0-1.7,0-2.4,0.5  c-0.6,0.3-1,0.3-1.7,0.1c-0.8-0.2-1.8,0.1-2.7,0.4c-1.5,0.5-3,0.9-4.7,1.1c-1.6,0.2-3.1,0.8-4.7,1.2c-0.8,0.2-1.6,0.2-2.4,0.3  c-1.5,0.3-3.1,0.7-4.6,1.1c-1.3,0.4-2.6,1.1-4,1c-1.6,0-3,0.6-4.5,1c-1.9,0.5-3.8,0.6-5.7,0.8c-1.5,0.1-3,0.5-4.3,1.3l0,0  c-2.1,0.7-4.2,1-6.4,1c0-0.1-0.1-0.3-0.1-0.4c0.4-0.2,0.9-0.5,1.3-0.7c-0.7-0.1-1.4-0.3-1.9-0.1c-0.7,0.2-1.4,0.2-2,0.5  s-1.2,0.8-1.8,0.9c-1,0.3-2,0.3-3,0.5c-0.1,0-0.3-0.1-0.3-0.1c-0.2-1-1.5-0.6-1.9-1.4c-0.1-0.2-0.2-0.4-0.4-0.8  c1.9-0.6,3.8-1.2,5.8-1.9c0,0.1,0-0.2,0-0.5c-1,0-2-0.1-3,0.6c-1,0.6-2.4,0.8-3.5,1.1c0-0.1-0.1-0.3-0.1-0.4c1-0.5,1.9-1.2,2.9-1.6  c1.1-0.4,2.3-0.6,3.5-0.9c0.2,0,0.4-0.1,0.5-0.1c1.9-0.8,3.8-1.6,5.9-2.5c-2.1-0.4-3.8,1.5-5.7,0.5c-0.1,0.1-0.2,0.4-0.3,0.5  c-1.3,0.4-2.6,1-3.9,1c-1.9-0.1-3.5,0.7-5.3,1.2c-2,0.6-3.9,1.1-5.9,1.6c-0.1,0-0.2-0.1-0.4-0.3c0.2-0.2,0.4-0.5,0.7-0.6  c2.1-0.7,4.1-1.4,6.2-2.1c0.9-0.3,1.8-0.4,2.7-0.6c0.2,0,0.5,0,0.7-0.1c2.1-1.5,4.4-2.1,6.8-2.6c0.2,0,0.3-0.2,0.7-0.5  c-0.6-0.1-0.9-0.3-1.1-0.2c-2.1,0.7-4.1,1.5-6.1,2.2c-0.5,0.2-1,0.3-1.5,0.4c-1.6,0.4-3.2,0.8-4.8,1.2c-1.5,0.4-3.1,0.8-4.6,1.2  c-1.8,0.5-3.6,1-5.5,1.5c-0.9,0.2-1.6-0.1-1.8-1.1c2.2,0.1,2.3,0,2.7-1.1c-1,0.4-1.8,0.8-2.6,1.2c-0.3,0.1-0.8,0.1-1,0.2  c-1,0.8-2.2,0.9-3.8,0.8c1-0.6,1.7-1.1,2.5-1.6c-0.1-1.1,0.5-1.8,1.4-2.4c0.2-0.2,0.6-0.3,0.7-0.6c0.6-1.9,2.3-2.4,3.8-3.2  c1.2-0.6,2.5-1.2,3.7-1.9c0.8-0.5,1.5-1.2,2.6-0.9c0.2,0,0.5-0.4,1-0.8c-1.1-0.2-1.8-0.3-2.6-0.5l0,0c-0.2-0.2-0.4-0.6-0.6-0.7  c-0.5-0.1-1,0-1.6,0c-0.1-1,0.5-1.2,1.2-1.2c0.6,0,0.9-0.3,1.4-0.6c0.8-0.4,1.7-0.6,2.6-0.6c0.8,0,1-0.4,1.3-0.9  c1.1-0.2,2.1-0.5,3.2-0.6c0.3,0,0.7,0.2,0.9,0.3c0.2-0.3,0.5-0.7,1-1.2c-1.6,0.3-3,0.6-4.3,1c-0.3,0.1-0.5,0.4-0.7,0.6  c-1.1-0.2-2.2-0.1-3.3,0.4c-1.4,0.6-2.9,0.9-4.4,1.4c-0.3-0.3-0.6-0.6-1.2-1.1c-0.1,0.7-0.1,1.1-0.2,1.5c-0.9,0-1.8,0-2.7,0  c-0.3-0.4-0.6-0.7-1.2-1.4c0,0.8,0,1.2,0,1.8c-0.4,0.2-0.9,0.6-1.4,0.7c-2.5,0.6-4.9,1.2-7.4,1.8c-1.1,0.3-2.2,0.7-3.2,1.3  c-2.2,1.2-4.6,1.5-6.9,2.2c-0.3,0.1-0.6,0.1-0.9,0.2c-0.8,0.3-1.3,0.8-0.9,1.8c0.1,0.2,0.1,0.4,0.1,0.9c-0.4-0.3-0.7-0.3-0.8-0.5  c-0.8-1.3-0.8-1.3-2-1c-3.2,0.9-6.4,1.6-9.6,2.6c-2.4,0.7-4.6,1.7-6.9,2.5c-0.7,0.2-1.4,0.4-2,0.5c-1.1,0.2-2.1,0.7-3,1.3  c-1.2,0.9-2.6,0.9-4,0.4c-1-0.4-1.1-0.7-0.8-1.8c0.1-0.3,0.2-0.7,0.3-1c0-0.1,0-0.2-0.1-0.4c-0.5-0.4-1-0.7-1.6-1.1  c0.6-0.3,1.6,0.7,2.1-0.5c-0.8-0.2-1.6-0.6-2,0.5c-0.3-0.2-0.8-0.6-0.9-0.5c-0.9,0.7-1.1-0.5-1.8-0.4c0.5-1.3,1.8-1,2.6-1.7  c-0.1-0.4-0.2-0.8-0.3-1.3c0.3-0.2,0.6-0.3,1-0.5c-0.1-0.1-0.2-0.2-0.2-0.2c-0.9,0-1.8,0-2.7,0c-0.3,0-1.3-0.1-0.5,0.7  c-0.5,0.2-0.9,0.4-1.4,0.5c-0.2,0-0.5-0.2-0.6-0.2c-1,0.8-1.8,1.5-2.7,2.1c-0.2,0.1-0.6,0.2-0.9,0.1c-2.6-0.6-5.1-0.1-7.7,0.3  c-0.3,0-0.7,0.1-1,0.3c-2.1,1.4-4.5,1.4-6.8,1.5c-0.3,0-0.6,0-0.9,0c-0.1,0-0.1-0.1-0.2-0.1c0.3-0.4,0.6-0.8,0.9-1.3  c-1.2,0-2,0.4-2.8,0.8c-0.6,0.4-1.2,0.7-1.9,0.9c-0.2,0.1-0.6-0.3-1.1-0.5c0.6-0.4,0.9-0.6,1.1-0.7c1-0.6,2-1.1,2.1-2.5  c0.1-0.7,0.8-1.5,1.4-2c1.3-1.1,2.6-2.3,4.1-3.2c0.7-0.4,1.8-0.9,2.7,0c0.5,0.5,1.2,0.3,1.8,0c0.5-0.3,1.1-0.6,1.7-0.7  c0.5-0.1,1.1-0.2,1.2-0.9c0.1-0.8-0.5-0.8-1-0.9c-0.1,0-0.2-0.1-0.3-0.2c0.1-1,1-0.7,1.7-0.9c0-0.4-0.1-0.8-0.1-1.1  c0.3-0.7,2-0.2,1.1-1.7c-0.4,0.3-0.8,0.5-1.2,0.7c-0.1-0.2-0.1-0.3-0.1-0.4c0.2-0.8,1.1-1.5,0.1-2.4c-0.2-0.1,0.1-0.8,0.5-1.3  c0.1,0.3,0.3,0.6,0.4,0.9c1.2-0.2,2.4-0.3,3.6-0.5c0.3-2.2,1.3-3.7,3.3-4.8c-0.2-0.2-0.5-0.4-0.7-0.4c-0.7,0-1.5,0.4-2.1-0.4  c-0.1-0.1-0.8,0.2-1.2,0.3c-0.1,0-0.7,0.7-0.8,0.9c-0.3-0.2-0.5-0.4-0.9-0.7c0,0.3,0,0.5,0.1,0.6c0.8,1,1.1,2,0.4,3.1  c-0.2,0.3-0.7,0.8-1.1,0.7c-0.3,0-0.8-0.6-0.8-0.9c-0.1-0.8,0-1.6,0-2.4c-0.4-0.1-0.9-0.2-1.4-0.3c0-0.3,0-0.6-0.1-1  c-0.5,0.3-0.8,0.6-1.2,0.9c0,0.1,0,0.1,0,0.2c0.4-0.1,0.8-0.1,1.2-0.2c-0.7,1.1-0.7,1.1-2.2,0.7l0,0c0-0.5-0.4-0.7-0.9-0.6  c-0.5,0-1,0.1-1.5,0.2c-0.2-0.8,0.2-1.1,0.7-1c1,0,1.8-0.4,2.4-1.1c0.2-0.2,0.5-0.3,0.7-0.4c0.8-0.2,1.7-0.4,2.7-0.6  c0-0.2,0-0.8,0.3-1.1s0.9-0.4,1.4-0.6c0.3-0.2,0.5-0.4,1.2-0.9c-0.7-0.1-1.3-0.2-1.3-0.1c-0.2,0.8-0.5,0.7-1.2,0.5  c-0.8-0.2-1.7,0.1-2.4-0.1c-0.8-0.2-1.4-0.8-2.3-1.3c-0.6,1.7-1.8,2.3-3.4,2.4c-0.8,0-1.6,0.4-2.4,0.7c-0.3-0.4-0.6-0.7-1-1.1  c-0.4,0.7-0.8,1.4-1.3,2.2c-1.6-1.6-3.1-0.4-4.5-0.1c-2.1,0.5-4.1,1.1-6,1.9c-1.6,0.6-3.2,1-4.7,1.7c-0.5,0.2-1.1,0.3-1.6,0.5  c-0.1-0.1-0.2-0.3-0.3-0.4c0.5-0.3,0.9-0.6,1.7-1c-1.4,0.1-2.3,0.2-3.2,0.2c-0.6-1,0-1.5,0.5-1.8c0.6-0.5,0.9-1,1.2-1.7  c0.4-0.8,1-1.4,1.5-2.1c0.7,0.3,1.2,0.5,1.8,0.7c0,0.1,0,0.3-0.1,0.3c-0.2,0.4-0.5,0.7-0.7,1.1c0,0,0.3,0.3,0.4,0.3  c0.4-0.2,0.8-0.4,1.1-0.7c0.2-0.2,0.3-0.6,0.4-0.9c-1.2-1.3-1-2.3,0.6-3c1.4-0.6,2.8-1.2,4.2-1.9c0.2-0.1,0.3-0.2,0.4-0.3  c0.5-0.5,0.8-1.2,1.4-1.6c0.4-0.3,1.1-0.4,1.6-0.7c0.9-0.4,1.7-0.9,2.6-1.3c1.3-0.7,2.5-1.3,3.9-2.1c0,0.4,0,0.8,0,1.1  c0,0.7,0.3,1.2,1.1,1.2c0.6,0,1-0.7,0.8-1.5c-0.1-0.3-0.3-0.6-0.3-0.8c0.4-1.3,1.7-1.1,2.5-1.8c0.8-0.6,1.9-0.9,2.5-1.5  c0.8-0.8,1.8-0.6,2.7-1.2c-0.4-0.2-0.8-0.3-1.4-0.5c0.1-0.5,0.2-1,0.3-1.5c0.1-0.1,0.5-0.3,0.6-0.2c0.2,0.2,0.3,0.6,0.5,0.8  c0.4,0.6,0.8,1.1,1.4,1.9c0.5-1.4-0.6-3,1.3-3.8c-0.7-0.9-1.3-1.6-1.9-2.5c0.9-0.4,1.7-0.7,2.5-1.1c0.9-0.4,0.9-0.7,0.6-1.7  c-0.6,0.5-1.2,1.1-1.9,1.5C65,126.6,64.5,126.6,64.1,126c0.3-0.7,1.3-1,1.2-2.2c-0.5-0.2-1.1-0.4-1.8-0.7  C63.7,124.3,63.9,125.2,64.1,126z M396.4,50.6c-0.1-1.1-0.5,0-0.6,0C395.8,50.5,396.1,50.5,396.4,50.6c0.6,0.1,1.3,0.2,1.9,0.4  c0-0.2,0-0.3,0-0.5C397.6,50.5,397,50.5,396.4,50.6z M364.7,156.6c-0.2,0-0.4,0-0.5-0.1c-0.3-0.2-0.5-0.6-0.8-0.2  c-0.4,0.5,0,0.7,0.3,1c-0.7,0.2-1.5-0.4-2.3,0.6c0.7,0.1,1.3,0.2,1.8,0.3c0.2-0.3,0.3-0.6,0.4-0.9  C364,157.1,364.3,156.8,364.7,156.6c0.4-0.1,0.8-0.3,1.5-0.4C365.2,155.6,365,156.1,364.7,156.6z M276.8,35.6c0,0.5,0.1,1.1,0.7,0.8  c0.6-0.2,0.4-0.8,0.1-1.3C277.3,35.4,277,35.5,276.8,35.6c-0.7-0.4-1.3-0.6-1.8,0.5C275.6,35.9,276.2,35.8,276.8,35.6z M42.7,108.6  c0.9-0.6,1.5,0,2.1,0.8c0.2-0.5,0.2-0.7,0.4-1c-0.6-0.2-1-0.5-1.5-0.6C43.1,107.7,42.5,107.8,42.7,108.6c-0.1,0-0.4,0-0.5,0  c-0.2,0.1-0.3,0.3-0.4,0.5c0,0.1,0.2,0.4,0.3,0.3c0.2-0.1,0.4-0.2,0.5-0.3C42.6,108.9,42.6,108.7,42.7,108.6z M320.6,157.3  c0.3,0.3,0.6,0.6,1,0.9c0.4-0.6,0.4-1.1-0.1-1.6c-0.2-0.2-0.5-0.2-0.8-0.2C320.7,156.7,320.6,157,320.6,157.3  c-0.4,0.3-0.8,0.4-1.1,0.7c-0.1,0.1,0,0.5,0,0.7c0.1,0,0.2,0.1,0.3,0.1C320,158.3,320.3,157.8,320.6,157.3z M303.5,32  c-1.6-1.1-1.8-1.1-3.5,0.2C301.4,32.1,302.4,32.1,303.5,32c0.7,0.3,1.5,0.6,2.3-0.4C304.7,31.3,304.1,31.7,303.5,32z M423.1,132.7  c0.9-0.1,1.8-0.1,2.7-0.2c-0.5-0.5-1.3-0.5-1.7-0.8c-0.7-0.6-1.2-0.2-1.8-0.1c-0.8-0.8-1.4-0.5-1.8,0.4  C421.2,133.3,422.1,133.3,423.1,132.7z M247.3,28.5c-0.5-0.1-1-0.3-1.6-0.5c0.3-0.6,0.5-1.1,0.8-1.6c-0.8-0.1-1.4-0.3-2.2-0.4  c0.2,0.8-1.4,0.7-0.8,1.9c0.4-0.2,0.6-0.4,0.9-0.6C245.2,29.1,245.2,29.1,247.3,28.5c0.4-0.2,1.1,0.5,1.3-0.6  C248.1,28.1,247.7,28.3,247.3,28.5z M85.4,134.5c-1.7,0.1-2,1.3-1.8,2.7c-1.2-0.1-2.2-0.2-3.4-0.3c0,0.3,0,0.6,0,1.2  c1.2-0.7,2-0.5,2.7,0.5c0.4,0.5,0.9,0.5,1.4,0.2s0.6-0.7,0.3-1.2c-0.1-0.2-0.1-0.4-0.2-0.7C85.6,136.4,85.8,135.5,85.4,134.5  c1.9,0.3,1.9,0.3,3.1-1.7c-0.2-0.1-0.3-0.3-0.5-0.4c-0.1-0.1-0.3-0.1-0.5-0.1C86.1,132.3,85.8,132.6,85.4,134.5z M403.5,141.3  c-0.3,0-0.9-0.2-1-0.1c-0.5,1-1.5,0.7-2.3,0.9c-0.4,0.1-0.7,0.3-1,0.5c-0.1,0.1-0.1,0.3-0.2,0.4c1.5,0,2.2,0.7,2.5,2.1  c0.9-1.6,2-2,3-1.1c0.9,0.8,1.7,0.5,2.6,0.4c0.3,0,0.8-0.4,1-0.2c1,0.6,1.2-0.3,1.6-0.7c-0.9-1.1-0.9-1-1.9-1.2  c-1.3-0.2-2.6-0.5-3.9-0.7C403.7,141.6,403.6,141.4,403.5,141.3c0.2-0.4,0.4-0.7,0.5-1.1c-0.1,0-0.2-0.1-0.4-0.1  C403.6,140.5,403.6,140.9,403.5,141.3z M275.7,33.2c1,0.4,2.3,0.1,2.7,1.6c0.9-0.5,0.4-1,0.5-1.6C277.7,33.2,276.7,33.2,275.7,33.2  c-0.3-0.7,0.3-1,0.8-0.9c0.8,0.1,1.3-0.4,1.7-0.9c0.3,0.2,0.5,0.6,0.8,0.5c2,0,3.9-0.1,5.9-0.3c0.3,0,0.5-0.2,0.9-0.4  c-1.4-0.2-2.6-0.6-3.8-0.6c-1.3,0-2.8-0.8-3.9,0.7c-0.1-0.2-0.3-0.5-0.5-0.5c-1.7-0.4-3.6-0.6-5.2-0.3c-2.3,0.4-4.6-0.6-6.9,0.1  c-0.2,0.1-0.5-0.2-0.8-0.3c-1-0.2-1.9-0.1-2.5,0.7c0.5,1.5,2.4,0.5,3,1.7c1.9-1.5,3.6-0.9,5.5,0c0.1-0.1,0.2-0.2,0.3-0.3  c0.6-0.7,1.3-0.4,1.7,0c0.9,1,0.9,1,1.9,0.8C274.9,33.2,275.3,33.2,275.7,33.2z M65,73.9c0.1,0.1,0.1,0.3,0.2,0.4  c0.8-0.3,1.7-0.5,2.4-0.9c1.3-0.8,2.7-1.3,4.2-1.7c0.8-0.2,1.5-0.7,2.2-1c0.4-0.2,0.8-0.5,1.1-0.4c1.1,0.1,1.9-0.4,2.7-1  c0.2-0.2,0.5-0.4,0.7-0.5c1.7-0.6,3.5-1.2,5.4-1.3c0.9,0,1.9-0.4,2.8-0.8c0.6-0.3,1.3-0.7,1.4-1.7c-2,0.5-3.9,0.9-5.7,1.4  c-0.2,0-0.3,0.2-0.4,0.3c-0.6,0.3-1.2,0.7-1.9,0.9c-2.6,0.7-5.1,1.7-7.7,2.6c-1.8,0.7-3.6,1.4-5.5,2C66,72.6,65.4,73.1,65,73.9z   M243.2,33.1c1.6-0.1,3.2-0.4,4.7-0.2c1.7,0.2,3,0,4.3-1.2c0.6,0.6,1.2,1.2,1.7,1.7c0.5,0.6,1.2,0.7,1.6,0.1c0.5-0.8,0.8,0.5,1.1,0  c0.3-1.8,2.1-1.4,3.4-2.2c-0.4-0.2-0.6-0.5-0.8-0.5c-1.3,0-2.6,0.1-3.8,0.1c-1.5,0.1-3,0.3-4.5,0.4c-1.6,0.1-3.2,0-4.6,0.5  C245.2,32,243.8,31.3,243.2,33.1z M67.5,145.1c-0.1,0.4-0.2,0.6-0.2,0.7c0.1,0.2,0.2,0.4,0.3,0.6c0.1,0.2,0.3,0.4,0.3,0.6  c0.1,1.3,1,2.4,2.2,2.4c1,0.1,1.8-0.6,2-2.1c0.1-0.8,0.5-1.2,1.2-1.6c0.6-0.3,1.2-1,1.6-1.6c0.2-0.2,0.1-0.9-0.1-1.1  c-0.2-0.2-0.8-0.3-1.1-0.2c-0.8,0.6-1.5,1.3-2.2,2c-0.8,0.9-1.6,1.2-2.7,0.8C68.4,145.6,68,145.3,67.5,145.1z M422.9,137  c1.2-0.9,2.4-1.4,2.7-2.9c-0.4,0.3-0.9,0.6-1.3,0.9c-0.6-0.3-1.4-0.5-1.9-0.3c-0.7,0.3-1.2,0.3-1.8-0.1c-0.7-0.5-1.3-0.3-1.7,0.5  c-0.1,0.3-0.2,0.5-0.3,0.7c0.5,0.7,0.9,1.3,1.2,1.8c1-0.6,2.1-1.2,3.3-1.8C422.9,136.2,422.9,136.5,422.9,137z M299.1,32.2  c-0.7-1.7-2.3-1.5-3.3-1.3c-1.3,0.2-2.4,0-3.6,0.1c-0.6,0-1.3-0.2-1.7,0c-1,0.5-1.7,0.4-2.6-0.1c-0.7-0.4-1,0.2-1,0.8  C290.9,31.9,294.9,32,299.1,32.2z M38.9,114.3c-0.6-0.1-1.1-0.2-1.7-0.2c-0.8,0-1.8-0.3-2.3,0.8c-0.1,0.2-0.6,0.4-0.9,0.3  c-1.7-0.2-3.1,0.7-4.5,1.4c-0.2,0.1-0.3,0.4-0.5,0.8c1.4,0.4,2.5-0.1,3.5-0.7c0.8-0.5,1.5-0.9,2.4-0.8c0.7,0,1-0.3,0.9-1  c0,0,0.1-0.1,0.2-0.1c0.2,0.3,0.4,0.5,0.6,0.9c1.2-0.5,2.2-0.9,3.3-1.4c-0.2-0.5-0.4-0.8-0.7-1.3C39.1,113.6,39,113.9,38.9,114.3z   M66.9,130c0,0.8,0.5,1.4,1,1.4c0.9,0,2.4-1,2.3-1.6c0-0.9-0.8-1.6-1.8-1.5C67.5,128.2,66.9,128.9,66.9,130z M58,143  c0.1,0.1,0.1,0.2,0.2,0.3c0.9-0.4,1.8-0.7,2.7-1.1c0.2-0.1,0.4-0.5,0.4-0.7c0.1-0.7,0.2-1.4,0.1-2.1c0-0.3-0.4-0.6-0.5-0.7  C59.9,140.2,58.9,141.6,58,143z M77.7,115.7c0.9,0.5,1.6,0.8,2.4,1.3c0.1-0.4,0.2-0.9,0.3-1.4c0.1-0.9-0.2-1.7-1.1-2.1  c-0.3-0.1-0.8-0.1-1.1,0.1C77.4,114.2,77.4,115,77.7,115.7z M424.5,123.1c-1-0.8-0.3-1.9-0.2-2.8c-1.4-0.4-1.6-0.4-2.1,0.5  c-0.6,1-0.5,1.6,0.3,2.4C423.1,123.7,423.7,124.1,424.5,123.1z M355.9,156.9c0.6-0.1,1.1-0.4,1.7-0.4c1.4,0.1,2-0.8,2.7-1.7  c-0.1-0.1-0.1-0.2-0.2-0.3c-0.5,0.4-1,0.8-1.5,1.2c-1.1-1.3-2.4-1.5-4.1-0.3C354.9,156,355.4,156.4,355.9,156.9z M416.4,114.5  c-0.6,0.1-1.2,0.3-1.8,0.4c-1.2,0.1-2.5,0.1-3.7,0.2c-0.3,0-0.6,0.1-0.8,0.2c1.2,0.3,2.4,0.4,3.5,0.5c0.6,0.1,1.2,0.1,1.7,0.4  c0.4,0.3,0.6,0.9,1,1.6C416.3,116.5,416.3,115.5,416.4,114.5z M101.7,136.2c0-0.7-0.5-1.2-1.2-1.3c-0.9-0.1-1.7,0.8-1.7,1.7  c0,0.8,0.4,1.2,1.2,1.2C101,138,101.7,137.3,101.7,136.2z M430.7,119c0.7,1.2,4.1,1.6,5.9,0.6c-0.8-0.2-1.5-0.4-2.2-0.5  c0-0.7,0.1-1.2,0.1-1.9c-0.3,0-0.7-0.1-0.8,0c-0.2,0.6-0.4,1.2-0.7,2.1C432.3,120.1,431.5,118.9,430.7,119z M437.9,108.4  c-0.3-0.5-0.5-1.1-0.7-1.1c-1.5-0.3-3-0.5-4.5-0.2c0.5,1.3,0.5,1.3,1,1.3C435,108.4,436.2,108.4,437.9,108.4z M427.7,134.9  c0.2,0,0.3,0,0.5,0c0.1-0.7,0-1.3,0.2-1.9c0.2-0.7,0.7-1.3,1.1-1.9c-1.4-1-1.4-1-2.7-0.1C427,132.2,427.2,133.6,427.7,134.9z   M116,124.7c-0.3,0.6-0.6,1.1-0.9,1.8c1,0.4,1.8,0.8,2.7,1.2c0.9-1.4,0.8-2.6-0.3-3c-0.2,0.2-0.5,0.4-0.7,0.6  C116.5,125.1,116.3,125,116,124.7z M73.4,152.9c1-1,1.9-1.8,2.9-2.7c-1.9-0.3-1.9-0.3-2.9,0.3c-0.5,0.3-1.5,0.4-1.3,1.2  C72.3,152.2,73,152.5,73.4,152.9z M293.6,33.9c1,0.8,2.4,1.1,4.4,1c0.6-0.1,1.3-0.2,1.6-1c-0.9-0.1-1.6-0.1-2.4-0.2  c-0.6-0.1-1.3-0.8-1.9,0.1C294.7,33.5,294.1,32.9,293.6,33.9z M65.3,143.1c0-0.1,0-0.2,0-0.4c-0.1-0.7-0.7-1.2-1.4-1  c-0.8,0.2-0.8,0.6-0.6,1.3c0.1,0.4-0.1,0.9,0.1,1.4c0.1,0.4,0.5,0.8,0.9,0.9c0.2,0.1,0.7-0.4,0.8-0.7  C65.2,144.2,65.2,143.7,65.3,143.1z M430.1,123.2c1-0.6,1.1-1.1,0.8-2c-0.3-0.8-0.6-1.4-1.5-1.5c-0.3,0-0.8,0.2-1,0.4  c-0.1,0.1-0.2,0.6,0,0.8C428.8,121.7,429.4,122.4,430.1,123.2z M417,131.6c-0.4,0.5-0.8,0.9-1.2,1.4c0.6,0.3,1.2,0.6,1.8,0.8  c0.4,0.1,1,0.2,1.2,0c0.3-0.2,0.6-0.8,0.5-1.2c-0.1-0.3-0.6-0.6-0.9-0.8C418,131.6,417.5,131.6,417,131.6z M408.9,115.4  c-1.5-0.4-1.5-0.4-1.7-1.7c-0.1-0.3-0.1-0.7-0.2-1c-0.4-0.6-1.1-0.5-1.5,0c-0.5,0.8,0.2,2.6,1.2,2.7  C407.4,115.4,408.1,115.4,408.9,115.4z M60.8,86.8c-0.6,0.6-1.2,1.2-1.7,1.7c1.1,1.8,1.8,1.6,2.3,1.1C62.1,89,62,88.1,60.8,86.8z   M115.6,106.3c-0.5,1.5-0.2,2.4,0.7,2.4c0.2-0.2,0.4-0.5,0.6-0.8c0.3,0.2,0.6,0.4,0.9,0.5c0.6-1.6,0.6-1.6-0.1-2.4  c-0.1-0.1-0.2,0-0.3,0c-0.2,0.4-0.3,0.7-0.5,1.2C116.4,106.9,116,106.7,115.6,106.3z M67.1,87.8c0.2-0.3,0.6-0.7,0.7-1.2  c0.1-0.9-0.7-1.7-1.4-1.7c-0.6,0.1-0.9,0.5-0.8,1.1C65.7,87.1,66.2,87.8,67.1,87.8z M415.5,128.5c-0.8,0.6-1.4,1.2-2.1,1.7  c1.2,1.1,1.8,1.3,2.5,0.8C416.5,130.3,416.4,129.5,415.5,128.5z M100.4,122c0.3-0.2,0.6-0.3,0.7-0.4c0.7-0.8,0.9-1.7,0.4-2.2  s-1.3-0.2-2.2,0.9C99.7,120.8,100,121.3,100.4,122z M422.5,92.9c0.6,0.6,0.5,2,1.7,1.8c1-0.2,1.2-1.1,1.8-2.1  C424.7,92.7,423.6,92.8,422.5,92.9z M369.8,102.7c-0.4,0.7-0.7,1.1-0.8,1.6c-0.1,0.8,0.4,1.3,1.1,1.3c0.7,0,1.3-0.5,1.2-1.1  C371.1,104,370.4,103.5,369.8,102.7z M69.7,163.9c-0.9,0-1.7,0.8-1.5,1.3c0.2,0.4,0.6,0.8,1.1,0.9c0.6,0.2,1.5-0.6,1.3-1.1  C70.4,164.5,69.9,164.1,69.7,163.9z M96.2,126.6c0.2,0,0.3-0.1,0.5-0.1c-0.1-1-0.4-2,0.7-2.8c-0.4-0.5-0.7-0.9-1.1-1.4  c-1.2,1.2-0.3,2.4-0.7,3.4C95.4,125.9,95.9,126.3,96.2,126.6z M402.7,129.7c-0.6-0.5-1.2-1.1-1.9-0.7c-0.4,0.2-0.6,0.9-0.6,1.3  c0,0.3,0.6,0.6,1,1C401.7,130.8,402.1,130.4,402.7,129.7z M379.7,57.8c-1.6-1.1-3.2-0.8-4.7-0.8c-0.6,0-1,0.4-0.8,1.2  c1.7-0.8,1.7-0.9,3.4,0C378.3,58.5,378.9,58.3,379.7,57.8z M68.1,141.3c0.7,0.4,1,0.8,1.5,0.9c0.6,0.1,1.2-0.5,1.1-1.1  c-0.1-0.6-0.5-1.2-1.2-1.1C69,140.2,68.7,140.7,68.1,141.3z M69.4,112.2c-1.4,0.3-1.9,0.8-1.7,1.7c0.1,0.3,0.4,0.6,0.6,0.7  c0.2,0.1,0.7-0.2,0.8-0.4C69.6,113.7,69.9,113.1,69.4,112.2z M72.3,136.4c0-1.1-0.3-1.7-1-1.7c-0.6-0.1-0.8,0.3-0.8,0.9  c0,1.1,0.5,1.9,1.1,1.7C72,137.1,72.2,136.6,72.3,136.4z M82.7,128.6c-0.1,0.7-0.3,1.3-0.4,2.1c1.4-0.2,2.1-0.8,2.8-1.8  C84.2,128.8,83.6,128.7,82.7,128.6z M29.8,128.9c-0.7-0.5-1.1-0.9-1.6-1.1s-1.2,0.6-0.9,1.1c0.2,0.4,0.7,1,1,1  C28.7,129.9,29.1,129.4,29.8,128.9z M349.5,151.9c1.3,1,1.6,1.1,2,0.5c0.4-0.6,0.3-1.4-0.3-1.6C350.2,150.4,350,151.2,349.5,151.9z   M42.7,150.3c-1.9,0.7-3.5,1.2-5.1,1.8C38.7,152.7,41,152,42.7,150.3z M432.3,125.4c-0.6-0.8-1.8-1-2.3-0.6  c-0.6,0.4-0.4,1.2,0.5,2.1C430.2,125.4,431.3,125.6,432.3,125.4z M362.5,154.9c1.4,0.5,1.6,0.4,2.4-1.4c-0.5-0.2-1-0.4-1.5-0.6  C363.1,153.7,362.8,154.3,362.5,154.9z M67.6,136.4c0.7,0.1,1.2,0.4,1.6,0.2c0.3-0.1,0.5-0.8,0.5-1.2c-0.1-0.7-0.7-0.9-1.5-0.7  C68,135.2,67.9,135.6,67.6,136.4z M41,124.5c0.9-0.4,1.2-1,1.1-1.9c0-0.2-0.3-0.6-0.5-0.6c-0.2-0.1-0.6,0.1-0.7,0.3  C40.4,123,40.4,123.7,41,124.5z M416.3,102.5c-0.9-1-1.8-1.3-2.2-0.8c-0.5,0.6-0.2,1.2,0.4,1.7C415.1,103.1,415.7,102.8,416.3,102.5  z M300.8,34.5c1.5-0.1,2.8,0.9,4.4,0c-1.3-1-2.7-0.3-3.9-0.6C301.2,33.9,301,34.3,300.8,34.5z M87.6,115.1c0.5,0.7,0.8,1.1,1,1.5  c0.7-0.6,1.3-1.1,1.9-1.7C89.4,113.2,88.8,115.5,87.6,115.1z M334.6,156.9c2.3,0.6,2.4,0.5,2.1-1.2  C335.6,155.6,334.8,155.7,334.6,156.9z M343.9,112c1.2-0.9,1.2-0.9,0.2-2.3C342.9,110.5,342.9,110.6,343.9,112z M434.6,123.8  c0.4,0.5,0.6,1.1,1,1.2c0.4,0.1,0.9-0.3,1.5-0.5C436,123.1,436,123.1,434.6,123.8z M96.3,133.5c0.4,1.2,1.1,1.1,1.7,0.8  c0.6-0.4,0.6-0.9,0.1-1.7C97.5,132.9,97,133.2,96.3,133.5z M74.3,155.9c-0.4,0.5-0.8,0.8-0.8,1.1c-0.1,0.5,0.8,1.3,1.3,1.1  c0.3-0.1,0.7-0.7,0.7-0.8C75.2,156.9,74.7,156.5,74.3,155.9z M389.8,141.6c0.5,0,0.9-0.3,0.8-1c0-0.3-0.4-0.8-0.7-0.9  c-0.6-0.2-1,0.3-1.1,0.9C388.8,141.2,389,141.5,389.8,141.6z M36,130.8c1.7-0.6,1.8-0.8,1-2.6C35.9,128.8,36.7,130.1,36,130.8z   M383.5,116.8c0.5-0.4,1-0.7,1.3-1.1c0.1-0.1,0.1-0.5,0-0.6c-0.1-0.2-0.4-0.3-0.6-0.3C383.4,114.8,383.1,115.5,383.5,116.8z   M93.3,142.9c-0.4,1.7-0.2,1.9,1.4,1.6C94.7,143.6,94.3,143,93.3,142.9z M64.9,109.9c-0.7,0.3-1.2,0.6-1.9,0.8  c0.2,0.4,0.5,0.8,0.7,1.2C64.5,111.4,65.3,111,64.9,109.9z M54,85c0.9,0.3,1.2,1.4,2.1,0.7c0.2-0.2,0.2-1,0-1.2  C55.4,83.7,54.9,84.4,54,85z M82.2,121.7c0.1,0.3,0.1,0.5,0.2,0.6c0.4,0.5,0.9,0.7,1.4,0.2c0.3-0.2,0.5-0.8,0.4-1  c-0.3-0.7-0.9-0.3-1.4-0.2C82.6,121.4,82.5,121.6,82.2,121.7z M83.3,131.5c-1,0.8-1.9,1.4-2.7,2C83.2,132.9,83.2,132.9,83.3,131.5z   M352.4,156.9c0.4-0.5,0.7-0.9,1.1-1.3c-2.8-0.1-2.8-0.1-3.2,0.7c0.7-0.1,1.3-0.2,1.9-0.3C352.2,156.3,352.3,156.5,352.4,156.9z   M369.1,147.3c-0.5-0.4-0.7-0.7-1-0.8c-0.4-0.1-1,0.6-0.8,1.1c0.1,0.3,0.6,0.7,0.8,0.7C368.4,148.1,368.6,147.7,369.1,147.3z   M386.1,148.7c0.5-0.6,0.8-1.2,0.1-1.7c-0.2-0.1-0.8-0.1-0.9,0.1C384.9,147.8,385.2,148.3,386.1,148.7z M88.6,127.8  c-0.5-0.4-0.8-0.8-1.1-0.8c-0.2,0-0.7,0.6-0.6,0.8c0.1,0.4,0.5,0.7,0.7,1C87.9,128.5,88.2,128.2,88.6,127.8z M102.2,152.9  c-0.3,0.1-0.6,0.1-0.7,0.2c-0.3,0.3-0.5,0.7-0.7,1.1c0,0,0.5,0.5,0.6,0.4c0.4-0.3,0.7-0.7,1-1.1  C102.5,153.4,102.3,153.2,102.2,152.9z M87.8,173.3c0.3,0.6,0.4,1.3,1.3,1.1c0.5-0.1,0.7-0.9,0.3-1.3  C88.8,172.4,88.3,172.8,87.8,173.3z M108.4,143.5c0.4-0.7,0.7-1,0.6-1.3c-0.1-0.3-0.4-0.7-0.7-0.8c-0.2,0-0.7,0.5-0.7,0.7  C107.7,142.5,108,142.8,108.4,143.5z M382,144.5c-0.6-0.3-0.9-0.6-1.2-0.7c-0.2,0-0.7,0.5-0.7,0.6c0.1,0.3,0.4,0.7,0.7,0.8  C381.1,145.3,381.4,144.9,382,144.5z M410.2,89c-0.8,0.4-1.1,0.9-0.9,1.5c0.1,0.3,0.6,0.5,0.9,0.7c0.1-0.1,0.3-0.2,0.4-0.3  C410.5,90.4,410.3,89.8,410.2,89z M368.6,154.5c-0.7,0.3-1.2,0.5-1.7,0.7c0.5,0.7,1,1.2,1.5,1.9  C368.5,156.2,368.5,155.5,368.6,154.5z M402.4,107.6c0.7-0.3,1.5-0.3,1.5-1.2c0-0.2-0.6-0.6-0.9-0.5  C402.2,106.1,402.1,106.7,402.4,107.6z M290.3,34.2c0-0.1,0-0.2,0-0.3c-1.4,0-2.8,0-4.3,0c0,0.1,0,0.2,0,0.3  C287.5,34.2,288.9,34.2,290.3,34.2z M393.1,138.7c0.2,0,0.4,0,0.5-0.1c0.5-0.3,0.6-0.7,0.3-1.2c-0.1-0.2-0.5-0.4-0.7-0.3  c-0.6,0.2-0.5,0.7-0.3,1.2C392.9,138.4,393,138.5,393.1,138.7z M355.6,152.1c-0.1,0.1-0.2,0.1-0.4,0.2c0,0.4,0,0.9,0,1.4  c0.6-0.1,1.1-0.1,1.9-0.2C356.5,152.9,356,152.5,355.6,152.1z M426.5,91.3c0.1-0.9,0.3-1.3,0.2-1.6c0-0.3-0.4-0.5-0.6-0.7  c-0.2,0.3-0.6,0.6-0.6,0.9C425.7,90.3,426,90.6,426.5,91.3z M402.7,108.2c-0.2-0.1-0.3-0.2-0.5-0.2c-0.1,0.2-0.1,0.5-0.2,0.7  c-0.1,0.8,0.5,1,1,1.2c0.1,0.1,0.4-0.2,0.6-0.4C403.4,109,403.1,108.6,402.7,108.2z M386.1,97.7c0.1,0,0.3,0.1,0.4,0.1  c0.3-0.4,0.6-0.9,1-1.5c-0.6-0.3-1-0.5-1.5-0.7C386.1,96.5,386.1,97.1,386.1,97.7z M83.5,161.8c-0.2,0.1-0.4,0.1-0.5,0.2  c-0.2,0.3-0.5,0.7-0.6,1c0,0.1,0.4,0.4,0.6,0.4c0.5,0,0.9-0.3,0.8-0.9C83.8,162.3,83.6,162.1,83.5,161.8z M66.4,160.7  c0.3-0.8,0.4-1.2,0.6-1.6c-1.2-0.3-1.2-0.3-1.4-0.5C65.8,159.2,66.1,159.8,66.4,160.7z M97.7,116.6c-1.1,1.2-1.1,1.2-0.1,2  C98,117.5,98,117.5,97.7,116.6z M322.9,38.8c-1.4-0.8-1.9-0.8-2.8,0C321.1,39.5,322,38.6,322.9,38.8z M416.1,112.1  c0,0.1,0,0.3,0.1,0.4c0.9-0.1,1.9-0.2,3-0.4C418,111.2,417.1,111.9,416.1,112.1z M406.2,133.9c0.2-0.7,0.3-1.2-0.5-1.3  c-0.2,0-0.7,0.4-0.7,0.6C405,133.8,405.4,134,406.2,133.9z M449.2,125.7c-0.7,1.8-0.6,2,0.9,1.8C449.8,127,449.6,126.5,449.2,125.7z   M239.2,162.2c0,0.1,0,0.2,0,0.4c1-0.2,2.1,0.1,3-0.8C241.2,161.9,240.2,162,239.2,162.2z M240.8,32c-0.4,0.7-0.1,1.1,0.3,1.3  c0.6,0.3,1.1,0,1.4-0.5C241.9,32.5,241.4,32.3,240.8,32z M76.1,131.4c-0.5-0.7-0.7-0.9-0.9-1.2c-0.3,0.2-0.7,0.5-0.7,0.7  c0,0.3,0.4,0.7,0.6,0.8C75.4,131.9,75.8,131.6,76.1,131.4z M140.2,164.8c1.2,0,1.2,0,1.6-1.9C141.3,163.5,140.8,164.2,140.2,164.8z   M91.6,61.6c-1.9-0.4-1.9-0.4-2.4,1C90,62.3,90.7,62,91.6,61.6z M371.2,153.7c0.6,1.2,1.3,0.6,1.9,0.2  C372.7,152.8,372,153.5,371.2,153.7z M352.9,143.2c0.2,0,0.3,0,0.5,0c0.1-0.4,0.4-0.9,0.2-1.2c-0.2-0.5-0.7-0.5-1.2,0  C352.5,142.4,352.7,142.8,352.9,143.2z M35.2,110.5c1.2,0.5,1.3,0.5,2.2-0.4C36.6,110.2,35.9,109.9,35.2,110.5z M18.2,118.7  c0-0.2,0-0.4,0-0.6c-0.9-0.1-1.7,0.7-2.5,1C16.5,119,17.3,118.9,18.2,118.7z M53.6,101.9c0.7-0.1,1.1-0.5,0.9-1.1  c0-0.1-0.4-0.3-0.6-0.3C53.2,100.8,53.3,101.3,53.6,101.9z M398.9,146.4c0.3-0.5,0.6-0.8,0.5-1c0-0.3-0.4-0.4-0.7-0.7  c-0.2,0.3-0.5,0.5-0.5,0.8C398.2,145.7,398.6,146,398.9,146.4z M46.4,148.8c-0.6-0.3-0.9-0.6-1.2-0.5c-0.2,0-0.5,0.4-0.7,0.6  c0.2,0.2,0.4,0.5,0.7,0.6C45.4,149.4,45.7,149.2,46.4,148.8z M361.3,154.9c-0.1,0.1-0.2,0.2-0.3,0.3c0.6,1.1,0.8,1.2,2,0.8  C362.4,155.5,361.9,155.2,361.3,154.9z M353.5,154.2c0.3-0.5,0.5-0.8,0.7-1.1c-0.4-0.2-0.8-0.4-1.1-0.6c0,0-0.1,0.2-0.3,0.3  C352.9,153.2,353.1,153.6,353.5,154.2z M83.7,99.6c-0.5-0.3-0.8-0.5-1.1-0.6c-0.2,0-0.4,0.3-0.6,0.5c0.3,0.3,0.5,0.6,0.9,0.7  C83,100.2,83.3,99.9,83.7,99.6z M96.6,105.8c0.7-0.1,1-0.1,1.2-0.2c0.2-0.1,0.4-0.4,0.6-0.7c-0.3-0.1-0.6-0.3-0.9-0.2  C97.2,104.8,97.1,105.2,96.6,105.8z M372.2,149.3c-0.2-0.6-0.2-1.1-1-1c-0.1,0-0.3,0.2-0.3,0.4C371,149.3,371.3,149.6,372.2,149.3z   M38.5,125.1c-0.3,0.4-0.6,0.6-0.6,0.8c0,0.2,0.3,0.4,0.4,0.6c0.2-0.2,0.5-0.4,0.6-0.7C39,125.8,38.7,125.5,38.5,125.1z M89.9,150.3  c0.4,0.2,0.7,0.5,0.9,0.5c0.2,0,0.3-0.4,0.5-0.6c-0.2-0.2-0.5-0.5-0.7-0.5C90.4,149.7,90.2,150,89.9,150.3z M90.1,134.3  c0.3-0.6,0.4-1.1-0.3-1.4c-0.1,0-0.4,0.1-0.4,0.2C89.2,133.7,89.2,134.2,90.1,134.3z M66.9,141.2c-0.3,0.4-0.9,0.7-0.3,1.3  c0.1,0.1,0.6,0.2,0.7,0.1C67.7,142,67.5,141.6,66.9,141.2z M397,142.5c-0.6-0.2-1-0.1-1.1,0.6c0,0.2,0.3,0.5,0.4,0.5  C397,143.6,397.2,143.1,397,142.5z M102.8,116c-0.2-0.5-0.4-0.9-0.6-1.4c-0.2,0.1-0.5,0.2-0.5,0.3  C101.6,115.5,101.9,115.9,102.8,116z M34.9,111.8c-0.7,0.6-0.8,1.1-0.3,1.8C35.1,113,35.4,112.5,34.9,111.8z M75.5,147.2  c-0.2,0.3-0.3,0.5-0.5,0.7c0.3,0.2,0.5,0.4,0.8,0.5c0.1,0,0.3-0.3,0.5-0.5C76.1,147.7,75.8,147.5,75.5,147.2z M368.3,138.2  c-0.3,0.3-0.4,0.6-0.6,0.8c0.2,0.1,0.5,0.4,0.6,0.4c0.2-0.1,0.4-0.4,0.5-0.7C368.8,138.6,368.5,138.4,368.3,138.2z M378.4,52.2  c0-0.2,0.1-0.3,0.1-0.5c-0.5-0.7-1.1,0.1-1.7,0.2C377.4,52,377.9,52.1,378.4,52.2z M73.5,129.2c0.1-0.8,0.2-1.4-0.7-1.3  c-0.2,0-0.3,0.2-0.6,0.5C72.7,128.6,73,128.9,73.5,129.2z M371.1,123.3c-0.5,0.4-0.7,0.7-1.2,1.2c0.7,0,1,0,1.4,0  C371.3,124.1,371.3,123.9,371.1,123.3z M417.6,122.1c-0.1,0.2-0.2,0.3-0.2,0.5c0.5,0.2,1.1,0.4,1.6,0.6c0.1-0.1,0.1-0.3,0.2-0.4  C418.7,122.6,418.2,122.4,417.6,122.1z M408.6,137.9c-0.2,0-0.3,0.1-0.5,0.1c0.1,0.4,0.2,0.8,0.3,1.2c0.2-0.1,0.5-0.2,0.5-0.2  C408.9,138.6,408.7,138.2,408.6,137.9z M48.2,128.2c-0.2-0.3-0.4-0.5-0.6-0.8c-0.2,0.2-0.5,0.3-0.5,0.5c0,0.2,0.2,0.5,0.4,0.7  C47.7,128.5,47.9,128.4,48.2,128.2z M81.8,65c-0.8-0.2-1.2-0.2-1.7-0.3c-0.1,0.4-0.2,0.7-0.3,1.3C80.6,65.6,81,65.4,81.8,65z   M381.8,113.8c-0.7,0.6-0.7,1-0.2,1.3c0.1,0.1,0.5-0.1,0.5-0.1C382,114.6,381.9,114.2,381.8,113.8z M408.5,133.7  c1.1-0.8,1.1-0.8,0.5-1.4C408.9,132.7,408.7,133.1,408.5,133.7z M85.8,129.1c-0.2,0.5-0.3,0.7-0.3,0.9s0.3,0.3,0.4,0.5  c0.2-0.2,0.4-0.4,0.4-0.6C86.4,129.7,86.1,129.5,85.8,129.1z M52.2,140.7c0,0.1,0,0.3-0.1,0.4c0.7,0.5,0.7,0.5,1.5-0.3  C53,140.7,52.6,140.7,52.2,140.7z M59.7,84.9c0.2-0.4,0.4-0.6,0.4-0.8s-0.3-0.3-0.5-0.5C59.3,83.7,59,84,59,84.1  C59.1,84.4,59.4,84.5,59.7,84.9z M393.3,75.3c0.5,0.1,1,0.3,1.5,0.4C394.5,74.5,393.9,74.9,393.3,75.3z M92.3,137.8  c-0.4-0.2-0.7-0.4-0.9-0.4c-0.1,0-0.3,0.3-0.3,0.5c0,0.1,0.3,0.4,0.4,0.4C91.7,138.3,91.9,138.1,92.3,137.8z M114,93.2  c-0.1,0.1-0.3,0.2-0.4,0.2c-0.1,0.3-0.3,0.5-0.3,0.8c0,0.1,0.3,0.2,0.5,0.3c0.2-0.3,0.4-0.5,0.5-0.8C114.2,93.7,114,93.4,114,93.2z   M271,36.1c-1.5-0.6-1.5-0.6-2.1,0.3C269.5,36.3,270.1,36.2,271,36.1z M115.1,112.5c-0.5-0.1-1.1-0.3-1.6-0.4  c-0.1,0.1-0.1,0.3-0.2,0.4C114,112.3,114.2,113.4,115.1,112.5z M86.4,119.1c-0.6,0.3-0.8,0.7-0.8,1.4  C86.3,120.2,86.8,120,86.4,119.1z M378.8,160.3c0-1.5,0-1.5-1-1.2C378.1,159.4,378.3,159.7,378.8,160.3z M421.4,103.4  c-0.3-0.2-0.6-0.4-0.7-0.3c-0.2,0.1-0.4,0.3-0.6,0.5c0.2,0.1,0.4,0.4,0.5,0.4C420.9,103.9,421,103.7,421.4,103.4z M352.6,119.6  c-0.1,0-0.3,0-0.4,0c-0.3,0.4-0.6,0.8,0.2,1.6C352.5,120.4,352.5,120,352.6,119.6z M155.5,171.9c-0.3-0.4-0.6-0.8-1-1.3  c-0.1,0.6-0.1,1-0.2,1.6C154.8,172.1,155.1,172,155.5,171.9z M109.6,120.1c0.2-0.3,0.5-0.5,0.5-0.5c-0.2-0.2-0.4-0.4-0.6-0.7  c-0.1,0.2-0.4,0.3-0.4,0.5C109.2,119.6,109.4,119.8,109.6,120.1z M341.6,151.1c0.5-0.3,0.9-0.5,1.4-0.9  C341.9,149.6,341.6,149.9,341.6,151.1z M76.6,67.1c0-0.2-0.1-0.3-0.1-0.5c-0.4,0.1-0.8,0.2-1.2,0.3c0,0.1,0.1,0.3,0.1,0.4  C75.8,67.2,76.2,67.1,76.6,67.1z M75.7,138.7c0.6-0.1,1-0.4,0.8-1c0-0.1-0.3-0.2-0.4-0.2C75.4,137.7,75.4,138.1,75.7,138.7z   M394.2,146c0.1-0.2,0.2-0.3,0.3-0.5c-0.2-0.2-0.5-0.4-0.7-0.5c-0.1,0-0.3,0.3-0.4,0.5C393.7,145.6,393.9,145.8,394.2,146z   M384.3,139.6c-0.4-0.2-0.6-0.3-0.7-0.3c-0.2,0-0.3,0.2-0.5,0.3c0.1,0.1,0.3,0.4,0.4,0.4C383.7,140,383.9,139.8,384.3,139.6z   M386.4,74.8c-0.2,0.3-0.5,0.5-0.4,0.6c0.1,0.2,0.3,0.4,0.4,0.5c0.1-0.2,0.3-0.3,0.3-0.5C386.8,75.3,386.6,75.1,386.4,74.8z   M136.8,53.1c-0.6-0.2-0.9,0-0.9,0.6c0,0.1,0.2,0.3,0.3,0.3C136.8,54,136.9,53.6,136.8,53.1z M98.6,124c-0.2,0-0.4,0-0.6,0  c0.1,0.3,0.1,0.6,0.2,0.9h0.3C98.6,124.7,98.6,124.4,98.6,124z M43.7,147.9c-0.3-0.2-0.5-0.4-0.7-0.4s-0.3,0.2-0.5,0.3  c0.1,0.2,0.3,0.4,0.4,0.4C43.1,148.2,43.3,148,43.7,147.9z M25.7,133.9c0.2-0.4,0.4-0.6,0.3-0.8c0-0.2-0.3-0.3-0.4-0.4  c-0.1,0.2-0.3,0.4-0.3,0.5C25.3,133.4,25.5,133.5,25.7,133.9z M65.3,116.4c0.2,0,0.3,0.1,0.5,0.1c0.4-0.4,0.5-0.7-0.2-1.4  C65.5,115.7,65.4,116,65.3,116.4z M385.4,132.4c0.2-0.1,0.3-0.1,0.5-0.2c-0.1-0.3-0.3-0.6-0.4-0.9c-0.1,0-0.2,0.1-0.3,0.1  C385.2,131.8,385.3,132.1,385.4,132.4z M57.3,117.6c-0.7-0.4-0.9-0.6-1-0.6c-0.2,0.1-0.3,0.3-0.3,0.5c0,0.1,0.3,0.4,0.4,0.4  C56.6,117.9,56.9,117.7,57.3,117.6z M103.5,117.3c-0.4,0.9-0.2,1.2,0.8,1.4C104,118.2,103.8,117.9,103.5,117.3z M43.4,128.8  c0.3-0.4,0.6-0.6,0.6-0.8s-0.3-0.4-0.5-0.5c-0.1,0-0.4,0.3-0.4,0.4C43.1,128.2,43.3,128.4,43.4,128.8z M97.1,120.4  c-0.3-0.2-0.4-0.4-0.6-0.5c-0.1,0-0.3,0.2-0.3,0.3c0,0.2,0.1,0.4,0.3,0.5C96.5,120.8,96.8,120.6,97.1,120.4z M63.7,87.9  c-0.2,0.3-0.4,0.5-0.5,0.6c0,0.2,0.2,0.4,0.3,0.6c0.2-0.2,0.4-0.3,0.5-0.5C64.1,88.5,63.9,88.2,63.7,87.9z M394.2,49.3  c0-0.2,0.1-0.4,0.1-0.6c-0.5-0.1-0.9-0.1-1.4-0.2c0,0.1-0.1,0.2-0.1,0.4C393.3,49,393.7,49.1,394.2,49.3z M418.3,113.5  c0-0.1,0-0.3,0-0.4c-0.5,0.1-1,0.1-1.6,0.2c0,0.1,0,0.2,0,0.3C417.3,113.6,417.8,113.5,418.3,113.5z M351.9,145.4  c-0.2,0.3-0.3,0.4-0.3,0.5c0.1,0.2,0.2,0.4,0.4,0.5c0.1-0.2,0.3-0.3,0.3-0.5C352.3,145.8,352.1,145.7,351.9,145.4z M119.1,138.9  c-0.2-0.1-0.4-0.3-0.6-0.3c-0.1,0-0.2,0.2-0.3,0.3c0.2,0.2,0.4,0.3,0.6,0.5C118.9,139.2,119,139.1,119.1,138.9z M26.8,127.2  c-0.2-0.2-0.3-0.4-0.5-0.5c-0.1,0-0.3,0.1-0.4,0.2c0.1,0.2,0.3,0.4,0.4,0.7C26.5,127.5,26.6,127.4,26.8,127.2z M369.9,150.7  c-0.1,0-0.3,0-0.4-0.1c-0.1,0.1-0.2,0.3-0.2,0.4c-0.1,0.4,0.2,0.9,0.4,0.6C369.8,151.4,369.8,151,369.9,150.7z M358.1,96.8  c-0.2,0.3-0.3,0.5-0.3,0.5c0.1,0.2,0.3,0.3,0.5,0.4c0.1-0.1,0.3-0.3,0.3-0.4C358.4,97.2,358.3,97,358.1,96.8z M414.3,150.4  c0-0.1,0-0.3-0.1-0.4c-0.3,0-0.6,0.1-0.8,0.1c0,0.1,0,0.2,0,0.3C413.7,150.4,414,150.4,414.3,150.4z M395.4,136  c0.2-0.2,0.4-0.4,0.4-0.5c0-0.1-0.3-0.3-0.4-0.4c-0.1,0.2-0.3,0.3-0.3,0.5C395.1,135.6,395.3,135.8,395.4,136z M394.3,96.7  c-0.1,0.4-0.2,0.6-0.2,0.8c0,0.1,0.2,0.2,0.4,0.3c0.1-0.2,0.4-0.3,0.4-0.5C394.8,97.2,394.6,97,394.3,96.7z M140.6,172.6  c0-0.2-0.1-0.3-0.1-0.5c-0.4,0.1-0.8,0.2-1.2,0.3c0,0.1,0,0.2,0.1,0.4C139.8,172.7,140.2,172.6,140.6,172.6z M67.9,137.5  c-0.1,0.4-0.3,0.6-0.3,0.9c0,0.1,0.2,0.3,0.3,0.3c0.2-0.1,0.4-0.2,0.5-0.3C68.5,138.3,68.3,138.1,67.9,137.5z M84.3,141.3  c0.1-0.1,0.2-0.3,0.2-0.4c-0.2-0.1-0.4-0.2-0.6-0.2c-0.2,0-0.4,0.2-0.4,0.4s0.2,0.4,0.3,0.5C83.9,141.6,84.1,141.4,84.3,141.3z   M220,165.8c0-0.1,0-0.3,0-0.4c-0.4,0.1-0.8,0.1-1.2,0.2c0,0.1,0,0.2,0,0.3C219.2,165.9,219.6,165.9,220,165.8z M390,75.9  c0.4-0.3,0.7-0.5,1.2-0.8C390.3,74.7,390,74.9,390,75.9z M378.3,74.7c-0.2,0.3-0.4,0.5-0.4,0.7c0,0.2,0.2,0.3,0.3,0.5  c0.1-0.2,0.4-0.3,0.4-0.5C378.7,75.3,378.5,75.1,378.3,74.7z M354.6,158.6c0-0.1,0-0.2,0-0.2c-0.5,0.1-1.1,0.1-1.6,0.2  c0,0.1,0,0.1,0,0.2C353.5,158.7,354,158.6,354.6,158.6z M370.8,56.6c-1.1,0.3-1.1,0.3-0.6,1C370.4,57.3,370.6,57.1,370.8,56.6z   M379.3,140.6c0.1-0.3,0.2-0.4,0.2-0.6c0,0-0.2-0.2-0.2-0.1c-0.2,0.1-0.3,0.3-0.4,0.4C378.9,140.4,379,140.4,379.3,140.6z   M100.7,114.8c-0.2-0.2-0.4-0.4-0.6-0.4c-0.1,0-0.2,0.2-0.4,0.3c0.1,0.1,0.3,0.3,0.4,0.4C100.3,115.2,100.5,115,100.7,114.8z   M134.5,174.3c0,0.1,0.1,0.2,0.1,0.2c0.4-0.2,0.8-0.3,1.2-0.5c0-0.1-0.1-0.1-0.1-0.2C135.3,174,134.9,174.2,134.5,174.3z   M88.8,147.9c-0.3-0.2-0.5-0.4-0.7-0.4c-0.1,0-0.3,0.3-0.3,0.5c0,0.1,0.2,0.3,0.3,0.3C88.3,148.3,88.4,148.1,88.8,147.9z   M405.5,140.5c-0.2-0.2-0.3-0.4-0.5-0.5c0,0-0.3,0.2-0.3,0.3c0,0.2,0.2,0.3,0.3,0.5C405.1,140.8,405.3,140.7,405.5,140.5z   M377.9,145.7c0,0.2,0,0.3,0,0.5c0.3,0,0.6-0.1,0.9-0.1v-0.3C378.4,145.8,378.1,145.7,377.9,145.7z M100.1,140.8c-0.1,0-0.2,0-0.3,0  c0,0.3,0,0.6,0,1c0.1,0,0.2,0,0.3,0C100.1,141.4,100.1,141.1,100.1,140.8z M133.1,175c-0.1-0.1-0.1-0.2-0.2-0.3  c-0.3,0.1-0.6,0.3-0.9,0.4c0,0.1,0.1,0.2,0.1,0.2C132.5,175.3,132.8,175.1,133.1,175z M22.9,117.3c-0.2-0.3-0.3-0.4-0.4-0.6  c-0.1,0.1-0.4,0.2-0.3,0.2c0.1,0.2,0.2,0.4,0.3,0.5C22.5,117.5,22.7,117.3,22.9,117.3z M256.9,161.8c0,0.1-0.1,0.3-0.1,0.4  c0.3,0,0.7,0.1,1,0.1l0.1-0.3C257.5,162,257.2,161.9,256.9,161.8z M77.1,133c-0.2-0.2-0.4-0.4-0.5-0.4c-0.2,0-0.4,0.2-0.5,0.3  c0.1,0.1,0.2,0.3,0.3,0.3C76.6,133.3,76.8,133.1,77.1,133z M78.5,125.8c0.2,0,0.3,0.1,0.5,0.1c0.1-0.3,0.1-0.6,0.2-0.9  c-0.2,0-0.4-0.1-0.5-0.1C78.6,125.3,78.6,125.6,78.5,125.8z M441.9,129.3c0.1,0.1,0.3,0.2,0.4,0.3c0.1-0.2,0.2-0.4,0.1-0.7  c0-0.2-0.2-0.3-0.3-0.5c-0.2,0.1-0.4,0.2-0.5,0.4C441.7,128.9,441.8,129.2,441.9,129.3z M330.7,157.6c0.7-0.4,1-0.7,0.3-1.5  C330.9,156.8,330.8,157.2,330.7,157.6z M402,132.3c0.1,0,0.1,0.1,0.2,0.1c0.1-0.2,0.3-0.3,0.3-0.5c0-0.1,0-0.3,0-0.5  c-0.1,0-0.2,0-0.3,0C402.2,131.7,402.1,132,402,132.3z M382.9,75.5c-0.2-0.3-0.4-0.5-0.5-0.5c-0.2,0-0.4,0.2-0.5,0.4  c0,0.2,0.2,0.5,0.3,0.5C382.4,75.9,382.6,75.7,382.9,75.5z M362.4,158.8c-0.1,0.1-0.1,0.2-0.2,0.3c0.3,0.2,0.6,0.4,0.9,0.7  c0.1-0.1,0.1-0.2,0.2-0.3C363,159.2,362.7,159,362.4,158.8z M428.2,107.9c0-0.1,0-0.2-0.1-0.3c-0.4,0.1-0.8,0.2-1.2,0.3  c0,0.1,0,0.1,0,0.2C427.4,108,427.8,108,428.2,107.9z M305.3,158.6c-0.1-0.1-0.1-0.1-0.2-0.2c-0.2,0.2-0.4,0.4-0.6,0.5  c0.1,0.1,0.2,0.2,0.3,0.3C305,159.1,305.1,158.9,305.3,158.6z M110.3,58.9c0,0.1,0.1,0.2,0.1,0.3c0.2-0.1,0.5-0.2,0.7-0.4  c0-0.1-0.1-0.2-0.1-0.3C110.7,58.7,110.5,58.8,110.3,58.9z M385.6,58c0,0.1,0,0.3,0,0.4c0.3,0,0.6,0,0.9-0.1c0,0,0-0.3,0-0.4  C386.2,57.9,385.9,57.9,385.6,58z M47.8,105.9c-0.2,0-0.3,0.1-0.5,0.1c0.1,0.3,0.2,0.6,0.3,0.8l0.3-0.1  C47.9,106.4,47.8,106.1,47.8,105.9z M406.6,97.8c0.1-0.2,0.3-0.4,0.3-0.6c0-0.1-0.2-0.2-0.3-0.3c-0.1,0.2-0.3,0.4-0.4,0.6  C406.1,97.5,406.4,97.7,406.6,97.8z M94.9,122.4c0-0.1,0-0.3,0.1-0.4c-0.3-0.1-0.6-0.1-0.9-0.2c0,0.2-0.1,0.4-0.1,0.5  C94.3,122.3,94.6,122.4,94.9,122.4z M14.8,136.3c-0.1-0.1-0.2-0.2-0.3-0.4c-0.3,0.2-0.5,0.5-0.8,0.7c0.1,0.1,0.1,0.2,0.2,0.2  C14.1,136.7,14.4,136.5,14.8,136.3z M252.2,26.5c0-0.2,0-0.3,0-0.5c-0.3,0-0.6,0.1-0.9,0.1c0,0.1,0,0.2,0,0.3  C251.6,26.5,251.9,26.5,252.2,26.5z M261.6,27.1c-0.7,0.5-0.7,0.5-0.2,1.1C261.5,27.9,261.5,27.6,261.6,27.1z M88.3,141.2  c-0.2-0.2-0.3-0.4-0.3-0.5c-0.1,0.1-0.3,0.2-0.4,0.4c0,0.1,0.2,0.4,0.2,0.4C87.9,141.5,88.1,141.3,88.3,141.2z M407.2,136.3  c-0.2-0.1-0.3-0.3-0.4-0.3c-0.1,0-0.2,0.2-0.3,0.3c0.1,0.1,0.2,0.3,0.3,0.3C406.9,136.5,407,136.4,407.2,136.3z M346.9,153.8  c-0.2-0.1-0.3-0.2-0.4-0.3l-0.2,0.2c0,0.1,0.1,0.3,0.2,0.4C346.6,154,346.7,153.9,346.9,153.8z M378.2,98.1c0.3-0.4,0.5-0.5,0.5-0.7  c0-0.2-0.3-0.3-0.4-0.4c-0.1,0.1-0.3,0.2-0.3,0.3S378.1,97.6,378.2,98.1z M352.3,161.2c0.1-0.1,0.2-0.2,0.3-0.3  c-0.2-0.2-0.5-0.4-0.7-0.6c-0.1,0.1-0.1,0.1-0.2,0.2C351.9,160.7,352.1,160.9,352.3,161.2z M105.5,126.6c-0.3-0.3-0.4-0.4-0.5-0.4  s-0.2,0.2-0.4,0.3c0.1,0.1,0.2,0.4,0.4,0.4C105,126.8,105.2,126.7,105.5,126.6z M91.2,125.5c-0.1-0.1-0.1-0.2-0.1-0.3  c-0.1,0.1-0.3,0.1-0.4,0.2c0,0,0.1,0.2,0.1,0.4C91,125.7,91.1,125.6,91.2,125.5z M104.4,61.7c-0.1-0.1-0.1-0.2-0.2-0.3  c-0.2,0.1-0.4,0.3-0.6,0.4l0.1,0.2C104,61.9,104.2,61.8,104.4,61.7z M332.9,156.5c0.1,0.1,0.1,0.2,0.2,0.3c0.2-0.2,0.5-0.3,0.7-0.5  c-0.1-0.1-0.1-0.2-0.2-0.3C333.4,156.2,333.2,156.3,332.9,156.5z M87.3,125.1c-0.1-0.2-0.2-0.3-0.3-0.5c-0.1,0.1-0.3,0.2-0.3,0.3  c0,0.1,0.1,0.3,0.3,0.4C87,125.3,87.2,125.2,87.3,125.1z M370.3,98.3c0.2-0.7,0.3-0.9,0.3-1s-0.2-0.2-0.3-0.3  c-0.1,0.2-0.2,0.4-0.3,0.6C370,97.6,370.1,97.8,370.3,98.3z M383,58c-0.2-0.1-0.4-0.3-0.5-0.3c-0.2,0.1-0.2,0.3-0.4,0.4  c0.1,0.1,0.3,0.2,0.4,0.2C382.7,58.3,382.8,58.1,383,58z M82.7,160.3c-0.1-0.2-0.2-0.4-0.3-0.5h-0.3c0,0.1-0.1,0.3,0,0.4  C82.2,160.3,82.4,160.3,82.7,160.3z M140.3,53c-0.2,0.2-0.3,0.3-0.4,0.5c0,0,0.2,0.3,0.3,0.3c0.2-0.1,0.3-0.2,0.5-0.3  C140.6,53.3,140.5,53.2,140.3,53z M156.4,171c0,0.2,0.1,0.3,0.1,0.5c0.3-0.1,0.6-0.2,0.9-0.2c0-0.1,0-0.3-0.1-0.4  C157,170.9,156.7,171,156.4,171z M23.8,121.5c-0.1,0.3-0.2,0.4-0.3,0.6l0.2,0.2c0.2-0.1,0.3-0.3,0.5-0.4  C24.1,121.8,24,121.7,23.8,121.5z M397.6,121.2c-0.2-0.1-0.3-0.3-0.4-0.3c-0.1,0-0.2,0.2-0.3,0.3c0.1,0.1,0.3,0.3,0.5,0.3  C397.3,121.6,397.4,121.3,397.6,121.2z M410.1,50c-0.2-0.2-0.4-0.3-0.5-0.4l-0.3,0.3c0.1,0.2,0.2,0.3,0.4,0.4  C409.7,50.4,409.9,50.2,410.1,50z M168.9,49.2c-0.2-0.1-0.3-0.3-0.4-0.3s-0.2,0.2-0.4,0.3c0.1,0.2,0.3,0.3,0.4,0.5  C168.7,49.5,168.8,49.4,168.9,49.2z M164.2,49.6c0.2,0,0.3,0.1,0.5,0.1c0-0.3,0-0.6,0-0.9c-0.1,0-0.2,0-0.2,0  C164.4,49.1,164.3,49.4,164.2,49.6z M282,36.3c0-0.1,0.1-0.2,0.1-0.3c-0.3-0.1-0.5-0.1-0.8-0.2c0,0-0.1,0.2-0.1,0.3  C281.4,36.1,281.7,36.2,282,36.3z M400.8,96.1c-0.2-0.2-0.3-0.3-0.4-0.3c-0.1,0-0.3,0.2-0.3,0.3c0,0.1,0.2,0.3,0.3,0.3  C400.5,96.4,400.6,96.2,400.8,96.1z M72.2,141.3c-0.2-0.1-0.4-0.3-0.5-0.3c-0.1,0-0.2,0.2-0.3,0.3c0.1,0.1,0.2,0.3,0.4,0.3  C71.9,141.6,72,141.4,72.2,141.3z M283.3,33.8c0,0.1,0,0.2,0,0.2c0.2,0,0.5,0,1.1,0C283.8,33.9,283.6,33.9,283.3,33.8z M106,125  c0.2,0.1,0.3,0.2,0.4,0.3l0.2-0.2c-0.1-0.1-0.2-0.3-0.3-0.4C106.2,124.7,106.1,124.8,106,125z M64.1,84.2c-0.2-0.2-0.3-0.3-0.4-0.5  c-0.1,0.1-0.3,0.2-0.4,0.4c0,0.1,0.2,0.4,0.2,0.4C63.8,84.5,63.9,84.4,64.1,84.2z M239.2,33.2c-0.1-0.1-0.1-0.3-0.1-0.3  c-0.1,0-0.3,0.1-0.4,0.1c0,0.1,0.1,0.3,0.1,0.3C238.9,33.3,239.1,33.3,239.2,33.2z M91.2,106.4c-0.2-0.2-0.3-0.3-0.4-0.4  c-0.1,0.1-0.2,0.2-0.2,0.3c0,0,0.1,0.2,0.2,0.2C90.9,106.6,91,106.5,91.2,106.4z M287.7,27.2c0.1,0,0.2-0.1,0.3-0.1  c-0.1-0.3-0.2-0.5-0.3-0.8c-0.1,0-0.2,0.1-0.3,0.1C287.4,26.7,287.6,27,287.7,27.2z M76.2,80c-0.2-0.2-0.3-0.4-0.4-0.5l-0.3,0.1  c0,0.2,0.1,0.4,0.1,0.6C75.8,80.1,75.9,80.1,76.2,80z M112,167c-0.1,0.2-0.3,0.4-0.3,0.4c0.1,0.1,0.3,0.2,0.4,0.4  c0.1-0.1,0.2-0.3,0.2-0.4C112.3,167.2,112.2,167.1,112,167z M124.4,125.4c0.2-0.1,0.3-0.1,0.3-0.2c0-0.1-0.1-0.3-0.1-0.4  c-0.1,0-0.3,0.1-0.3,0.1C124.3,125.1,124.4,125.2,124.4,125.4z M79.8,128.7c-0.2-0.1-0.3-0.3-0.4-0.3s-0.3,0.2-0.3,0.3  c0,0.1,0.2,0.3,0.3,0.3C79.5,129.1,79.7,128.9,79.8,128.7z M422.5,97.3c0,0.1,0.1,0.2,0.1,0.3c0.1,0,0.2-0.1,0.3-0.1  c-0.1-0.1-0.1-0.2-0.2-0.4C422.7,97.2,422.6,97.3,422.5,97.3z M251.9,162.6c0-0.1,0-0.2,0-0.2c-0.2,0-0.5,0-0.7,0c0,0.1,0,0.1,0,0.2  C251.4,162.6,251.6,162.6,251.9,162.6z M419.1,97c-0.3,0-0.5-0.1-0.6-0.1s-0.1,0.2-0.1,0.3c0,0.1,0.2,0.2,0.3,0.2  C418.7,97.3,418.8,97.2,419.1,97z M414.9,97.3c-0.1-0.1-0.3-0.3-0.4-0.3s-0.3,0.3-0.3,0.3c0.1,0.2,0.2,0.3,0.4,0.4  C414.7,97.6,414.8,97.4,414.9,97.3z M34.2,117.7c0.1,0,0.2,0.1,0.3,0.1c0.1-0.2,0.1-0.5,0.2-0.7c0,0-0.2-0.1-0.3-0.1  C34.3,117.2,34.2,117.4,34.2,117.7z M357.8,158.4c-0.2,0.1-0.3,0.1-0.4,0.2c0.1,0.1,0.2,0.3,0.3,0.3c0,0,0.2-0.1,0.3-0.1  C358,158.7,357.9,158.5,357.8,158.4z M359.5,129.7c0.2-0.1,0.3-0.1,0.4-0.1c-0.1-0.1-0.1-0.3-0.2-0.4c0,0-0.2,0.1-0.3,0.1  C359.4,129.4,359.4,129.6,359.5,129.7z M229.7,163.7c0-0.1,0-0.2-0.1-0.3c-0.2,0.1-0.4,0.2-0.6,0.2v0.1  C229.3,163.8,229.5,163.8,229.7,163.7z M398.3,97.8c0.1,0.1,0.2,0.1,0.3,0.2c0-0.2,0.1-0.3,0.1-0.5s-0.1-0.3-0.1-0.5  c-0.1,0.1-0.4,0.1-0.4,0.2C398.2,97.4,398.3,97.6,398.3,97.8z M387.5,59.8c-0.1-0.1-0.1-0.2-0.2-0.2c-0.1,0-0.2,0.1-0.3,0.1  c0.1,0.1,0.2,0.2,0.3,0.3C387.4,59.9,387.5,59.9,387.5,59.8z M31,132.4c0.2,0.1,0.3,0.3,0.4,0.3s0.2-0.2,0.3-0.3  c-0.1-0.1-0.2-0.3-0.3-0.3S31.2,132.3,31,132.4z M126.3,150.8c-0.1-0.2-0.1-0.4-0.2-0.5s-0.3,0.1-0.4,0.1c0,0.1,0.1,0.3,0.2,0.4  C125.8,150.9,126,150.8,126.3,150.8z M52.2,148.5c-0.2-0.1-0.3-0.3-0.4-0.3c-0.1,0-0.3,0.2-0.3,0.3c0,0.1,0.2,0.3,0.3,0.3  C52,148.8,52.1,148.7,52.2,148.5z M92.2,148.1c-0.2-0.1-0.3-0.1-0.4-0.2c0,0-0.1,0.2-0.2,0.2c0.1,0.1,0.3,0.2,0.4,0.2  C92,148.4,92.1,148.3,92.2,148.1z M378,53.5c0.1,0.2,0.2,0.2,0.2,0.3c0.1-0.1,0.3-0.2,0.3-0.3l-0.1-0.3  C378.3,53.3,378.1,53.4,378,53.5z M374.3,97.9c0.1-0.2,0.3-0.3,0.3-0.4c0-0.1-0.1-0.3-0.2-0.4c-0.1,0.1-0.3,0.3-0.4,0.4  C373.9,97.5,374.1,97.6,374.3,97.9z M384.7,53.1c-0.1-0.1-0.1-0.2-0.2-0.2s-0.2,0.1-0.3,0.1c0.1,0.1,0.2,0.2,0.3,0.3L384.7,53.1z   M75,145.3c0.4,0.1,0.6,0.2,0.6,0.2c0.1-0.1,0.2-0.3,0.3-0.4C75.7,145.1,75.5,145.2,75,145.3z M382.2,52.1c-0.1,0.1-0.1,0.2-0.2,0.3  c0.2,0.1,0.5,0.1,0.7,0.2c0-0.1,0-0.1,0.1-0.2C382.6,52.3,382.4,52.2,382.2,52.1z M366.3,96.8c-0.2,0.2-0.4,0.3-0.4,0.4  c0,0.1,0.1,0.3,0.1,0.5c0.1,0,0.4-0.1,0.4-0.1C366.4,97.4,366.4,97.2,366.3,96.8z M362.2,97.8c0.1-0.2,0.3-0.4,0.3-0.5  c-0.1-0.2-0.3-0.3-0.4-0.4c-0.1,0.1-0.2,0.3-0.2,0.4C361.9,97.6,362.1,97.7,362.2,97.8z M110.8,108.3c-0.2-0.1-0.3-0.3-0.4-0.3  s-0.2,0.1-0.2,0.2c0,0.1,0.1,0.3,0.2,0.4C110.4,108.5,110.6,108.5,110.8,108.3z M273.9,35.9c-0.3-0.1-0.4-0.2-0.5-0.2  c-0.1,0-0.2,0.2-0.3,0.3c0.1,0.1,0.3,0.2,0.4,0.2S273.7,36.1,273.9,35.9z M348.3,35.7c-1.5-0.2-3.1-0.4-4.6-0.6  c-0.2,0-0.4,0.1-0.6,0.2c-0.5-0.2-1.1-0.4-1.6-0.6c0,0.2-0.1,0.3-0.1,0.5c0.6,0,1.2,0.1,1.7,0.1c-0.1,1.2-1,0.8-1.6,0.8  c-1.9-0.1-3.7-0.3-5.6-0.5c-0.8-0.1-1.6-0.2-2.6-0.3c0.5-1.2,1.4-0.6,2.1-0.7c0.8,0,1.6,0,2.7,0c-1.9-0.8-6.1-1.1-8-0.6  c0.6,0.9,1.9-0.1,2.6,0.9c-0.4,0.1-0.6,0.3-0.8,0.3c-1.2,0-2.5-0.1-3.5,0.9c-0.2,0.2-0.9,0.3-1,0.2c-0.8-0.9-1.8-0.6-2.8-0.7  c-1.4-0.2-1.7-0.5-1.9-2c0-0.3-0.3-0.6-0.4-0.9c-0.5-0.9-1.1-1.7-0.9-2.8c0.1-0.7-0.1-1.1-0.6-1.5c-0.2-0.2-0.3-0.5-0.4-0.8  c1.4,0.3,2,1.2,2.5,3.3c0.5-1,0.5-1,2.2-1.7c-0.7-0.8-0.7-1.1,0-1.2c0.8-0.1,1.8-0.8,2.3,0.5c0.9-0.4,1.7,1.1,2.7,0.2  c0.9,0.9,2.2,0.4,3.1,0.9c0.8,0.4,1.5,0.4,2.3,0.3c1.1,0,2,0.2,2.9,1c1.1-1,2,0.1,3,0.4c0.2,0,0.3,0.3,0.4,0.2  c2-0.7,3.3,0.4,4.6,1.6c0.7,0.6,1.2,1.4,1.7,2.2C348.4,35.3,348.3,35.5,348.3,35.7L348.3,35.7z M329.5,31.3c0.1-0.1,0.3-0.1,0.4-0.2  c0-0.3-0.1-0.7-0.1-1c-0.1-0.7-0.4-0.5-0.8-0.3C329.1,30.3,329.3,30.8,329.5,31.3z M337.1,31.8c0,0.1,0.1,0.3,0.1,0.4  c0.2-0.1,0.5-0.2,0.7-0.3c0-0.1-0.1-0.2-0.1-0.3C337.6,31.7,337.4,31.7,337.1,31.8z M334.7,16c0.4-0.7,0.8-1.6,1.4-2.4  c1.8-2.5,6.1-2.6,8-0.2c0.2,0.2,0.2,0.5,0.4,0.8c0.3,0.7,0.6,1.3,1,1.9c0.2,1.2-0.1,2.4-0.9,3.4c-0.2,0.3-0.5,0.6-0.8,0.8  s-0.8,0.2-0.9,0.5c-1.1,1.6-2.8,1.1-4.2,0.8c-1.7-0.4-2.4-1.9-3.1-3.4C335.2,17.6,335,16.9,334.7,16z M333.6,162.4  c0.1,0.2,0.3,0.6,0.5,1.1c0.2-0.7,0.3-1.3,0.4-1.9c0.8,0.1,1.6,0.2,2.5,0.3c0.5,0.6,0.3,1.8,1.6,1.8c-0.5,0.5-1,1-1.4,1.4  c-1.2-0.1-2.5-0.2-3.7-0.3c-0.1,0-0.2,0-0.3,0c-2.3,0.8-2.7,0.9-5.3,0.6c0.3-0.8,0.2-1.7,1.3-2.1c-0.7,0-1.3,0.1-2.1,0.1  c0,0.3,0,0.5,0.1,0.7c0.4,1.1,0,2.1-1,2c-0.7-0.1-1.1,0.1-1.6,0.4c-0.5,0.2-1.2,0.1-1.8,0.2c-0.4,0-0.8,0-1.2,0  c-0.3,0-0.5-0.2-0.8-0.3c0.1-0.1,0.2-0.3,0.3-0.4c0.4-0.1,0.7-0.2,1.1-0.3c0-0.3,0-0.7,0-1.1c-0.6-0.1-1.2-0.3-1.7-0.2  c-0.6,0-1.2,0.2-1.3-1c1.4-0.2,2.8-0.2,4.2-0.6c1.4-0.3,2.7-0.5,4.1-0.4c1,0.1,2,0,2.9-0.5c0.4-0.2,1-0.1,1.5,0  C332.3,162,332.8,162.2,333.6,162.4z M332.8,163.6c0-0.1,0-0.1,0-0.2c-0.3,0-0.6,0.1-1,0.1c0,0.1,0,0.1,0,0.2  C332.2,163.7,332.5,163.7,332.8,163.6z M403.8,164.4c0.1-0.3,0.1-0.6,0.2-1.2c1.5,1.3,2.3,2.7,2.3,4.5c0,1.7-0.5,3.4-1.4,4.9  c-0.9,1.3-2.3,1.3-3.1-0.1c-0.6-1-1.4-2-1.6-3.1c-0.2-1.2,0.1-2.5,0.1-4c-0.1-0.3-0.5-0.9-0.8-1.5c-0.3-0.8,0.1-1.4,0.8-1.8  c0.7-0.4,1.6-0.1,2,0.5c0.4,0.6,0.7,1.2,1.1,1.9C403.5,164.5,403.7,164.5,403.8,164.4c0,0.4-0.2,0.9,0.6,1  C404.7,164.8,404.6,164.5,403.8,164.4z M318.1,164.7c-1,0.2-2,0.5-3.1,0.7c0.5,0.3,0.9,0.6,1.6,1.1c-1.3,0.5-2.2,1.1-3.2,1.4  c-0.5,0.1-1.1-0.9-1.5,0.3c-0.3-0.5-0.5-0.7-0.8-1.1c-0.2,0.4-0.4,0.7-0.6,1.1c-2-1-3.3,0.4-4.8,1.3c-1-0.2-2.2-0.5-3.4-0.8  c-0.2-1.4,1-1.3,1.9-1.7c-1.1-0.8-1-1.6-0.2-2.5c0.8-0.1,1.7,0.6,2.5-0.1c0.1,0,0.4,0.1,0.4,0.2c0.5,0.7,1,0.5,1.7-0.1  c0.2,0.9,0.3,1.4,0.4,2c0.1,0,0.3,0,0.4,0c0-0.3,0.1-0.7,0-1c-0.1-0.5-0.3-1,0.3-1.2c0.4-0.1,0.8,0.2,1.2,0.4  c0.2,0.1,0.4,0.3,0.5,0.5c0.7,1.3,1.7,1.3,2.8,0.8c-0.8-0.6-0.8-0.6-1.9-0.7c-0.1-1.2-0.1-1.2,0.9-1.2c0.9,0,1.7,0.1,2.6-0.2  c0.7-0.2,1.6,0.3,2.3,0.6C318.2,164.3,318.1,164.6,318.1,164.7L318.1,164.7z M306.9,166.3c0,0.1-0.1,0.2-0.1,0.3  c0.3,0.1,0.5,0.1,0.8,0.2c0,0,0.1-0.2,0.1-0.3C307.5,166.4,307.2,166.4,306.9,166.3z M471.1,97c-0.7,0-1.3,0.2-1.9,0.1  c-5.2-0.3-10.5-0.5-15.7-1c-1.7-0.2-3.3,0-4.9-0.1c-0.7,0-1.4-0.3-2.3-0.6c1-1,2-1.1,3-1.1c2.8,0.1,5.5,0.1,8.2,0.4  c1.9,0.3,3.8,0,5.7,0.2c2.3,0.2,4.6,0.4,6.8,0.7C470.5,95.7,471.1,95.9,471.1,97z M292.1,16.5c0-0.8-0.1-1.4,0-2.1  c0.3-1.8,1.8-2.6,3.5-1.8c0.3,0.2,0.7,0.3,1,0.4c1.5,0.9,1.9,1.8,1.4,3c-0.7,1.5-2.1,2.1-3.6,1.6C293.7,17.3,293,16.9,292.1,16.5z   M283,169c-0.7-0.3-1.4-0.5-2.2-0.8c-0.1-0.8,0.1-1.4,1.1-1.3c0.2,0,0.5,0,0.7,0c1.9-0.3,2.2,0,2.3,1.8c0.5-0.6,0.6-0.9,0.9-2  c1.2-0.1,2.5-0.3,3.7-0.3c0.8,0,0.8,0.1,1.2,1.4c-0.6,0-1.1-0.1-1.6-0.1c0,0.1-0.1,0.2-0.1,0.3c0.4,0.1,0.8,0.1,1.2,0.3  c0.3,0.1,0.7,0.4,0.7,0.6c0,0.6-0.5,0.6-0.9,0.4c-0.1-0.1-0.3,0-0.6,0c-0.2,0.5-0.4,0.9-0.7,1.5c-0.6-0.4-1.1-0.9-1.8-0.3  c-0.1,0.1-0.5,0.1-0.6,0c-0.5-0.6-1.1-0.4-1.8-0.4c-0.2,0-0.4-0.5-0.6-0.7C283.7,169.2,283.4,169.1,283,169z M62.2,179.4  c0.2,0.1,0.4,0.3,0.7,0.4c-1,1.5-2.4,1.9-4.1,1.7c-0.4,0-0.7-0.5-0.9-0.9c-0.5-0.6-1.9,0.5-2-1.1c0.8-0.3,1.9,0,2.4-0.9  c0.1-0.1,0.6,0.1,0.8,0c0.7-0.1,1.4-0.2,2.1-0.3c0.4-0.1,0.9-0.3,1.3-0.2c0.6,0.1,0.9-0.1,1.3-0.4c0.4-0.3,0.9-0.4,1.3-0.5  c0.8-0.3,1.4,0,1.8,0.7c0.2,0.4,0.5,0.7,0.8,1.2c-0.4,0.4-0.6,0.9-1.2,0.1c-0.1-0.2-0.4-0.5-0.6-0.5c-1.1,0.1-2.3,0.3-3.4,0.4  C62.3,179.2,62.2,179.3,62.2,179.4z M171.2,183.3c2.2-1,4.3-1.8,6.8-1.3c0.5,0.1,1.2-0.1,1.7-0.4c1.5-0.7,2-0.5,2.8,1  c0.2,0.4,0.7,0.6,0.9,0.7c-0.1,0.3,0,0.4-0.1,0.4c-0.4,0.1-0.9,0.2-1.4,0.4c-0.2-0.2-0.4-0.4-0.6-0.5c-0.4-0.3-0.8-0.7-1.2-0.9  c-0.2-0.1-0.6-0.2-0.8,0c-0.9,0.7-2.2,0-3.2,1c1,0.6,1.8,0.1,2.4-0.3c0.8-0.4,1.2-0.2,1.6,0.3c-0.7,0.8-2.5,1.4-3.6,1.2  c-1.1-0.1-1.1-0.1-1.6-0.9C173.5,183.8,172.3,183.5,171.2,183.3L171.2,183.3z M143.8,182.3c0-0.4-0.1-0.8-0.1-1.3  c-0.6-0.1-1.2-0.2-1.9-0.3c0.2-0.4,0.3-0.7,0.5-1.2c-0.6,0.1-1,0.1-1.7,0.2c0.3,0.5,0.4,0.9,0.6,1.2c-0.6,0.9-1.5,0.5-2.2,0.4  c-0.8-0.1-1.5-0.2-2.1,0.3c-0.2,0.1-0.5,0.3-0.6,0.3c-0.4-0.1-0.7-0.3-1-0.5c0.2-0.3,0.3-0.7,0.6-0.8c2.6-1,5.1-1.9,7.7-2.8  c0.5,0.7,0.7,1.3,1.1,1.7C146.2,180.9,146,181.5,143.8,182.3z M297.5,167.3c-0.2,0-0.5,0-0.8-0.1c0,0.3,0,0.6,0,0.9  c0.1,0.7,0.1,1.2-0.9,1.4c-0.7,0.2-1.3,0.8-2.1,1.4c-0.2-0.8-0.3-1.3-0.4-2.1c-0.4,0.5-0.6,0.8-1.1,1.5c0-0.9-0.1-1.4-0.1-2.1  c0.6-0.1,1-0.2,1.5-0.3c0-0.1,0-0.2,0-0.4c-0.5-0.1-0.9-0.3-1.5-0.4c0-0.8-0.1-1.2,1.1-1.2c0.8,0,1.7-0.2,2.5-0.2  c1.1-0.1,1.9,0.3,2.8,1C298.1,166.9,297.8,167.1,297.5,167.3L297.5,167.3z M414.3,156.8c0.3-0.1,0.6-0.2,0.8-0.4  c0.7-0.5,1.6-0.2,1.9,0.3s1,1.1,0.3,2c-0.6,0.9-0.7,2.2-1.1,3.5c-0.4-0.2-0.7-0.4-0.9-0.6c-0.3-0.3-0.5-0.7-0.7-1  c-1.5-2-1.5-2-3.9-1.9c0-0.2,0.1-0.4,0.1-0.7c0.9,0,1.8,0,2.5,0C413.8,157.8,412.8,156.4,414.3,156.8L414.3,156.8z M441.5,154.8  c-2,1.8-4,0-6,0.4c-0.2-2.4,0.9-3.4,3-3c0.9,0.1,1.7,0.3,2.6,0.5c0.2,0,0.3,0.2,0.5,0.3C441.6,153.5,441.5,154.1,441.5,154.8z   M437.6,147.9c0.1-0.7,0-1.4,0.2-1.9s0.7-1.2,1.2-1.4c0.4-0.1,1.3,0.3,1.5,0.7c0.3,0.5,0.1,1.2,0,1.8c-0.1,0.3-0.4,0.6-0.7,0.8  c-0.8,0.6-1.6,0.9-2,2c-0.2,0.4-1.4,0.6-2.2,0.6c-0.7,0-0.9-1.1-0.4-1.7C435.8,148.1,436.5,147.6,437.6,147.9z M212.5,176.6  c-0.5,0.9-0.9,1.5-1.3,2.2c-0.4,0.8-1.7,1.3-2.5,1c-0.4-0.2-0.9-0.3-1.4-0.4c0.1-0.4,0.2-0.9,0.4-1.5c-1.5-0.6-2.6,1-4.1,0.6  c0-0.1-0.1-0.4,0-0.4c1.1-0.6,2.1-1.9,3.7-1.1c0.1,0.1,0.4,0.1,0.5,0.1C209.2,175.9,210.7,176.5,212.5,176.6z M249.8,166.2  c0.2-0.3,0.3-1,0.5-1c1.9-0.3,3.8-1.1,5.9-0.2c-0.5,0.8-0.9,1.7-1.6,2.8c-0.2-0.7-0.3-1.2-0.4-1.6c-0.1,0-0.2,0-0.2,0  c-0.1,0.4-0.2,0.7-0.3,1.2c-1.5,0.3-3.1,0.7-4.7,1C248.5,167.2,249.3,166.8,249.8,166.2c0,0.3,0,0.6,0,0.9c0.6-0.2,1.1-0.3,1.6-0.4  c0-0.1,0-0.2,0-0.3C250.9,166.3,250.3,166.3,249.8,166.2z M417.5,164.3c1.1,0,1.8,0.6,1.8,1.7c0,1.3-1,2.5-2.2,2.6  c-1.2,0-1.8-0.6-1.8-1.9C415.3,165.3,416.1,164.3,417.5,164.3z M331,13.1c0.2-1.8,1.2-2.8,2.9-3c0.7-0.1,1.3,0.2,1.5,0.9  c0.4,1.2-0.8,3-2,3.2c-0.7,0.1-1.1-0.2-1.5-0.7C331.7,13.3,331.4,13.3,331,13.1z M266.2,162.7c-1.1,0-1.8,0-2.7,0  c0.2-0.4,0.4-0.9,0.4-0.9c1.1,0.5,2-0.2,3.1-0.5c0.1,0.6,0.1,1,0.1,1.5c0.9,1,2.1-0.5,3.1,0.3c-0.5,1.2-2.3,0.1-2.7,1.5  c0.4-0.1,0.8-0.1,1.3-0.2c-0.6,1-1.4,1.4-3.1,1.5C264.9,164.1,264.4,163.9,266.2,162.7z M469.5,130.2c0,1.6-1.1,2.2-2.5,1.5  c-1.3-0.6-1.8-2.5-1-3.7c0.4-0.7,1.1-0.7,1.7-0.4C468.7,127.8,469.5,129.2,469.5,130.2z M161.9,179.7c1.7,0.1,3.4,0.1,5.1-0.4  c0.9-0.3,2,0,2.9,0c0.4,1.8,0.3,2-1.2,2.1c-1.1,0.1-2.1,0.1-3.2,0.1c-0.2,0-0.4,0.1-0.5,0c-0.5-0.3-0.9-0.7-1.4-0.9  c-0.5-0.1-1.1,0-1.8,0.1C161.8,180.3,161.9,180,161.9,179.7L161.9,179.7z M406.3,183.7c1.1,0,1.9,0.8,1.9,1.9c0,1.1-1,2.1-2,2.1  c-1.2,0-1.8-0.7-1.8-1.9C404.5,184.5,405.2,183.7,406.3,183.7z M258.8,165c0.7-0.6,1.5-0.7,2.3-1.2c0.5-0.3,1.4-0.1,2.4-0.1  c-0.4,0.8-0.6,1.2-0.8,1.7c0.3,0.1,0.7,0.2,1.1,0.4c0.2,1-1.9,1.2-4,0.6c-0.2,0.4-0.5,0.7-0.8,1.1c-0.8-0.6-0.7-1.3-0.6-2  C258.5,165.3,258.6,165.2,258.8,165z M420.6,185.9c-0.1,0.8-0.6,1.2-1.4,1.2c-1.3-0.1-2.5-1.4-2.5-2.7c0-0.9,0.4-1.3,1.3-1.3  C419.6,183,420.8,184.3,420.6,185.9z M412.8,162.7c0,1.1-1.3,2.4-2.4,2.4c-1,0-1.6-0.6-1.6-1.5c0.1-1.4,1.2-2.5,2.5-2.4  C412.4,161.2,412.8,161.7,412.8,162.7z M58.4,129.5c-1-0.3-1-0.3-1.8-1.5c1.1-0.4,2.2-0.9,3.4-1.2c0.2-0.1,0.5,0.1,0.9,0.3  c-0.3,0.5-0.6,0.9-0.9,1.4c1.3,0.5,1.4,0.4,1.5-0.6c0.1-0.4,0.1-0.9,0.2-1.6c0.4,0.3,0.6,0.4,0.7,0.6c1.4,1.6,1.3,1.8-0.8,2.4  c-0.7,0.2-1.4,0.6-2.1,0.9C59.3,129.2,59.2,129.1,58.4,129.5L58.4,129.5z M297.5,167.3c1.4,0.2,1.4,0.2,2.2-0.4  c-0.3-0.4-0.7-0.8-1.2-1.5c1,0.1,1.7,0,2.3,0.1c0.5,0.1,1,0.4,1.4-0.2c0-0.1,0.6,0.2,0.9,0.3c0,0.1,0,0.3,0,0.4  c-0.6,0.3-1.3,0.6-2.1,0.9c0.2,0.3,0.4,0.5,0.5,0.8c0.3,0.6,0,1.1-0.6,1.2c-0.3,0.1-0.7-0.3-1-0.5c-0.3,0.8-0.9,0.3-1.3,0.2  c-0.4-0.1-0.9-0.3-1.2-0.6C297.3,168,297.5,167.5,297.5,167.3L297.5,167.3z M460.3,142.4c1.2,0,2.2,1,2.2,1.9c0,0.7-1,1.4-2,1.4  s-2.1-1.1-2.1-2C458.5,143,459.4,142.4,460.3,142.4z M474,176.7c-0.5-0.2-1-0.3-1.1-0.5c-0.1-1-0.2-2.1-0.1-3.1  c0.1-0.8,0.8-1.2,1.5-1.2c0.5,0,1,0.2,1.4,0.5c0.5,0.4,0.5,0.9,0,1.4c-0.4,0.4-1,0.7-1.2,1.1C474.3,175.3,474.2,176,474,176.7z   M430.3,148.3c-0.4,0-0.6,0-0.8,0c-0.7-0.1-1.4,0-1.6-1c-0.1-0.9,0.2-1.3,1-1.6c0.3-0.1,0.6-0.6,0.8-0.9c0.4-0.5,0.9-0.6,1.4-0.3  s0.5,0.7,0.2,1.2C430.9,146.6,430.6,147.5,430.3,148.3z M73.1,57.5c-1-0.7-1.1-1.8-1-3c0.1-0.7,0.7-1.1,1.2-0.8  c0.6,0.4,1.3,0.9,1.6,1.5C75.5,56.5,75,57.1,73.1,57.5z M395.7,153.5c0.3,1.7,0.5,3.1,0.8,4.5c-0.8,0.5-1.7,0-2.5-0.3  C393.4,155.9,394.1,154.6,395.7,153.5z M7.4,139.8c-0.2,0.7-0.3,1.2-0.5,1.3c-1.9,1.1-3.9,2.1-6.3,2.2  C1.2,141.5,3.4,141.3,7.4,139.8z M480.6,187.7c0-1.3,0.3-2.1,1.2-2.5c0.3-0.1,0.8-0.2,1,0c0.8,0.6,0.6,1.5,0.5,2.3  c0,0.1,0,0.1-0.1,0.2c-0.3,0.7-0.8,1.4-1.5,1.2C481.1,188.8,480.8,188,480.6,187.7z M436.7,136.7c-0.7-0.1-1.3-0.1-1.7-0.2  c-0.4-0.8-0.8-1.4-1.1-2c-0.2-0.4-0.1-0.8-0.1-1.3c0.4,0,0.8-0.2,1.1-0.1c1.3,0.4,1.6,0.9,1.6,2.5c0,0.1,0.2,0.3,0.3,0.4  C436.8,136.3,436.8,136.4,436.7,136.7z M74.4,175.5c0.2,0,0.5,0,0.7,0c1.3-0.1,1.4,0.1,1,1.6c-0.4-0.1-1-0.3-1-0.2  c-0.6,1-1.6,0.4-2.4,0.6c-0.5,0.1-1.2,0.1-1.4-0.7c-0.1-0.7,0.4-1.4,1.3-1.6c0.1,0.1,0.2,0.2,0.3,0.3c0,0.7,0.5,0.7,1,0.7  C74.4,176.1,74.5,175.9,74.4,175.5L74.4,175.5z M164.9,26.3c0.5,0.4,0.9,0.5,1.1,0.8c0.4,0.6,0.3,1.6,1.2,2c0,0-0.1,0.7-0.3,0.9  c-0.1,0.2-0.6,0.2-0.8,0.1c-0.6-0.3-1.2-0.6-1.8-1c-0.5-0.4-0.8-1-0.5-1.6C164.1,27.1,164.5,26.7,164.9,26.3z M181.9,24.1  c-1.3-1.6-1-2.9,1-3.7C184.3,21.9,184,23.4,181.9,24.1z M352.7,176.2c1.4,0,2.4,0.9,2.4,1.8c0,0.6-0.6,1-1.4,1c-1,0-2.1-1-1.9-1.9  C351.9,176.7,352.5,176.4,352.7,176.2z M140.2,28.7c0,1.2-0.7,2-1.7,2c-0.7,0-1.2-0.5-1.2-1.2c0-1,0.9-2,1.8-2.1  C139.9,27.4,140.2,27.8,140.2,28.7z M339.4,164.4c0-0.6-0.1-1-0.1-1.4c-0.1-0.4-0.1-0.8-0.2-1.2c1.4-0.6,1.4-0.6,3.3,0.1  c-0.5,0.9-1,1.7-1.5,2.6C340.4,164.5,339.9,164.4,339.4,164.4z M450,197.6c1.5,0.2,2,1.1,2.2,2.2c0.2,0.8-0.4,1.2-1.1,1.1  C449.5,200.8,449,199.5,450,197.6z M421.3,158.4c0.9-0.1,1.4,0.3,1.6,1.1c0.1,0.5,0.1,1.2-0.1,1.7c-0.3,0.6-1,0.4-1.6,0.2  c-0.3-0.1-0.7-0.2-1.2-0.5C420.4,160,420.9,159.2,421.3,158.4L421.3,158.4z M466,108.1c-0.9,0-1.6-0.6-1.6-1.2  c0-0.7,0.6-1.5,1.2-1.5c0.8,0,2,1,2,1.7C467.5,107.7,466.9,108.1,466,108.1z M333.3,176.1c0.1-1.1,1-2.2,1.7-1.8  c0.5,0.3,1,0.9,1.1,1.4c0.2,0.7-1.2,1.7-2,1.7C333.5,177.3,333.2,176.9,333.3,176.1z M201.9,23.2c0.4-0.1,0.7-0.1,1-0.2  c0,0,0.1,0.1,0.2,0.1c0,0.1,0,0.3,0,0.4c-0.4,0.6-0.9,1.1-1.5,1.8c-0.6-0.3-1.5-0.5-1.6-1.6c-0.1-0.8,0.2-1.5,0.9-1.6  C201.8,21.9,201.6,22.8,201.9,23.2z M302.4,1.5c0,0.7-0.7,1.3-1.4,1.3s-1.5-0.7-1.5-1.5s0.7-1.5,1.5-1.4  C301.8-0.1,302.5,0.7,302.4,1.5z M141.3,16.6c0.7,0.1,1.1,0.4,1.1,1.1c-0.1,0.9-0.8,1.7-1.7,1.7c-0.6,0-1.2-0.2-1.2-1  C139.5,17.5,140.4,16.5,141.3,16.6z M433.2,180.1c0.2-1,0.8-1.5,1.4-1.3c0.7,0.2,1.2,0.8,1.7,1.4c0.1,0.2-0.1,0.8-0.3,1  c-0.2,0.2-0.8,0.3-1.1,0.1C434.3,181.1,433.8,180.6,433.2,180.1z M357.1,31.1c0,0.5-0.9,1.4-1.4,1.4c-0.7,0-1.4-0.6-1.5-1.2  c0-0.7,0.6-1.4,1.3-1.4C356.3,29.9,357.1,30.5,357.1,31.1z M52.1,129.7c0.1,0.6,0.1,1,0.2,1.4c-1.8,0.4-3.4,0.9-5.2,1.3  c0-0.2-0.1-0.5,0-0.6c0.6-0.4,1.2-1,1.8-1C50.1,130.8,50.9,130,52.1,129.7z M456,164.2c0-0.8,0.5-1.4,1.1-1.4c0.7,0,1.4,1,1.3,1.9  c-0.1,0.7-0.3,1.3-1.1,1.4C456.6,166.1,456,165.2,456,164.2z M359.7,34.1c-0.9,0.5-1.8,0.3-2.7,0c0.2-1.5,0.8-2.2,1.7-2.1  C359.6,32.1,359.8,32.6,359.7,34.1z M189.5,181c0.3-1.6,1.3-0.9,1.9-1.2c0.1,0.1,0.2,0.2,0.3,0.3c-0.3,0.5-0.7,1-1.2,1.8  c-0.1,0.2,0.9,1,0.1,1.5c-0.8-0.6-1.5-1.2-2.1-1.8c-0.2-0.3-0.4-1-0.2-1.2C188.7,179.8,189.1,180.1,189.5,181z M406,158.7  c0.4-0.5,0.8-1.1,1.2-1.5c1.1,0.6,2.1,1,3,1.5c0,0.1-0.1,0.2-0.1,0.3C408.8,158.6,407.5,160.6,406,158.7z M279.6,163.1  c-0.8-0.1-1.5-0.3-2.5-0.4c0.6-0.6,0.9-1.3,1.3-1.4c0.9-0.3,1.8-0.3,2.8-0.5c0,0,0.1,0.2,0.1,0.3c0,0.1-0.1,0.1-0.1,0.2  c-0.4,0.6-0.8,1.1-1.2,1.7C279.9,163.1,279.7,163.1,279.6,163.1z M148.3,30.8c0.2,0.8,0.4,1.5,0.5,2.2c0.1,0.6-0.2,1.1-0.7,1.2  c-0.3,0-0.9-0.4-1-0.7c-0.2-0.7-0.2-1.4-0.1-2.1C147.1,30.8,147.7,30.7,148.3,30.8z M450.7,155c-0.4,1.6-0.9,1.9-2,1.6  c-0.6-0.2-0.9-0.5-0.8-1.1c0.1-0.6,0.6-0.8,1.1-0.9c0.2,0,0.3,0.1,0.5,0.1C449.9,154.8,450.2,154.9,450.7,155z M57,154.4  c-0.3,0.1-0.6,0.2-1,0.3c0.4,0.4,0.7,0.6,1,0.9c-0.2,0.2-0.3,0.4-0.4,0.6c-0.8-0.7-1.5-1.3-2.4-2.1c0.8-1,2.1-0.6,3.1-1.2  c0.1,0.1,0.2,0.2,0.2,0.3c-0.1,0.4-0.2,0.7-0.3,1.1C57.1,154.4,57,154.4,57,154.4z M430.9,141.9c-1-0.2-1.6-0.2-2.1-0.5  c-0.4-0.2-0.6-0.6-0.9-1c0.4-0.3,0.8-0.8,1.2-0.8c0.5,0.1,1.1,0.4,1.5,0.9C430.8,140.8,430.8,141.3,430.9,141.9z M304.2,27.4  c-0.2-0.6-0.3-1.2-0.6-2.2c1.1,0.7,1.9,0.1,2.7,0.6c0.2,0.2,0.9,0,0.8,0.5c-0.1,0.4-0.5,0.9-0.8,1.2c-0.4,0.3-0.9,0.1-1-0.5  c0-0.1-0.1-0.3-0.2-0.5C304.7,26.9,304.5,27.1,304.2,27.4L304.2,27.4z M480.8,129.4c0.6-1.8,1.1-2.1,2.6-1.4  C482.9,129.8,482.5,130.1,480.8,129.4z M165.2,21.7c0.5-0.1,1.1,0.7,1.1,1.4c0,0.6-0.1,1.2-0.9,1.3c-0.7,0.1-1.1-0.3-1.2-1  C164.2,22.6,164.6,21.8,165.2,21.7z M436.9,172.6c1,0,1.8,0.7,1.8,1.4s-0.3,1-1,1c-0.8,0-1.5-0.7-1.4-1.5  C436.4,173.1,436.8,172.8,436.9,172.6z M385.2,170.3c-0.9,1.5-1.7,1.7-2.4,0.9c-0.2-0.3-0.3-0.9-0.2-1.2c0.2-0.3,0.8-0.5,1.2-0.4  C384.2,169.5,384.7,169.9,385.2,170.3z M260.2,170.9c0.2,0.8,0.1,1.4-1,1.6c-0.8,0.1-1.5,0.5-2.3,0.7c-0.3-1.1-0.2-1.2,0.8-1.5  C258.6,171.4,259.4,171.2,260.2,170.9z M483.2,155.2c-0.4,0.6-0.7,1.1-1.1,1.5c-0.1,0.1-0.8-0.1-1-0.4c-0.5-0.6-0.1-1.2,0.3-1.7  c0.2-0.3,0.8-0.6,1-0.6C482.7,154.2,482.9,154.7,483.2,155.2z M153.1,29.5c0.8,0.7,1,1.5,0.7,2.3c-0.1,0.3-0.6,0.6-0.9,0.6  c-0.3,0-0.7-0.4-0.8-0.7C151.9,30.8,152.1,30,153.1,29.5z M472.1,146.7c-0.5-0.7-1-1.2-1.2-1.8c-0.1-0.3,0.2-1,0.5-1.1  c0.3-0.1,0.9,0.2,1.1,0.5C472.9,145,473.2,145.8,472.1,146.7z M210,172.2c-0.5,0.3-1,0.5-1.5,0.7c0,0.4-0.1,0.8-0.1,1.5  c-0.7-0.6-1.2-1.1-1.7-1.5C208,171,208,171,210,172.2z M328,173.8c-0.2,0.2-0.5,0.7-0.9,0.9c-0.5,0.2-1.6-0.8-1.5-1.4  c0.1-0.3,0.5-0.7,0.8-0.7C327.1,172.3,327.9,172.9,328,173.8z M431.5,166.5c-0.2-0.1-0.3-0.1-0.3-0.1c-0.3-0.4-0.6-0.8-1-1.3  c0.7-0.3,0.7-1.6,1.9-1C432.7,164.3,432.4,165.5,431.5,166.5z M455.4,114.5c-0.2,0.1-0.4,0.5-0.7,0.5c-0.7,0.1-1.4-0.8-1.3-1.6  c0-0.3,0.4-0.7,0.7-0.8C454.7,112.4,455.4,113.3,455.4,114.5z M165.1,186c-0.6-0.8-1.1-1.5-1.6-2.2c0.9-0.8,1.8,0.1,2.7,0  c0.1,0.5,0.1,0.9,0.2,1.5c-0.4-0.1-0.7-0.2-0.8-0.2C165.4,185.4,165.3,185.7,165.1,186z M446.6,155.7c0.4,0.8,0.8,1.2,0.9,1.7  c0.2,0.6-0.2,1.3-0.7,1.4s-1.2-0.4-1.1-1.1C445.8,157.1,446.2,156.5,446.6,155.7z M227.6,168.8c0.1,0.4,0.1,0.9,0.2,1.4  c0.5,0,1,0,1.5,0c0,0.1,0,0.1,0.1,0.2c-0.7,0.2-1.4,0.4-2,0.6c-0.5-0.7-0.9-1.3-1.4-2C226.5,168.4,227,168.6,227.6,168.8z   M127.2,38.9c0.1,0.9-0.5,1.4-1.2,1.4c-0.3,0-0.8-0.3-0.9-0.6c-0.2-0.6,0.6-1.5,1.2-1.4C126.7,38.4,127,38.8,127.2,38.9z   M418.2,171.3c-0.1,0.9-0.9,1.5-1.4,1.3c-0.3-0.2-0.6-0.7-0.6-1.1c0.1-0.7,0.6-1.1,1.3-0.9C417.8,170.6,418,171.1,418.2,171.3z   M197.8,182c-0.1-0.5-0.2-0.9-0.4-1.3c1.2-0.3,2.3,0.2,3.4-0.6c0.2,1.1-0.4,1.4-1.1,1.5C199.1,181.7,198.5,181.8,197.8,182z   M343.6,184.7c-0.4,0.4-0.7,0.9-1,0.9c-0.5-0.1-1.1-0.3-1.6-0.6c-0.1-0.1,0-0.9,0.1-0.9c0.5-0.1,1-0.1,1.5,0  C342.9,184.1,343.1,184.3,343.6,184.7z M436.5,197.6c-0.3,0.1-0.6,0.3-0.9,0.4c-0.6,0.1-1.7-0.9-1.6-1.6c0-0.2,0.4-0.6,0.7-0.6  C435.2,195.7,436.1,196.6,436.5,197.6z M434.9,143.7c1.5,0.9,1.7,1.6,1.2,2.4c-0.1,0.2-0.4,0.4-0.5,0.3c-0.2-0.1-0.6-0.3-0.6-0.5  C434.8,145.3,434.9,144.7,434.9,143.7z M273,167.2c0.8,0.4,1.3,0.6,2.2,1c-1.2,0.5-2.1,0.8-3,1.1C271,168.1,273,168.2,273,167.2z   M499.7,163.3c0.2,0.2,0.9,0.5,0.9,0.9c0.1,0.7-0.7,0.9-1.3,0.9c-0.5,0-1-0.2-1-0.8S498.6,163.3,499.7,163.3z M462.7,124  c0.4,0,1,0,1.2,0.2c0.4,0.5,0.7,1.1,0.8,1.7c0.1,0.5-0.7,0.8-1,0.4c-0.5-0.5-0.8-1.1-1.2-1.7C462.5,124.3,462.6,124.2,462.7,124z   M467.4,168.7c1.4,0.1,1.5,0.2,1.5,2C467.4,170.8,467.4,170.8,467.4,168.7z M469.5,187.3c-0.4,0.6-0.6,1.1-1,1.4  c-0.4,0.2-1-0.5-1-1.2c0-0.6,0.2-1.1,0.9-1C468.7,186.6,469,187,469.5,187.3z M72.9,175.4c-0.1-0.1-0.2-0.2-0.3-0.3  c-0.6-0.2-1.2-0.4-2.1-0.6c0.8-0.5,1.4-0.9,2-1.2c0.7,0.8,1.2,1.5,1.8,2.2l0,0C73.9,175.4,73.4,175.4,72.9,175.4z M441.6,142.4  c0.4-0.6,0.6-1.2,1-1.3c0.3-0.1,0.9,0.2,1.2,0.4c0.2,0.1,0.3,0.7,0.2,0.7c-0.4,0.2-0.8,0.4-1.2,0.5  C442.6,142.7,442.3,142.5,441.6,142.4z M152.9,10.1c-0.7,0.4-1.1,0.8-1.5,0.8c-0.6,0.1-0.8-0.5-0.7-1c0-0.6,0.2-1.2,0.9-1  C152,9,152.3,9.6,152.9,10.1z M434.1,156.2c0.8,0.3,1.8-0.2,2.4,0.7c0.3,0.4,0.1,0.7-0.7,1.6C435.5,157.4,434,157.6,434.1,156.2z   M267.2,26c-0.6-0.4-1.1-1-2-0.8c-0.6,0.2-1.1-0.2-1.1-1.2c1.4,0.4,2.6,0.8,4,1.2C267.8,25.6,267.5,25.8,267.2,26L267.2,26z   M281.2,161.3c0-0.1,0.1-0.1,0.1-0.2c0.8-0.4,0.8-0.4,1.9,0.2c-0.2,0.7-0.3,1.4-1.3,1.3C280.9,162.6,281.1,161.9,281.2,161.3z   M141.7,29.9c0.2,0.3,0.4,0.4,0.4,0.6c0.3,0.9-0.3,1.3-1,1.6c-0.2,0.1-0.7-0.1-0.8-0.3c-0.3-0.7,0.2-1.1,0.7-1.4  C141.2,30.2,141.4,30.1,141.7,29.9z M461.2,154.5c0.5,0.8,1,1.1,1,1.6c0,0.3-0.4,0.7-0.6,1.1c-0.4-0.3-1-0.6-1.1-0.9  C460.4,155.9,460.8,155.4,461.2,154.5z M279.6,163.1c0.1,0,0.3-0.1,0.4-0.1c0.7,0.1,1.4,0.3,2.1,0.4c0.6,0.1,0.9,0.3,0.8,1  c-1-0.2-1.9-0.3-2.8-0.5C279.9,163.8,279.8,163.4,279.6,163.1z M19.7,141.8c-0.4,1.2-1.3,0.1-1.9,0.4c-0.6,0.3-1.3,0.4-2.1,0.7  C17.6,141.1,18.2,140.9,19.7,141.8z M312.4,28.3c0.7-0.8,1.3-1.5,1.9-2.3c0.4,0.6,1.2,0.9,0.1,1.4c-0.1,0.1-0.3,0.2-0.3,0.4  C313.9,29.1,313.2,28.6,312.4,28.3z M480.3,163.1c0.4-1.4,1-1.8,1.8-1.5c0.2,0.1,0.5,0.4,0.5,0.6c0,0.2-0.2,0.6-0.4,0.7  C481.6,163,481,163,480.3,163.1z M259,168.1c0.6,0.5,1.3,0.9,1.3,1.2c0,0.4-0.6,0.8-1,1.3C258.7,169.6,258.7,169.6,259,168.1z   M154,26.2c-0.9,0.6-1.5,0.3-1.7-0.5c-0.2-0.5,0-1,0.6-1C153.8,24.6,153.9,25.4,154,26.2z M236.8,172.5c-0.9,1.8-2,1-3.2,0.6  c0.5-0.1,1.1-0.3,1.6-0.4C235.7,172.6,236.3,172.6,236.8,172.5z M445.3,150.5c-0.7,0.5-1.1,0.8-1.5,0.9c-0.2,0.1-0.6-0.4-0.8-0.6  c0.4-0.3,0.7-0.8,1.1-1C444.3,149.8,444.7,150.2,445.3,150.5z M425.6,74.1c-0.9,0.9-1.7,1.4-2.9,1.1c0.2-0.5,0.4-0.8,0.6-1.3  C424,73.9,424.7,74,425.6,74.1z M445.2,111.6c0.5,0.8,0.3,1.5-0.1,2.1c-0.1,0.2-0.4,0.3-0.6,0.3s-0.4-0.3-0.5-0.4  C443.8,112.8,444.1,112.2,445.2,111.6z M163.3,184.5c-0.7,0.4-1.4,0.8-2.1,1.3c-0.1-0.8-0.5-1.6,0.5-1.9  C162.1,183.7,163.1,183.1,163.3,184.5z M464.6,145.6c0.5-0.4,0.9-0.8,1.4-1.3c0.7,0.4,1.1,0.8,0.5,1.4  C466,146.2,465.3,146.5,464.6,145.6z M283.6,162.2c0.3-0.6,0.4-1,0.7-1.3c0.1-0.2,0.5-0.3,0.7-0.3c0.2,0.1,0.4,0.5,0.3,0.7  c0,0.4-0.2,0.8-0.4,1.3C284.5,162.5,284.1,162.3,283.6,162.2z M170.3,179.9c0.8-1.5,1.8-1.3,3.2-1  C172.4,179.5,171.7,180.2,170.3,179.9z M263,171.8c-0.6,0.1-1.1,0.2-1.6,0.2c-0.1-0.9-0.1-1.6-0.2-2.8  C262,170.2,262.4,170.9,263,171.8z M159.5,26.6c-0.6-0.6-0.3-1,0.2-1.4c0.5-0.4,0.9-0.2,1.3,0.2C160.6,26.3,160.6,26.3,159.5,26.6z   M131.9,42.9c-0.5,0.4-0.9,0.7-1.3,1c-0.2-0.2-0.6-0.7-0.5-0.7c0.3-0.4,0.8-0.7,1.2-1.1C131.2,42.2,131.6,42.6,131.9,42.9z M155,36  c-0.4-0.5-0.7-0.8-0.7-1.2c-0.1-0.6,0.4-0.9,0.9-0.8c0.3,0.1,0.6,0.4,0.9,0.6C155.8,35.1,155.5,35.4,155,36z M461.5,138.8  c-1.4-0.3-1.5-1.1-1.6-2c0.4,0,0.9-0.1,1,0C461.1,137.4,461.2,138,461.5,138.8z M51.9,155.6c0.2-1,0.8-1.2,1.6-1.3  c0.2,0.7,0.4,1.3,0.6,2c-0.1,0.1-0.2,0.1-0.2,0.2c-0.3-0.3-0.6-0.7-0.9-1C52.6,155.5,52.3,155.5,51.9,155.6z M438.8,131.5  c0.4,0.6,0.7,0.9,0.7,1.2c0,0.3-0.3,0.7-0.5,1c-0.1,0.1-0.6,0-0.6,0c-0.1-0.3-0.2-0.7-0.2-1.1C438.2,132.4,438.4,132.1,438.8,131.5z   M340,172.5c-0.2,0.2-0.2,0.2-0.2,0.3c-0.8,0.5-1.2-0.1-1.5-0.6c-0.1-0.1,0.1-0.5,0.2-0.6C339.3,171.2,339.7,171.7,340,172.5z   M485.3,168.2c0.7,1.3,0.4,1.9-0.5,2.5C484,169.6,484.5,169,485.3,168.2z M422.9,142.9c0.7-0.1,1.5-0.2,1.9,0.6  C423.4,144.3,422.9,144.1,422.9,142.9z M426,183.1c0.2,0,0.4-0.1,0.5,0c0.5,0.2,1.1,0.5,1,1.2c0,0.2-0.5,0.4-0.6,0.4  C426.3,184.4,425.7,184,426,183.1z M200.8,179.2c-1,0.1-2.1,0.2-3.2,0.3C198.6,178.3,199.7,178.5,200.8,179.2z M377.8,166  c-0.8,0-1.3-0.3-1.2-1.1c0-0.2,0.6-0.6,0.8-0.5C378.1,164.7,378.1,165.3,377.8,166z M255.3,171.2c0.7,0.6,1.2,1.1,0.6,1.8  c-0.1,0.1-0.6,0.1-0.8,0C254.3,172.4,254.7,171.9,255.3,171.2z M440.6,139.9c-0.7,0.3-1.1,0.6-1.6,0.6c-0.2,0-0.6-0.4-0.6-0.6  c0.1-0.6,0.6-0.8,1.2-0.7C439.9,139.1,440.1,139.4,440.6,139.9z M224,175.4c-0.7,0-1.7,0.8-1.8-0.8C223,174.5,223.7,174.4,224,175.4  z M412.1,153.4c0.5,0.6,0.4,1,0,1.3c-0.3,0.2-0.7,0.2-1.1,0.3c0-0.4-0.1-0.8,0.1-1.1C411.3,153.7,411.8,153.6,412.1,153.4z   M435.1,142.6c-1.5-0.9-1.5-1-0.4-2.4C434.8,141.2,434.9,141.9,435.1,142.6z M427.3,176.2c0.5,0.5,0.8,0.8,1.1,1.2  c0,0-0.5,0.6-0.6,0.6c-0.4-0.2-0.8-0.5-1.1-0.9C426.7,177.1,427,176.7,427.3,176.2z M347.5,36.7c-1.2-0.2-2.3-0.4-3.5-0.5  c0-0.1,0-0.3,0.1-0.4c1.2,0.1,2.4,0.3,3.5,0.4C347.6,36.4,347.6,36.5,347.5,36.7z M140.2,38.4c0-0.4-0.1-0.8,0-0.9  c0.3-0.3,0.7-0.5,1.2-0.6c0.1,0,0.5,0.4,0.5,0.4c-0.2,0.4-0.5,0.7-0.8,1C140.9,38.4,140.6,38.3,140.2,38.4z M480.8,138.2  c0.1,1.2-0.4,1.9-1.1,1.8c-0.2,0-0.4-0.7-0.4-0.7C479.8,138.9,480.3,138.6,480.8,138.2z M340.8,165.6c0.4,0.5,0.8,0.8,0.8,1.1  c0,0.3-0.5,0.5-0.7,0.8c-0.2-0.2-0.7-0.5-0.7-0.7C340.1,166.4,340.5,166.1,340.8,165.6z M185.7,180.5c-0.5,1.9-0.5,1.9-2.3,1  C184.2,181.2,184.8,180.9,185.7,180.5z M224.8,177.1c-1,0.2-1.6,0.3-2.4,0.5C223.4,176.1,223.4,176.1,224.8,177.1z M60.5,153.7  c0.1,0.3,0.1,0.7,0.2,1.1c-0.4,0-0.8-0.1-0.9,0c-0.3,0.4-0.6,0.5-1,0.3l0,0C58.8,153.9,59.1,153.7,60.5,153.7L60.5,153.7z   M348.3,34.2c-0.5-0.9-0.7-1.4-0.1-1.7c0.2-0.1,0.6,0.3,1,0.4C348.9,33.3,348.6,33.7,348.3,34.2z M458.6,170.9  c0.3,0.5,0.6,0.8,0.6,1.1s-0.3,0.5-0.5,0.8c-0.3-0.3-0.7-0.6-0.8-0.9C457.9,171.7,458.3,171.4,458.6,170.9z M488.5,171.5  c0-0.4-0.1-0.9,0.1-1c0.5-0.4,1.1-0.2,1.5,0.3C489.8,171.7,489.1,171.5,488.5,171.5L488.5,171.5z M176.7,31.5  c-1.3,0.3-1.3,0.3-1.6-1C176.3,30.2,176.3,30.2,176.7,31.5z M405,175.6c0.3,0.5,0.7,0.8,0.6,1c-0.2,0.4-0.5,0.6-0.8,1  c-0.2-0.2-0.6-0.5-0.6-0.7C404.3,176.5,404.7,176.2,405,175.6z M269.5,169.6c-0.9,0.5-1.5-0.3-2.5-0.7c0.7-0.4,1.2-0.6,1.7-0.8  C269,168.7,269.3,169.1,269.5,169.6z M447.8,138.9c-0.5,0.2-0.8,0.6-1,0.5c-0.3-0.1-0.5-0.5-0.8-0.7c0.2-0.2,0.5-0.6,0.7-0.5  C447.1,138.3,447.4,138.6,447.8,138.9z M131.2,164.8c0.5,0.1,0.8,0.1,1.3,0.2c-0.2,0.6-0.3,1.1-0.4,1.6  C131,166.4,131.2,165.7,131.2,164.8z M427.2,140.8c-0.4,0.3-0.6,0.5-0.8,0.7c-0.2-0.3-0.6-0.5-0.7-0.8c0-0.2,0.3-0.5,0.5-0.7  C426.5,140.3,426.8,140.5,427.2,140.8z M137,40.4c-0.8-0.7-0.6-1.3,0-1.7c0.1-0.1,0.6,0,0.7,0.1C138.2,39.6,137.6,39.9,137,40.4z   M160.9,16.3c-0.3,0.3-0.5,0.6-0.7,0.8c-0.2-0.3-0.6-0.5-0.7-0.8c0-0.2,0.4-0.4,0.6-0.7C160.4,15.8,160.6,16,160.9,16.3z   M451.1,141.4c0.3,0.6,0.5,0.9,0.5,1.2c0,0.2-0.5,0.4-0.7,0.6c-0.2-0.3-0.5-0.5-0.5-0.8C450.5,142.1,450.8,141.9,451.1,141.4z   M129.7,28.4c0.2-0.3,0.3-0.7,0.5-0.9c0.2-0.2,0.6,0,0.9,0c-0.1,0.3,0,0.7-0.2,0.9c-0.2,0.2-0.6,0.3-0.9,0.4  C129.9,28.6,129.8,28.5,129.7,28.4z M455.6,148.9c-0.5,0.3-0.9,0.6-1.1,0.5c-0.3-0.1-0.6-0.4-0.9-0.6c0.3-0.2,0.5-0.5,0.8-0.5  C454.7,148.3,455.1,148.6,455.6,148.9z M219.1,176.4c-0.3-0.2-0.7-0.3-1.1-0.5c0.3-0.6,0.5-1,1-0.7  C219.5,175.4,219.6,175.8,219.1,176.4z M348.3,35.7c1-0.5,2-0.7,3,0.5C350.1,36.3,349.2,36.2,348.3,35.7L348.3,35.7z M184.3,178.8  c-1-0.6-1.2-1.2-0.7-2.1c0.4,0.1,0.9,0.1,1.5,0.2C184.6,177.5,183.7,177.7,184.3,178.8z M321.1,3c-0.3-0.4-0.8-0.7-0.7-0.8  c0.1-0.3,0.5-0.5,0.7-0.8c0.2,0.2,0.6,0.5,0.6,0.7S321.4,2.6,321.1,3z M255.9,170.6c0.4-0.6,0.6-1,0.9-1.6  C257.5,170.3,257.5,170.3,255.9,170.6z M174.9,179.9c-0.5-0.3-1.4,0.2-1.3-0.9c0-0.2,0.5-0.5,0.7-0.5  C175.1,178.7,175.2,179.2,174.9,179.9z M252.4,171.4c-0.1-0.5-0.2-1.1,0.5-1.2c0.2,0,0.6,0.3,0.6,0.5  C253.5,171.3,253.1,171.6,252.4,171.4z M194.5,174c0.5,0.3,1,0.5,1.5,0.7C194.7,175.6,194.7,175.6,194.5,174z M185.1,29.3  c-0.2-0.9-0.3-1.5-0.4-2.1C186.2,27.8,186.2,28,185.1,29.3z M391.4,165.5c-0.4,0.3-0.7,0.6-0.8,0.5c-0.3-0.1-0.6-0.4-0.9-0.7  c0.2-0.2,0.5-0.6,0.7-0.5C390.7,164.8,391,165.2,391.4,165.5z M399.3,158.1c-0.6-0.2-1.1-0.4-1.7-0.6  C398.5,156.6,398.5,156.6,399.3,158.1z M119.2,169.6c0.6-1.2,0.6-1.2,1.8-0.5c-0.6,0.3-1.1,0.6-1.6,0.8  C119.4,169.8,119.3,169.7,119.2,169.6z M34.4,135.6c0.8,0,1.4-0.1,2.2-0.1C35.5,136.9,35.5,136.9,34.4,135.6z M465.6,148.9  c-0.3,0.3-0.6,0.7-0.6,0.7c-0.3-0.2-0.7-0.4-0.8-0.7c-0.1-0.1,0.3-0.5,0.5-0.7C465,148.4,465.3,148.6,465.6,148.9z M318.1,20.2  c-0.5,0.2-0.8,0.5-1,0.4c-0.2-0.1-0.4-0.5-0.5-0.8c0.2-0.1,0.5-0.4,0.7-0.4C317.5,19.5,317.7,19.8,318.1,20.2z M321.4,22.5  c-0.4,0.3-0.7,0.6-0.8,0.6c-0.3-0.2-0.6-0.5-0.8-0.8c-0.1-0.1,0.4-0.6,0.4-0.6C320.6,21.9,320.9,22.2,321.4,22.5z M457.2,138.9  c0.3,0.4,0.6,0.8,0.5,0.8c-0.3,0.3-0.6,0.5-0.9,0.6c0,0-0.4-0.4-0.4-0.5C456.6,139.6,456.8,139.3,457.2,138.9z M194.7,28.1  c0.3-0.2,0.6-0.5,0.8-0.5c0.3,0.1,0.5,0.4,0.7,0.6c-0.2,0.2-0.5,0.6-0.7,0.6S195.1,28.4,194.7,28.1z M280.5,25.8  c-0.8,0.1-1.4-0.1-1.1-1.5c0.5,0.4,1,0.7,1.4,1C280.7,25.5,280.6,25.7,280.5,25.8z M456.2,160.2c-0.4-0.6-0.6-0.9-0.8-1.3  c0-0.1,0.2-0.4,0.4-0.5c0.6-0.1,0.9,0.3,0.9,0.8C456.8,159.4,456.5,159.6,456.2,160.2z M460.5,179.2c0-0.5,0-1,0-1.6  C461.6,178.4,461.6,178.4,460.5,179.2z M195.3,179.1c0.7-0.1,1.1-0.1,1.6-0.2c-0.2,0.6-0.3,1.1-0.4,1.7  C196.1,180.2,195.8,179.8,195.3,179.1z M453.6,154.7c-0.4,0.2-0.7,0.4-0.9,0.3c-0.3-0.2-0.6-0.4-0.8-0.7c0-0.1,0.3-0.4,0.4-0.6  C452.7,153.9,453,154.2,453.6,154.7z M203.4,180.4c0.5-1.2,0.5-1.2,1.8-0.4C204.8,180.8,204.1,180.3,203.4,180.4z M184,183.4  c-0.1-0.6-0.1-0.6,1.8-0.8C185,182.9,184.4,183.2,184,183.4z M139.8,36.8c-0.4-0.9-0.1-1.3,0.6-1.6  C140.5,36.1,140.5,36.1,139.8,36.8z M240.8,167.2c-0.3,0.1-0.5,0.4-0.8,0.4c-0.2,0-0.3-0.4-0.5-0.6c0.2-0.2,0.5-0.5,0.7-0.5  c0.2,0,0.5,0.2,0.8,0.3C241,166.9,240.9,167.1,240.8,167.2z M237.8,175.6c-0.5-0.4-0.7-0.8-0.3-1.3c0.1-0.1,0.5-0.1,0.6,0  C238.6,174.8,238.3,175.2,237.8,175.6z M59.4,130.3c-0.2,0.4-0.3,0.8-0.8,0.6c-0.7-0.3-0.3-0.9-0.2-1.3l0,0  C58.7,129.8,59,130,59.4,130.3z M123.3,177.4c-0.2,0.6-0.4,1.2-1.2,0.9c-0.1-0.1-0.3-0.4-0.3-0.5C122.2,177,122.8,177.2,123.3,177.4  z M478.8,179.8c0.5,0.8,0.4,1.3-0.3,1.8C478,180.9,478.1,180.4,478.8,179.8z M457.6,126c-1-0.3-1.3-0.8-1.1-1.6  C457.3,124.5,457.5,125,457.6,126z M225.4,175.3c-0.3-0.4-0.6-0.6-0.7-0.9c0-0.1,0.4-0.5,0.6-0.5c0.2,0,0.5,0.3,0.5,0.6  C225.8,174.6,225.6,174.9,225.4,175.3z M168.3,184.3c0,1.2,0,1.2-1.6,0.8C167.3,184.8,167.8,184.5,168.3,184.3z M427.7,166  c0.3,0.5,0.5,0.8,0.6,1.1c0,0-0.4,0.3-0.5,0.3c-0.2-0.2-0.5-0.5-0.6-0.7C427.2,166.6,427.5,166.4,427.7,166z M159.1,184.8  c0.3-0.2,0.6-0.5,1-0.7l0.3,0.3c-0.3,0.3-0.6,0.6-0.8,0.8C159.4,185.1,159.3,185,159.1,184.8z M190.6,28.5c-0.4-1.2,0.2-1.1,1-0.9  C191.3,27.9,190.9,28.2,190.6,28.5z M44.3,132.4c0.9,0.2,1.5,0.3,2.1,0.4C45.8,132.9,45,133.9,44.3,132.4z M111.5,172.1  c0.8-0.9,1.5-1.1,2.3-1.2C113.3,171.6,112.6,171.8,111.5,172.1z M445.4,142.8c-0.1-0.8,0.3-1.1,0.9-1.1c0.1,0,0.4,0.3,0.3,0.5  C446.5,142.9,446,143,445.4,142.8z M378,153.8c-0.5,0-0.9,0-1.5,0C377.1,153,377.1,153,378,153.8z M247.8,168.2  c-0.3-0.8-0.5-1.3-0.7-1.9C248.1,166.4,248.1,166.4,247.8,168.2z M242.8,166.2c0.6,0.2,0.9,0.3,1.4,0.5c-0.2,0.2-0.2,0.5-0.3,0.5  C243.3,167.2,242.6,167.4,242.8,166.2z M62.5,150.2c-0.2-1.1,0.2-1.4,1.2-1.4C63.3,149.3,63,149.6,62.5,150.2z M446.5,147.8  c0.1,0.2,0.2,0.5,0.2,0.7c-0.1,0.3-0.3,0.5-0.5,0.8c-0.2-0.1-0.4-0.3-0.6-0.4c0.2-0.3,0.4-0.5,0.5-0.8  C446.2,148,446.3,147.9,446.5,147.8z M346.8,179.9c0.9-0.2,1.3-0.1,1.4,0.7C347.6,180.9,347.2,180.7,346.8,179.9z M186.8,22.6  c0.2,0.3,0.4,0.6,0.4,0.7c-0.1,0.2-0.4,0.4-0.6,0.4c-0.2,0-0.5-0.4-0.4-0.5C186.2,23,186.5,22.9,186.8,22.6z M141.2,23.9  c-0.6,0.5-0.8,0.8-1.2,1.1C139.9,24,139.9,24,141.2,23.9z M270.3,24.4c0,0.6,0,0.8,0,1.3c-0.4-0.3-0.7-0.4-1.2-0.7  C269.6,24.7,269.9,24.6,270.3,24.4z M197.4,25.7c-0.4,0.2-0.7,0.4-0.9,0.4s-0.3-0.4-0.5-0.6c0.2-0.2,0.4-0.4,0.6-0.4  C196.9,25.1,197,25.4,197.4,25.7z M318.1,164.8c0.3,0.3,0.5,0.7,0.9,1.1C317.9,165.8,317.9,165.8,318.1,164.8  C318.1,164.7,318.1,164.8,318.1,164.8z M422,146c-0.4,0.3-0.6,0.5-0.8,0.6c-0.1,0-0.3-0.3-0.5-0.4c0.2-0.2,0.4-0.4,0.6-0.5  C421.4,145.5,421.6,145.8,422,146z M258.8,165c-0.1,0.2-0.3,0.3-0.4,0.5c-0.1-0.3-0.4-0.6-0.3-0.7c0.1-0.2,0.4-0.4,0.7-0.5  C258.7,164.5,258.7,164.8,258.8,165z M447.8,149.8c-0.3,0.3-0.5,0.5-0.7,0.7c-0.2-0.2-0.4-0.4-0.5-0.6c0-0.1,0.2-0.5,0.3-0.5  C447.2,149.4,447.4,149.6,447.8,149.8z M57,154.4l0.1-0.1c0.5,0.3,1.1,0.6,1.6,0.8l0,0C57.7,155.5,57.3,155.3,57,154.4z M263,162.7  c-0.9,0.1-0.9,0.1-1.5-0.8C262.2,161.7,262.6,162,263,162.7z M68,176.7c0.4-0.3,0.7-0.6,1.2-1.1c0.1,1.2-0.2,1.5-1,1.5  C68.2,177,68.1,176.9,68,176.7z M192,175.9c-0.5,0.1-0.9,0.2-1.7,0.4c0.4-0.5,0.5-0.7,0.7-0.9C191.4,175.2,191.4,175.2,192,175.9z   M451.3,166.3c0.3,0.4,0.5,0.6,0.5,0.8c0,0.1-0.2,0.3-0.3,0.5c-0.2-0.2-0.4-0.3-0.5-0.6C451,166.9,451.2,166.6,451.3,166.3z   M448.6,116.1c-0.4,0-0.7,0.1-0.9,0.1c-0.1,0-0.2-0.3-0.2-0.5c0.2-0.1,0.5-0.2,0.7-0.2C448.3,115.4,448.4,115.7,448.6,116.1z   M426.4,154.3c0.2,0.3,0.5,0.5,0.4,0.6c-0.1,0.2-0.3,0.4-0.5,0.6c-0.2-0.1-0.4-0.3-0.4-0.4C426,154.9,426.2,154.6,426.4,154.3z   M430.9,154.5c0.2,0.1,0.4,0.1,0.5,0.2c0.1,0.3,0.2,0.6,0.2,0.9c0,0.1-0.4,0.2-0.4,0.2c-0.1-0.3-0.3-0.5-0.3-0.8  C430.7,154.8,430.8,154.6,430.9,154.5L430.9,154.5z M387.2,151.7c-0.2,0.2-0.4,0.5-0.5,0.5c-0.2-0.1-0.4-0.3-0.5-0.5  c0-0.1,0.2-0.3,0.3-0.5C386.8,151.3,387,151.5,387.2,151.7z M263.4,170c-0.3-0.2-0.6-0.4-0.8-0.6c0,0,0.2-0.3,0.3-0.5  c0.3,0.2,0.5,0.5,0.8,0.7C263.6,169.7,263.5,169.8,263.4,170z M459.4,112.8c-0.2-0.3-0.4-0.5-0.5-0.8c0-0.1,0.2-0.3,0.3-0.5  c0.2,0.2,0.5,0.4,0.6,0.7C460,112.3,459.7,112.5,459.4,112.8z M233.4,174.3c0.3,0,0.7,0,1.3,0.1c-0.1,0.5-0.1,0.8-0.2,1.1  C234.1,175.1,233.7,174.7,233.4,174.3z M470.8,136.3c0.4-0.1,0.8-0.3,1.4-0.5c-0.3,1-0.7,1.2-1.2,0.9  C470.9,136.6,470.9,136.4,470.8,136.3z M222.1,170.5c0-0.4-0.1-0.7-0.1-1.1c0.3,0,0.6,0.1,1.2,0.2  C222.6,170.1,222.3,170.3,222.1,170.5L222.1,170.5z M452.2,135.2l-0.1,0.1c-0.3,0.1-0.7,0.1-1,0.2c0-0.2,0-0.5,0.1-0.6  C451.7,134.4,451.9,134.9,452.2,135.2L452.2,135.2z M274.3,169.5c0,0.5,0,1,0,1.7c-0.8-0.6-0.6-1.1-0.5-1.7  C274,169.5,274.2,169.5,274.3,169.5z M55.1,129.6c-0.3-0.1-0.7-0.1-1-0.2V129c0.3,0,0.7,0,1,0C55.1,129.3,55.1,129.5,55.1,129.6z   M438.8,141.1c0.3,0.3,0.5,0.5,0.7,0.7c0,0-0.2,0.4-0.3,0.4c-0.3-0.1-0.5-0.2-0.7-0.4C438.5,141.7,438.7,141.4,438.8,141.1z   M424.2,142.1c0.2-0.2,0.4-0.5,0.6-0.6l0.3,0.3c-0.2,0.3-0.4,0.5-0.6,0.8C424.5,142.3,424.4,142.2,424.2,142.1z M413.4,141.5  c-0.3,0.2-0.5,0.5-0.6,0.4c-0.2-0.1-0.4-0.3-0.6-0.4c0.2-0.2,0.3-0.5,0.5-0.5S413.1,141.3,413.4,141.5z M235.4,175.4  c0.3-0.4,0.5-0.7,0.7-0.9c0.2,0.1,0.3,0.1,0.3,0.2C236.6,175.3,236.4,175.7,235.4,175.4z M418.8,176.6c0.4-0.2,0.6-0.4,0.8-0.3  c0.2,0.1,0.4,0.3,0.6,0.5c-0.2,0.1-0.3,0.4-0.5,0.4S419.4,177,418.8,176.6z M178.5,178.7c0.4-1,1-1,1.6-1c-0.2,0.2-0.4,0.4-0.6,0.5  C179.2,178.4,179,178.5,178.5,178.7z M202.5,179c-0.4-0.2-0.8-0.4-1.4-0.8c1-0.5,1.3,0,1.6,0.3C202.6,178.7,202.5,178.8,202.5,179z   M212,25.6c-0.4,0.2-0.7,0.5-0.8,0.4c-0.2-0.1-0.4-0.3-0.5-0.6c0-0.1,0.3-0.4,0.4-0.4C211.3,25.1,211.5,25.3,212,25.6z M257.5,23.9  c1.1,0.1,0.9,0.7,0.7,1.3C258,24.8,257.8,24.4,257.5,23.9z M431.5,199.5c-0.3,0.2-0.5,0.5-0.6,0.5c-0.2,0-0.4-0.2-0.5-0.4  c0-0.1,0.2-0.3,0.3-0.5C430.9,199.2,431.1,199.3,431.5,199.5z M266.6,171c-0.3,0.2-0.5,0.4-0.8,0.4c-0.1,0-0.3-0.3-0.3-0.3  c0.1-0.2,0.3-0.4,0.5-0.6C266.2,170.7,266.4,170.8,266.6,171z M462.5,168.5c-0.8-0.5-1-0.9-0.5-1.5c0.2,0.2,0.4,0.4,0.4,0.6  C462.5,167.7,462.5,168,462.5,168.5z M446.5,97.4c0-0.3,0.1-0.7,0.1-1c0.2,0,0.4,0,0.4,0.1C447.3,96.8,447.2,96.9,446.5,97.4z   M189.9,21.9c0.2,0.3,0.4,0.5,0.4,0.6c-0.1,0.2-0.3,0.4-0.4,0.6c-0.1-0.1-0.4-0.3-0.4-0.4C189.5,22.5,189.7,22.3,189.9,21.9z   M404.6,158.9c-0.3,0.1-0.6,0.2-0.9,0.3c0,0-0.1-0.3-0.2-0.4c0.3-0.1,0.6-0.2,0.9-0.3C404.5,158.7,404.6,158.8,404.6,158.9z   M442.1,85.6C442.1,85.6,442,85.6,442.1,85.6c-0.1-0.5-0.1-0.9-0.2-1.5C443,84.7,442.2,85.2,442.1,85.6z M288.6,160.8  c0.2,0.3,0.5,0.4,0.4,0.6c0,0.2-0.3,0.4-0.4,0.4c-0.2,0-0.4-0.2-0.5-0.3C288.2,161.3,288.3,161.1,288.6,160.8z M414.3,156.8  L414.3,156.8c-0.2-0.5-0.8-0.9-0.2-1.5C414.9,155.8,414.4,156.3,414.3,156.8z M457.3,146.6c0.3,0.3,0.5,0.4,0.5,0.6  c0,0.2-0.2,0.4-0.3,0.5c-0.2-0.1-0.4-0.2-0.5-0.4C457.1,147.3,457.2,147,457.3,146.6z M48,78.4c0.3,0.3,0.5,0.5,0.7,0.7  c-0.2,0.1-0.3,0.4-0.5,0.4c-0.2,0-0.4-0.2-0.5-0.4C47.7,79,47.9,78.8,48,78.4z M434.1,145.5c-0.3,0.2-0.5,0.4-0.6,0.3  c-0.2-0.1-0.3-0.3-0.3-0.5c0-0.1,0.3-0.4,0.4-0.4C433.7,145,433.8,145.2,434.1,145.5z M136.6,165.5c-0.2,0.6-0.6,1-1.5,0.4  C135.8,165.7,136.2,165.6,136.6,165.5L136.6,165.5z M39.7,134.6c-0.2,0.2-0.3,0.5-0.4,0.5c-0.2-0.1-0.4-0.2-0.5-0.4  c0.1-0.1,0.2-0.4,0.3-0.3C39.2,134.3,39.4,134.4,39.7,134.6z M477.9,168.2c0.4,0,0.7-0.1,1.1-0.1c0,0.2,0,0.3,0.1,0.5  c-0.4,0-0.7,0.1-1.1,0.1C478,168.5,478,168.3,477.9,168.2z M190,29.2c-0.3,0.1-0.8,0.5-1-0.1c-0.1-0.2,0.2-0.4,0.4-0.7  C189.6,28.7,189.8,28.9,190,29.2L190,29.2z M228.5,169.5c-0.2-0.2-0.4-0.4-0.4-0.5c0-0.2,0.2-0.4,0.3-0.5c0.2,0.1,0.4,0.3,0.6,0.4  C228.9,169.1,228.8,169.2,228.5,169.5z M283,169c0.3,0.1,0.6,0.2,1,0.3c-0.3,0.2-0.6,0.4-1,0.7C283,169.6,283,169.3,283,169z   M220.6,170.5c0-0.5,0.2-0.6,0.6-0.4c0.3,0.1,0.6,0.3,0.9,0.4l0,0C221.5,171.2,221.1,171,220.6,170.5L220.6,170.5z M431.9,135.6  c0.8,0.4,0.8,0.4-0.1,1.2C431.9,136.3,431.9,135.9,431.9,135.6C432,135.6,431.9,135.6,431.9,135.6z M225.3,171.6  c0-0.4-0.1-0.7-0.1-1.1c0.1,0,0.2,0,0.4-0.1c0.1,0.4,0.2,0.7,0.2,1.1C225.6,171.6,225.5,171.6,225.3,171.6z M130.7,166  c-0.3,0-0.5-0.1-0.8-0.1c0,0,0-0.2,0-0.3c0.3,0,0.5,0.1,0.8,0.1C130.7,165.8,130.7,165.9,130.7,166z M224.2,23.2  c-0.3,0.1-0.4,0.2-0.6,0.3c-0.1,0-0.3-0.3-0.2-0.3c0.1-0.1,0.3-0.3,0.5-0.3C223.9,22.8,224,23,224.2,23.2z M267.2,26  c0.4,0.2,0.7,0.3,1.2,0.5C267.4,27.2,267.5,26.2,267.2,26L267.2,26z M220.6,174.5c0.2,0.1,0.4,0.3,0.4,0.3c-0.1,0.2-0.2,0.3-0.3,0.5  c-0.1-0.1-0.3-0.2-0.3-0.4C220.4,174.9,220.5,174.7,220.6,174.5z M277.8,27L277.8,27c-0.3,0.1-0.5,0.3-0.8,0.4c0-0.1,0-0.2,0-0.3  c0.1-0.3,0.1-0.5,0.2-0.8C277.4,26.6,277.6,26.8,277.8,27z M47.3,77.2c0.1,0.3,0.3,0.5,0.2,0.7c0,0.1-0.3,0.4-0.4,0.3  c-0.2-0.1-0.3-0.3-0.4-0.4C46.7,77.7,46.9,77.6,47.3,77.2z M409.8,169c-0.3,0.2-0.5,0.3-0.7,0.5c-0.1-0.2-0.3-0.4-0.3-0.5  c0-0.2,0.3-0.4,0.4-0.4C409.4,168.5,409.5,168.8,409.8,169z M265.9,169.3c-0.2,0-0.5,0.1-0.7,0.1c0-0.2,0-0.3,0-0.5  c0.2,0,0.5,0.1,0.7,0.1C265.9,169.1,265.9,169.2,265.9,169.3z M480,133.8c0.3-0.2,0.5-0.3,0.8-0.5c0.1,0.1,0.1,0.2,0.2,0.3  c-0.2,0.2-0.5,0.4-0.7,0.6C480.2,134,480.1,133.9,480,133.8z M468.5,138.2c0.3,0.4,0.5,0.5,0.6,0.7c0,0.1-0.3,0.4-0.4,0.4  c-0.2,0-0.4-0.2-0.5-0.4C468.3,138.8,468.4,138.6,468.5,138.2z M469.7,140.4c-0.2,0.2-0.3,0.3-0.4,0.4c-0.2-0.2-0.4-0.3-0.5-0.5  c0.1-0.1,0.3-0.3,0.3-0.3C469.3,140.1,469.5,140.2,469.7,140.4z M269.9,170.3c0.4,0.1,0.7,0.1,1.1,0.2c0,0.1,0,0.2,0,0.3  c-0.4,0-0.8,0-1.1,0C269.8,170.5,269.9,170.4,269.9,170.3z M211.9,171.6c-0.2,0.1-0.5,0.3-0.7,0.4c-0.1-0.1-0.2-0.3-0.2-0.3  c0.2-0.2,0.4-0.4,0.6-0.5C211.8,171.4,211.9,171.5,211.9,171.6z M421.3,158.4c-0.4-0.1-0.9-0.2-1.4-0.3  C420.7,157.4,420.7,157.4,421.3,158.4L421.3,158.4z M474.5,158c-0.3,0.1-0.5,0.3-0.6,0.2c-0.2-0.1-0.3-0.4-0.3-0.5  c0-0.1,0.3-0.3,0.5-0.3C474.2,157.5,474.3,157.7,474.5,158z M438.7,158.6c0.3-0.2,0.5-0.4,0.8-0.6l0.2,0.2c-0.2,0.2-0.5,0.5-0.7,0.7  C438.9,158.9,438.8,158.8,438.7,158.6z M197,182.1c-0.3,0-0.7,0-1,0c0-0.1,0-0.2,0-0.3c0.3,0,0.7-0.1,1-0.2  C197,181.8,197,181.9,197,182.1z M48.3,92.5c0,0.4,0.7,0.9-0.3,1.4C48.1,93.3,48.2,92.9,48.3,92.5L48.3,92.5z M403,162.1  c-0.2-0.3-0.4-0.6-0.3-0.7c0-0.2,0.3-0.3,0.5-0.4c0.1,0.2,0.3,0.3,0.3,0.5C403.4,161.6,403.2,161.8,403,162.1z M273.1,162.3  c0.2,0.5,0.4,0.7,0.4,0.9c0,0.1-0.2,0.2-0.3,0.3c-0.1-0.2-0.3-0.3-0.3-0.5C272.8,162.8,272.9,162.7,273.1,162.3z M270.2,165  c0.1-0.3,0.1-0.6,0.2-0.8c0.1,0,0.2,0,0.3,0c0,0.3,0,0.6,0,0.9C270.5,165,270.3,165,270.2,165z M488.5,171.5c0,0.1,0.1,0.2,0,0.3  c-0.1,0.2-0.2,0.4-0.3,0.6c0,0-0.2-0.1-0.3-0.1c0.1-0.2,0.1-0.5,0.3-0.7C488.2,171.6,488.4,171.6,488.5,171.5L488.5,171.5z   M446.1,137.8c-0.4,0.1-0.6,0.2-0.8,0.2c-0.1,0-0.2-0.2-0.3-0.4c0.2-0.1,0.3-0.4,0.5-0.4C445.6,137.3,445.8,137.5,446.1,137.8z   M457.8,138.4c-0.4,0.2-0.6,0.3-0.7,0.2c-0.2-0.1-0.3-0.3-0.4-0.5c0,0,0.1-0.3,0.2-0.2C457,138,457.2,138.1,457.8,138.4z   M104.1,173.9c-0.1-0.1-0.1-0.1-0.2-0.2c0.1-0.1,0.2-0.2,0.3-0.2c0,0.1,0.1,0.2,0.1,0.3L104.1,173.9z M181.8,28  c0.3-0.1,0.4-0.3,0.6-0.3c0.1,0,0.3,0.3,0.2,0.3c0,0.1-0.2,0.3-0.4,0.3C182.2,28.3,182.1,28.2,181.8,28z M199.9,26.8  c0.1-0.1,0.2-0.2,0.4-0.3c0.1,0,0.2,0.1,0.3,0.1c-0.1,0.1-0.2,0.3-0.3,0.3C200.2,27,200,26.9,199.9,26.8z M272.3,25.4  c-0.1,0-0.3,0.1-0.4,0.1c-0.1,0-0.1-0.2-0.1-0.4c0.2,0,0.3-0.1,0.5-0.1C272.2,25.1,272.2,25.3,272.3,25.4z M46.3,156.3  c0.2,0.1,0.4,0.3,0.4,0.3c-0.1,0.2-0.2,0.3-0.3,0.5c-0.1-0.1-0.3-0.2-0.3-0.3C46,156.6,46.2,156.5,46.3,156.3z M206.2,23.4  c-0.2,0.1-0.4,0.3-0.5,0.3c-0.1,0-0.2-0.2-0.3-0.3c0.1-0.1,0.3-0.2,0.4-0.3C205.9,23.1,206,23.3,206.2,23.4z M432.7,175.3  c-0.2-0.2-0.4-0.3-0.5-0.5c0-0.1,0.2-0.3,0.3-0.4c0.1,0.1,0.3,0.3,0.4,0.5C433,174.9,432.8,175.1,432.7,175.3z M210.8,20.7  c-0.3,0.2-0.4,0.4-0.6,0.4c0,0-0.3-0.2-0.3-0.3s0.2-0.3,0.3-0.4C210.4,20.5,210.5,20.6,210.8,20.7z M206.7,18  c-0.1-0.2-0.3-0.3-0.3-0.4c0-0.1,0.2-0.2,0.3-0.4c0.1,0.1,0.3,0.2,0.3,0.3C207,17.7,206.9,17.8,206.7,18z M414.9,175.6  c-0.3,0.1-0.5,0.3-0.5,0.3c-0.1-0.1-0.2-0.3-0.3-0.5l0.2-0.2C414.5,175.3,414.7,175.4,414.9,175.6z M425,156.4  c-0.2,0.1-0.3,0.3-0.4,0.3c-0.1,0-0.2-0.2-0.4-0.3c0.1-0.1,0.2-0.3,0.4-0.3C424.7,156.1,424.8,156.2,425,156.4z M487.3,127.9  c0.3,0,0.6-0.1,0.9-0.1c0,0.1,0,0.1,0,0.2c-0.3,0.1-0.6,0.1-0.9,0.2C487.3,128.1,487.3,128,487.3,127.9z M274.7,162.7  c-0.1,0.2-0.2,0.3-0.3,0.4c-0.1-0.1-0.3-0.3-0.4-0.4c0.1-0.1,0.2-0.3,0.3-0.3C274.5,162.4,274.6,162.5,274.7,162.7z M341.7,168.8  c0.2,0.2,0.3,0.4,0.4,0.5c0,0.1-0.2,0.3-0.3,0.3c-0.1,0-0.3-0.2-0.3-0.3C341.4,169.2,341.6,169.1,341.7,168.8z M408.4,169.8  c-0.2,0.1-0.4,0.2-0.6,0.2c-0.1,0-0.2-0.3-0.2-0.4c0.1-0.2,0.3-0.2,0.5-0.4C408.1,169.4,408.2,169.5,408.4,169.8z M212.8,178.5  c-0.2,0.1-0.3,0.3-0.5,0.3c-0.1,0-0.2-0.2-0.3-0.2c0.1-0.1,0.2-0.3,0.3-0.3C212.4,178.3,212.6,178.4,212.8,178.5z M467.9,149.7  c-0.2,0.2-0.5,0.3-0.7,0.5c-0.1-0.1-0.3-0.3-0.4-0.4c0.2-0.2,0.4-0.4,0.6-0.6C467.6,149.4,467.8,149.5,467.9,149.7z M466.2,148.8  c0.2,0.2,0.3,0.3,0.5,0.5c-0.1,0.1-0.3,0.3-0.3,0.3c-0.2,0-0.4-0.2-0.5-0.3C465.9,149.1,466,149,466.2,148.8z M220.6,170.5  c-0.5,0.6-1,0.4-1.3-0.4C219.7,170.2,220.2,170.4,220.6,170.5L220.6,170.5z M42.9,133.1c0.3-0.1,0.5-0.3,0.8-0.3  c0.1,0,0.2,0.2,0.3,0.4c-0.2,0.1-0.4,0.3-0.6,0.4C43.2,133.5,43.1,133.3,42.9,133.1z M451.4,158.9c-0.1,0.1-0.2,0.3-0.3,0.4  c-0.1-0.1-0.3-0.3-0.4-0.4c0,0,0.2-0.2,0.3-0.3C451.1,158.7,451.2,158.8,451.4,158.9z M171.1,183.3c-0.3,0.7-0.6,0.5-1.3-0.1  C170.5,183.2,170.8,183.3,171.1,183.3C171.2,183.3,171.1,183.3,171.1,183.3z M422.1,144.1c-0.4,0.2-0.5,0.4-0.7,0.4  c-0.1,0-0.3-0.1-0.4-0.2c0.1-0.2,0.2-0.4,0.4-0.5C421.5,143.8,421.7,144,422.1,144.1z M43.8,157.3c-0.3,0-0.7,0.1-1,0.1  c0-0.1,0-0.2,0-0.3c0.3-0.1,0.7-0.1,1-0.2C43.8,157,43.8,157.1,43.8,157.3z M248.3,171.4c0.3-0.1,0.5-0.1,0.8-0.2l0.1,0.3  c-0.3,0.1-0.5,0.2-0.8,0.2C248.4,171.6,248.4,171.5,248.3,171.4z M452.2,135.3c0.3,0,0.6,0,1,0C452.7,135.9,452.7,135.9,452.2,135.3  C452.2,135.2,452.2,135.3,452.2,135.3z M33.8,137.1c-0.2-0.2-0.3-0.3-0.4-0.4c0.1-0.1,0.3-0.3,0.4-0.4c0.1,0,0.2,0.2,0.3,0.2  C34.1,136.7,34,136.9,33.8,137.1z M398.7,187.8c-0.2-0.3-0.5-0.5-0.4-0.7c0-0.2,0.3-0.3,0.4-0.4c0,0,0.3,0.2,0.3,0.3  C399,187.2,398.8,187.4,398.7,187.8z M272.9,165.6c0.1-0.3,0.2-0.5,0.4-0.7c0,0,0.2,0.1,0.4,0.2c-0.2,0.2-0.3,0.5-0.5,0.7  C273.1,165.7,273,165.6,272.9,165.6z M415.2,176.3c0.2,0.3,0.3,0.5,0.4,0.7l-0.3,0.3c-0.2-0.2-0.4-0.3-0.5-0.5  C414.8,176.6,415,176.5,415.2,176.3z M274.3,32.7c-0.2,0.1-0.5,0.2-0.7,0.3c0-0.1-0.1-0.2-0.1-0.3c0.2-0.1,0.5-0.2,0.7-0.3  C274.2,32.5,274.3,32.6,274.3,32.7z M423.1,132.8c-0.5-0.2-1-0.4-1.9-0.7c0.7-0.2,0.9-0.3,1.2-0.4  C422.6,132,422.8,132.4,423.1,132.8z"/>
</svg>
